<mxfile host="app.diagrams.net" modified="2023-09-12T22:51:47.994Z" agent="Mozilla/5.0 (Windows NT 10.0; Win64; x64) AppleWebKit/537.36 (KHTML, like Gecko) Chrome/116.0.0.0 Safari/537.36" etag="NkWODAbG49tHAfuQrTrv" version="21.6.7" type="github">
  <diagram name="Page-1" id="Jk2O8jjHPCrxvKXn3yXe">
    <mxGraphModel dx="1790" dy="942" grid="1" gridSize="10" guides="1" tooltips="1" connect="1" arrows="1" fold="1" page="1" pageScale="1" pageWidth="1400" pageHeight="850" math="0" shadow="0">
      <root>
        <mxCell id="0" />
        <mxCell id="1" parent="0" />
        <mxCell id="Of2HctXFItvGuZZWUc3y-136" value="" style="group" parent="1" vertex="1" connectable="0">
          <mxGeometry x="592" y="482.75" width="32.5" height="62" as="geometry" />
        </mxCell>
        <mxCell id="Of2HctXFItvGuZZWUc3y-137" value="" style="group;fillColor=default;gradientColor=none;rotation=-180;" parent="Of2HctXFItvGuZZWUc3y-136" vertex="1" connectable="0">
          <mxGeometry width="32.5" height="27.555555555555557" as="geometry" />
        </mxCell>
        <mxCell id="Of2HctXFItvGuZZWUc3y-248" value="" style="group" parent="Of2HctXFItvGuZZWUc3y-137" vertex="1" connectable="0">
          <mxGeometry x="3.611111111111109" y="-0.6888888888888889" width="27.555555555555564" height="27.555555555555557" as="geometry" />
        </mxCell>
        <mxCell id="Of2HctXFItvGuZZWUc3y-138" value="" style="ellipse;whiteSpace=wrap;html=1;aspect=fixed;fillColor=#e3c800;rotation=-180;fontColor=#000000;strokeColor=#B09500;" parent="Of2HctXFItvGuZZWUc3y-248" vertex="1">
          <mxGeometry x="1.0000000000000022" width="27.555555555555557" height="27.555555555555557" as="geometry" />
        </mxCell>
        <mxCell id="Of2HctXFItvGuZZWUc3y-139" value="" style="curved=1;endArrow=none;html=1;rounded=0;endFill=0;" parent="Of2HctXFItvGuZZWUc3y-248" edge="1">
          <mxGeometry width="50" height="50" relative="1" as="geometry">
            <mxPoint x="15.888888888888891" as="sourcePoint" />
            <mxPoint x="12.27777777777778" y="28.244444444444447" as="targetPoint" />
            <Array as="points">
              <mxPoint x="23.833333333333336" />
              <mxPoint x="7.944444444444446" y="20.666666666666668" />
            </Array>
          </mxGeometry>
        </mxCell>
        <mxCell id="Of2HctXFItvGuZZWUc3y-140" value="" style="group" parent="1" vertex="1" connectable="0">
          <mxGeometry x="712" y="387" width="32.5" height="62" as="geometry" />
        </mxCell>
        <mxCell id="Of2HctXFItvGuZZWUc3y-141" value="" style="group;fillColor=default;gradientColor=none;rotation=-180;" parent="Of2HctXFItvGuZZWUc3y-140" vertex="1" connectable="0">
          <mxGeometry width="32.5" height="27.555555555555557" as="geometry" />
        </mxCell>
        <mxCell id="Of2HctXFItvGuZZWUc3y-142" value="" style="ellipse;whiteSpace=wrap;html=1;aspect=fixed;fillColor=#e3c800;rotation=-180;fontColor=#000000;strokeColor=#B09500;" parent="Of2HctXFItvGuZZWUc3y-141" vertex="1">
          <mxGeometry x="3.611111111111111" y="-0.6888888888888889" width="27.555555555555557" height="27.555555555555557" as="geometry" />
        </mxCell>
        <mxCell id="Of2HctXFItvGuZZWUc3y-143" value="" style="curved=1;endArrow=none;html=1;rounded=0;endFill=0;" parent="Of2HctXFItvGuZZWUc3y-141" edge="1">
          <mxGeometry width="50" height="50" relative="1" as="geometry">
            <mxPoint x="19.5" y="-0.6888888888888889" as="sourcePoint" />
            <mxPoint x="15.88888888888889" y="27.555555555555557" as="targetPoint" />
            <Array as="points">
              <mxPoint x="27.444444444444443" y="-0.6888888888888889" />
              <mxPoint x="11.555555555555555" y="19.977777777777778" />
            </Array>
          </mxGeometry>
        </mxCell>
        <mxCell id="Of2HctXFItvGuZZWUc3y-144" value="" style="group" parent="1" vertex="1" connectable="0">
          <mxGeometry x="800" y="266" width="32.5" height="62" as="geometry" />
        </mxCell>
        <mxCell id="Of2HctXFItvGuZZWUc3y-145" value="" style="group;fillColor=default;gradientColor=none;rotation=-180;" parent="Of2HctXFItvGuZZWUc3y-144" vertex="1" connectable="0">
          <mxGeometry width="32.5" height="27.555555555555557" as="geometry" />
        </mxCell>
        <mxCell id="Of2HctXFItvGuZZWUc3y-146" value="" style="ellipse;whiteSpace=wrap;html=1;aspect=fixed;fillColor=#e3c800;rotation=-180;fontColor=#000000;strokeColor=#B09500;" parent="Of2HctXFItvGuZZWUc3y-145" vertex="1">
          <mxGeometry x="3.611111111111111" y="-0.6888888888888889" width="27.555555555555557" height="27.555555555555557" as="geometry" />
        </mxCell>
        <mxCell id="Of2HctXFItvGuZZWUc3y-147" value="" style="curved=1;endArrow=none;html=1;rounded=0;endFill=0;" parent="Of2HctXFItvGuZZWUc3y-145" edge="1">
          <mxGeometry width="50" height="50" relative="1" as="geometry">
            <mxPoint x="19.5" y="-0.6888888888888889" as="sourcePoint" />
            <mxPoint x="15.88888888888889" y="27.555555555555557" as="targetPoint" />
            <Array as="points">
              <mxPoint x="27.444444444444443" y="-0.6888888888888889" />
              <mxPoint x="11.555555555555555" y="19.977777777777778" />
            </Array>
          </mxGeometry>
        </mxCell>
        <mxCell id="Of2HctXFItvGuZZWUc3y-148" value="" style="group" parent="1" vertex="1" connectable="0">
          <mxGeometry x="909.75" y="122" width="32.5" height="62" as="geometry" />
        </mxCell>
        <mxCell id="Of2HctXFItvGuZZWUc3y-149" value="" style="group;fillColor=default;gradientColor=none;rotation=-180;" parent="Of2HctXFItvGuZZWUc3y-148" vertex="1" connectable="0">
          <mxGeometry width="32.5" height="27.555555555555557" as="geometry" />
        </mxCell>
        <mxCell id="Of2HctXFItvGuZZWUc3y-150" value="" style="ellipse;whiteSpace=wrap;html=1;aspect=fixed;fillColor=#e3c800;rotation=-180;fontColor=#000000;strokeColor=#B09500;" parent="Of2HctXFItvGuZZWUc3y-149" vertex="1">
          <mxGeometry x="3.611111111111111" y="-0.6888888888888889" width="27.555555555555557" height="27.555555555555557" as="geometry" />
        </mxCell>
        <mxCell id="Of2HctXFItvGuZZWUc3y-151" value="" style="curved=1;endArrow=none;html=1;rounded=0;endFill=0;" parent="Of2HctXFItvGuZZWUc3y-149" edge="1">
          <mxGeometry width="50" height="50" relative="1" as="geometry">
            <mxPoint x="19.5" y="-0.6888888888888889" as="sourcePoint" />
            <mxPoint x="15.88888888888889" y="27.555555555555557" as="targetPoint" />
            <Array as="points">
              <mxPoint x="27.444444444444443" y="-0.6888888888888889" />
              <mxPoint x="11.555555555555555" y="19.977777777777778" />
            </Array>
          </mxGeometry>
        </mxCell>
        <mxCell id="Of2HctXFItvGuZZWUc3y-1" value="" style="shape=cube;whiteSpace=wrap;html=1;boundedLbl=1;backgroundOutline=1;darkOpacity=0.05;darkOpacity2=0.1;fillColor=#FAE5C7;strokeColor=#0F8B8D;flipH=1;size=25;rounded=1;labelBackgroundColor=none;fontColor=#143642;dashed=1;" parent="1" vertex="1">
          <mxGeometry x="347" y="70" width="32" height="134" as="geometry" />
        </mxCell>
        <mxCell id="Of2HctXFItvGuZZWUc3y-2" value="&lt;pre&gt;&lt;span style=&quot;font-size: 14px;&quot;&gt;&lt;b&gt;64&lt;sup&gt;3&lt;/sup&gt;&lt;/b&gt;&lt;/span&gt;&lt;/pre&gt;" style="text;html=1;resizable=0;autosize=1;align=center;verticalAlign=middle;points=[];fillColor=none;strokeColor=none;rounded=1;labelBackgroundColor=none;fontColor=#143642;" parent="1" vertex="1">
          <mxGeometry x="239" y="103" width="50" height="60" as="geometry" />
        </mxCell>
        <mxCell id="Of2HctXFItvGuZZWUc3y-3" value="" style="shape=flexArrow;endArrow=classic;html=1;rounded=1;fontSize=14;labelBackgroundColor=none;fontColor=default;" parent="1" edge="1">
          <mxGeometry width="50" height="50" relative="1" as="geometry">
            <mxPoint x="385" y="133.83" as="sourcePoint" />
            <mxPoint x="972" y="134" as="targetPoint" />
          </mxGeometry>
        </mxCell>
        <mxCell id="Of2HctXFItvGuZZWUc3y-4" value="&lt;pre&gt;&lt;b style=&quot;&quot;&gt;&lt;sup style=&quot;&quot;&gt;&lt;span style=&quot;font-size: 14px;&quot;&gt;32&lt;sup&gt;3&lt;/sup&gt;&lt;/span&gt;&lt;/sup&gt;&lt;/b&gt;&lt;/pre&gt;" style="text;html=1;resizable=0;autosize=1;align=center;verticalAlign=middle;points=[];fillColor=none;strokeColor=none;rounded=1;labelBackgroundColor=none;fontColor=#143642;arcSize=0;" parent="1" vertex="1">
          <mxGeometry x="284" y="259" width="50" height="60" as="geometry" />
        </mxCell>
        <mxCell id="Of2HctXFItvGuZZWUc3y-5" value="&lt;pre&gt;&lt;span style=&quot;font-size: 14px;&quot;&gt;&lt;b&gt;128&lt;/b&gt;&lt;/span&gt;&lt;/pre&gt;" style="text;html=1;resizable=0;autosize=1;align=center;verticalAlign=middle;points=[];fillColor=none;strokeColor=none;rounded=1;labelBackgroundColor=none;fontColor=#143642;" parent="1" vertex="1">
          <mxGeometry x="403" y="203" width="50" height="50" as="geometry" />
        </mxCell>
        <mxCell id="Of2HctXFItvGuZZWUc3y-6" value="&lt;pre&gt;&lt;b style=&quot;&quot;&gt;&lt;sup style=&quot;&quot;&gt;&lt;span style=&quot;font-size: 14px;&quot;&gt;16&lt;sup&gt;3&lt;/sup&gt;&lt;/span&gt;&lt;/sup&gt;&lt;/b&gt;&lt;/pre&gt;" style="text;html=1;resizable=0;autosize=1;align=center;verticalAlign=middle;points=[];fillColor=none;strokeColor=none;rounded=1;labelBackgroundColor=none;fontColor=#143642;" parent="1" vertex="1">
          <mxGeometry x="342" y="382" width="50" height="60" as="geometry" />
        </mxCell>
        <mxCell id="Of2HctXFItvGuZZWUc3y-7" value="&lt;pre&gt;&lt;span style=&quot;font-size: 14px;&quot;&gt;&lt;b&gt;256&lt;/b&gt;&lt;/span&gt;&lt;/pre&gt;" style="text;html=1;resizable=0;autosize=1;align=center;verticalAlign=middle;points=[];fillColor=none;strokeColor=none;rounded=1;labelBackgroundColor=none;fontColor=#143642;" parent="1" vertex="1">
          <mxGeometry x="459" y="334" width="50" height="50" as="geometry" />
        </mxCell>
        <mxCell id="Of2HctXFItvGuZZWUc3y-8" value="&lt;pre&gt;&lt;span style=&quot;font-size: 14px;&quot;&gt;&lt;b&gt;512&lt;/b&gt;&lt;/span&gt;&lt;/pre&gt;" style="text;html=1;resizable=0;autosize=1;align=center;verticalAlign=middle;points=[];fillColor=none;strokeColor=none;rounded=1;labelBackgroundColor=none;fontColor=#143642;" parent="1" vertex="1">
          <mxGeometry x="523" y="430" width="50" height="50" as="geometry" />
        </mxCell>
        <mxCell id="Of2HctXFItvGuZZWUc3y-9" value="&lt;pre&gt;&lt;b style=&quot;&quot;&gt;&lt;sup style=&quot;&quot;&gt;&lt;span style=&quot;font-size: 14px;&quot;&gt;8&lt;sup&gt;3&lt;/sup&gt;&lt;/span&gt;&lt;/sup&gt;&lt;/b&gt;&lt;/pre&gt;" style="text;html=1;resizable=0;autosize=1;align=center;verticalAlign=middle;points=[];fillColor=none;strokeColor=none;rounded=1;labelBackgroundColor=none;fontColor=#143642;" parent="1" vertex="1">
          <mxGeometry x="413" y="470" width="40" height="60" as="geometry" />
        </mxCell>
        <mxCell id="Of2HctXFItvGuZZWUc3y-10" value="&lt;pre&gt;&lt;b style=&quot;&quot;&gt;&lt;sup style=&quot;&quot;&gt;&lt;span style=&quot;font-size: 14px;&quot;&gt;4&lt;sup&gt;3&lt;/sup&gt;&lt;/span&gt;&lt;/sup&gt;&lt;/b&gt;&lt;/pre&gt;" style="text;html=1;resizable=0;autosize=1;align=center;verticalAlign=middle;points=[];fillColor=none;strokeColor=none;rounded=1;labelBackgroundColor=none;fontColor=#143642;" parent="1" vertex="1">
          <mxGeometry x="483" y="552" width="40" height="60" as="geometry" />
        </mxCell>
        <mxCell id="Of2HctXFItvGuZZWUc3y-11" value="" style="shape=flexArrow;endArrow=classic;html=1;rounded=1;fontSize=14;labelBackgroundColor=none;fontColor=default;" parent="1" edge="1">
          <mxGeometry width="50" height="50" relative="1" as="geometry">
            <mxPoint x="579" y="494" as="sourcePoint" />
            <mxPoint x="650" y="494" as="targetPoint" />
          </mxGeometry>
        </mxCell>
        <mxCell id="Of2HctXFItvGuZZWUc3y-12" value="" style="shape=flexArrow;endArrow=classic;html=1;rounded=1;fontSize=14;labelBackgroundColor=none;fontColor=default;" parent="1" edge="1">
          <mxGeometry width="50" height="50" relative="1" as="geometry">
            <mxPoint x="505" y="399" as="sourcePoint" />
            <mxPoint x="766" y="402" as="targetPoint" />
          </mxGeometry>
        </mxCell>
        <mxCell id="Of2HctXFItvGuZZWUc3y-13" value="" style="shape=flexArrow;endArrow=classic;html=1;rounded=1;fontSize=14;labelBackgroundColor=none;fontColor=default;" parent="1" edge="1">
          <mxGeometry width="50" height="50" relative="1" as="geometry">
            <mxPoint x="448" y="278" as="sourcePoint" />
            <mxPoint x="862" y="278.5" as="targetPoint" />
          </mxGeometry>
        </mxCell>
        <mxCell id="Of2HctXFItvGuZZWUc3y-14" value="&lt;pre&gt;&lt;span style=&quot;font-size: 14px;&quot;&gt;&lt;b&gt;256&lt;/b&gt;&lt;/span&gt;&lt;/pre&gt;" style="text;html=1;resizable=0;autosize=1;align=center;verticalAlign=middle;points=[];fillColor=none;strokeColor=none;rounded=1;labelBackgroundColor=none;fontColor=#143642;" parent="1" vertex="1">
          <mxGeometry x="893" y="404" width="50" height="50" as="geometry" />
        </mxCell>
        <mxCell id="Of2HctXFItvGuZZWUc3y-15" value="&lt;pre&gt;&lt;span style=&quot;font-size: 14px;&quot;&gt;&lt;b&gt;128&lt;/b&gt;&lt;/span&gt;&lt;/pre&gt;" style="text;html=1;resizable=0;autosize=1;align=center;verticalAlign=middle;points=[];fillColor=none;strokeColor=none;rounded=1;labelBackgroundColor=none;fontColor=#143642;" parent="1" vertex="1">
          <mxGeometry x="960" y="308" width="50" height="50" as="geometry" />
        </mxCell>
        <mxCell id="Of2HctXFItvGuZZWUc3y-16" value="&lt;h3&gt;&lt;font face=&quot;Times New Roman&quot;&gt;Conv. 3x3x3 , ReLU, Batchnorm, Dropout&lt;/font&gt;&lt;/h3&gt;" style="text;html=1;resizable=0;autosize=1;align=center;verticalAlign=middle;points=[];fillColor=none;strokeColor=none;rounded=1;labelBackgroundColor=none;fontColor=#143642;" parent="1" vertex="1">
          <mxGeometry x="1001.5" y="378" width="271" height="58" as="geometry" />
        </mxCell>
        <mxCell id="Of2HctXFItvGuZZWUc3y-17" value="&lt;h3&gt;&lt;font face=&quot;Times New Roman&quot;&gt;Max- pooling 2x 2x 2&lt;/font&gt;&lt;/h3&gt;" style="text;html=1;resizable=0;autosize=1;align=center;verticalAlign=middle;points=[];fillColor=none;strokeColor=none;rounded=1;labelBackgroundColor=none;fontColor=#143642;" parent="1" vertex="1">
          <mxGeometry x="1003.5" y="403" width="150" height="60" as="geometry" />
        </mxCell>
        <mxCell id="Of2HctXFItvGuZZWUc3y-18" value="" style="shape=flexArrow;endArrow=classic;html=1;rounded=1;fontSize=14;labelBackgroundColor=none;fontColor=default;endWidth=13;endSize=8.04;" parent="1" edge="1">
          <mxGeometry width="50" height="50" relative="1" as="geometry">
            <mxPoint x="965.5" y="466" as="sourcePoint" />
            <mxPoint x="1007.5" y="465.5" as="targetPoint" />
          </mxGeometry>
        </mxCell>
        <mxCell id="Of2HctXFItvGuZZWUc3y-19" value="&lt;h3&gt;&lt;font face=&quot;Times New Roman&quot;&gt;Copy and concatenate&lt;/font&gt;&lt;/h3&gt;" style="text;html=1;resizable=0;autosize=1;align=center;verticalAlign=middle;points=[];fillColor=none;strokeColor=none;rounded=1;labelBackgroundColor=none;fontColor=#143642;" parent="1" vertex="1">
          <mxGeometry x="999.5" y="436" width="160" height="60" as="geometry" />
        </mxCell>
        <mxCell id="Of2HctXFItvGuZZWUc3y-20" value="" style="shape=flexArrow;endArrow=classic;html=1;rounded=1;strokeColor=#3700CC;endWidth=8;endSize=6.6;labelBackgroundColor=none;fontColor=default;fillColor=#6a00ff;" parent="1" edge="1">
          <mxGeometry width="50" height="50" relative="1" as="geometry">
            <mxPoint x="986.5" y="419" as="sourcePoint" />
            <mxPoint x="986.5" y="452" as="targetPoint" />
          </mxGeometry>
        </mxCell>
        <mxCell id="Of2HctXFItvGuZZWUc3y-21" value="&lt;h3&gt;&lt;font face=&quot;Times New Roman&quot;&gt;Upsampling 2x2x2&lt;/font&gt;&lt;/h3&gt;" style="text;html=1;resizable=0;autosize=1;align=center;verticalAlign=middle;points=[];fillColor=none;strokeColor=none;rounded=1;labelBackgroundColor=none;fontColor=#143642;" parent="1" vertex="1">
          <mxGeometry x="1003.5" y="473" width="130" height="58" as="geometry" />
        </mxCell>
        <mxCell id="Of2HctXFItvGuZZWUc3y-22" value="&lt;pre&gt;&lt;span style=&quot;font-size: 14px;&quot;&gt;&lt;b&gt;64&lt;/b&gt;&lt;/span&gt;&lt;/pre&gt;" style="text;html=1;resizable=0;autosize=1;align=center;verticalAlign=middle;points=[];fillColor=none;strokeColor=none;rounded=1;labelBackgroundColor=none;fontColor=#143642;" parent="1" vertex="1">
          <mxGeometry x="351" y="34" width="40" height="50" as="geometry" />
        </mxCell>
        <mxCell id="Of2HctXFItvGuZZWUc3y-23" value="" style="shape=cube;whiteSpace=wrap;html=1;boundedLbl=1;backgroundOutline=1;darkOpacity=0.05;darkOpacity2=0.1;fillColor=#FAE5C7;strokeColor=#0F8B8D;flipH=1;size=25;fontColor=#143642;rounded=1;labelBackgroundColor=none;" parent="1" vertex="1">
          <mxGeometry x="281" y="71" width="28" height="136" as="geometry" />
        </mxCell>
        <mxCell id="Of2HctXFItvGuZZWUc3y-24" value="&lt;pre&gt;&lt;span style=&quot;font-size: 14px;&quot;&gt;&lt;b&gt;4&lt;/b&gt;&lt;/span&gt;&lt;/pre&gt;" style="text;html=1;resizable=0;autosize=1;align=center;verticalAlign=middle;points=[];fillColor=none;strokeColor=none;rounded=1;labelBackgroundColor=none;fontColor=#143642;" parent="1" vertex="1">
          <mxGeometry x="295" y="34" width="30" height="50" as="geometry" />
        </mxCell>
        <mxCell id="Of2HctXFItvGuZZWUc3y-25" value="&lt;pre&gt;&lt;span style=&quot;font-size: 14px;&quot;&gt;&lt;b&gt;512&lt;/b&gt;&lt;/span&gt;&lt;/pre&gt;" style="text;html=1;resizable=0;autosize=1;align=center;verticalAlign=middle;points=[];fillColor=none;strokeColor=none;rounded=1;labelBackgroundColor=none;fontColor=#143642;arcSize=0;" parent="1" vertex="1">
          <mxGeometry x="503" y="578" width="50" height="50" as="geometry" />
        </mxCell>
        <mxCell id="Of2HctXFItvGuZZWUc3y-26" value="&lt;pre&gt;&lt;span style=&quot;font-size: 14px;&quot;&gt;&lt;b&gt;1024&lt;/b&gt;&lt;/span&gt;&lt;/pre&gt;" style="text;html=1;resizable=0;autosize=1;align=center;verticalAlign=middle;points=[];fillColor=none;strokeColor=none;rounded=1;labelBackgroundColor=none;fontColor=#143642;arcSize=0;" parent="1" vertex="1">
          <mxGeometry x="662" y="580" width="50" height="50" as="geometry" />
        </mxCell>
        <mxCell id="Of2HctXFItvGuZZWUc3y-27" value="&lt;pre&gt;&lt;span style=&quot;font-size: 14px;&quot;&gt;&lt;b&gt;64&lt;/b&gt;&lt;/span&gt;&lt;/pre&gt;" style="text;html=1;resizable=0;autosize=1;align=center;verticalAlign=middle;points=[];fillColor=none;strokeColor=none;rounded=1;labelBackgroundColor=none;fontColor=#143642;" parent="1" vertex="1">
          <mxGeometry x="1092" y="29" width="40" height="50" as="geometry" />
        </mxCell>
        <mxCell id="Of2HctXFItvGuZZWUc3y-28" value="&lt;pre&gt;&lt;span style=&quot;font-size: 14px;&quot;&gt;&lt;b&gt;1&lt;/b&gt;&lt;/span&gt;&lt;/pre&gt;" style="text;html=1;resizable=0;autosize=1;align=center;verticalAlign=middle;points=[];fillColor=none;strokeColor=none;rounded=1;labelBackgroundColor=none;fontColor=#143642;" parent="1" vertex="1">
          <mxGeometry x="1195" y="25" width="30" height="50" as="geometry" />
        </mxCell>
        <mxCell id="Of2HctXFItvGuZZWUc3y-29" value="&lt;pre&gt;&lt;span style=&quot;font-size: 14px;&quot;&gt;&lt;b&gt;512&lt;/b&gt;&lt;/span&gt;&lt;/pre&gt;" style="text;html=1;resizable=0;autosize=1;align=center;verticalAlign=middle;points=[];fillColor=none;strokeColor=none;rounded=1;labelBackgroundColor=none;fontColor=#143642;" parent="1" vertex="1">
          <mxGeometry x="800" y="498" width="42" height="54" as="geometry" />
        </mxCell>
        <mxCell id="Of2HctXFItvGuZZWUc3y-30" value="&lt;pre&gt;&lt;b style=&quot;&quot;&gt;&lt;sup style=&quot;&quot;&gt;&lt;span style=&quot;font-size: 14px;&quot;&gt;4&lt;sup&gt;3&lt;/sup&gt;&lt;/span&gt;&lt;/sup&gt;&lt;/b&gt;&lt;/pre&gt;" style="text;html=1;resizable=0;autosize=1;align=center;verticalAlign=middle;points=[];fillColor=none;strokeColor=none;rounded=1;labelBackgroundColor=none;fontColor=#143642;" parent="1" vertex="1">
          <mxGeometry x="741" y="544" width="40" height="60" as="geometry" />
        </mxCell>
        <mxCell id="Of2HctXFItvGuZZWUc3y-31" value="&lt;pre&gt;&lt;b style=&quot;&quot;&gt;&lt;sup style=&quot;&quot;&gt;&lt;span style=&quot;font-size: 14px;&quot;&gt;8&lt;sup&gt;3&lt;/sup&gt;&lt;/span&gt;&lt;/sup&gt;&lt;/b&gt;&lt;/pre&gt;" style="text;html=1;resizable=0;autosize=1;align=center;verticalAlign=middle;points=[];fillColor=none;strokeColor=none;rounded=1;labelBackgroundColor=none;fontColor=#143642;" parent="1" vertex="1">
          <mxGeometry x="868" y="450" width="40" height="60" as="geometry" />
        </mxCell>
        <mxCell id="Of2HctXFItvGuZZWUc3y-32" value="&lt;pre&gt;&lt;b style=&quot;&quot;&gt;&lt;sup style=&quot;&quot;&gt;&lt;span style=&quot;font-size: 14px;&quot;&gt;16&lt;sup&gt;3&lt;/sup&gt;&lt;/span&gt;&lt;/sup&gt;&lt;/b&gt;&lt;/pre&gt;" style="text;html=1;resizable=0;autosize=1;align=center;verticalAlign=middle;points=[];fillColor=none;strokeColor=none;rounded=1;labelBackgroundColor=none;fontColor=#143642;" parent="1" vertex="1">
          <mxGeometry x="937" y="351" width="50" height="60" as="geometry" />
        </mxCell>
        <mxCell id="Of2HctXFItvGuZZWUc3y-33" value="&lt;pre&gt;&lt;b style=&quot;&quot;&gt;&lt;sup style=&quot;&quot;&gt;&lt;span style=&quot;font-size: 14px;&quot;&gt;32&lt;sup&gt;3&lt;/sup&gt;&lt;/span&gt;&lt;/sup&gt;&lt;/b&gt;&lt;/pre&gt;" style="text;html=1;resizable=0;autosize=1;align=center;verticalAlign=middle;points=[];fillColor=none;strokeColor=none;rounded=1;labelBackgroundColor=none;fontColor=#143642;arcSize=0;" parent="1" vertex="1">
          <mxGeometry x="1016" y="233" width="50" height="60" as="geometry" />
        </mxCell>
        <mxCell id="Of2HctXFItvGuZZWUc3y-34" value="" style="shape=cube;whiteSpace=wrap;html=1;boundedLbl=1;backgroundOutline=1;darkOpacity=0.05;darkOpacity2=0.1;fillColor=#FAE5C7;strokeColor=#0F8B8D;flipH=1;size=43;fontColor=#143642;rounded=1;labelBackgroundColor=none;" parent="1" vertex="1">
          <mxGeometry x="1166" y="58.5" width="45" height="135" as="geometry" />
        </mxCell>
        <mxCell id="Of2HctXFItvGuZZWUc3y-35" value="&lt;pre&gt;&lt;span style=&quot;font-size: 14px;&quot;&gt;&lt;b&gt;64&lt;sup&gt;3&lt;/sup&gt;&lt;/b&gt;&lt;/span&gt;&lt;/pre&gt;" style="text;html=1;resizable=0;autosize=1;align=center;verticalAlign=middle;points=[];fillColor=none;strokeColor=none;rounded=1;labelBackgroundColor=none;fontColor=#143642;" parent="1" vertex="1">
          <mxGeometry x="1200" y="84.00000000000001" width="50" height="60" as="geometry" />
        </mxCell>
        <mxCell id="Of2HctXFItvGuZZWUc3y-36" value="" style="shape=cube;whiteSpace=wrap;html=1;boundedLbl=1;backgroundOutline=1;darkOpacity=0.05;darkOpacity2=0.1;fillColor=#FAE5C7;strokeColor=#0F8B8D;flipH=1;size=28;fontColor=#143642;rounded=1;labelBackgroundColor=none;dashed=1;" parent="1" vertex="1">
          <mxGeometry x="394" y="238" width="38" height="96" as="geometry" />
        </mxCell>
        <mxCell id="Of2HctXFItvGuZZWUc3y-37" value="" style="shape=cube;whiteSpace=wrap;html=1;boundedLbl=1;backgroundOutline=1;darkOpacity=0.05;darkOpacity2=0.1;fillColor=#FAE5C7;strokeColor=#0F8B8D;flipH=1;size=16;fontColor=#143642;rounded=1;labelBackgroundColor=none;dashed=1;" parent="1" vertex="1">
          <mxGeometry x="455" y="370" width="40" height="61" as="geometry" />
        </mxCell>
        <mxCell id="Of2HctXFItvGuZZWUc3y-38" value="" style="shape=cube;whiteSpace=wrap;html=1;boundedLbl=1;backgroundOutline=1;darkOpacity=0.05;darkOpacity2=0.1;fillColor=#FAE5C7;strokeColor=#0F8B8D;flipH=1;size=16;fontColor=#143642;rounded=1;labelBackgroundColor=none;dashed=1;" parent="1" vertex="1">
          <mxGeometry x="520" y="470" width="51" height="47" as="geometry" />
        </mxCell>
        <mxCell id="Of2HctXFItvGuZZWUc3y-39" value="" style="shape=cube;whiteSpace=wrap;html=1;boundedLbl=1;backgroundOutline=1;darkOpacity=0.05;darkOpacity2=0.1;fillColor=#FAE5C7;strokeColor=#0F8B8D;flipH=1;size=16;fontColor=#143642;rounded=1;labelBackgroundColor=none;" parent="1" vertex="1">
          <mxGeometry x="641" y="560" width="103" height="32" as="geometry" />
        </mxCell>
        <mxCell id="Of2HctXFItvGuZZWUc3y-40" value="" style="shape=cube;whiteSpace=wrap;html=1;boundedLbl=1;backgroundOutline=1;darkOpacity=0.05;darkOpacity2=0.1;fillColor=#FAE5C7;strokeColor=#0F8B8D;flipH=1;size=16;fontColor=#143642;rounded=1;labelBackgroundColor=none;" parent="1" vertex="1">
          <mxGeometry x="789.5" y="466" width="83" height="48" as="geometry" />
        </mxCell>
        <mxCell id="Of2HctXFItvGuZZWUc3y-41" value="" style="shape=cube;whiteSpace=wrap;html=1;boundedLbl=1;backgroundOutline=1;darkOpacity=0.05;darkOpacity2=0.1;fillColor=#FAE5C7;strokeColor=#0F8B8D;flipH=1;size=15;fontColor=#143642;rounded=1;labelBackgroundColor=none;" parent="1" vertex="1">
          <mxGeometry x="905.5" y="362" width="41" height="56" as="geometry" />
        </mxCell>
        <mxCell id="Of2HctXFItvGuZZWUc3y-42" value="" style="group" parent="1" vertex="1" connectable="0">
          <mxGeometry x="877" y="230" width="62" height="92" as="geometry" />
        </mxCell>
        <mxCell id="Of2HctXFItvGuZZWUc3y-43" value="" style="shape=cube;whiteSpace=wrap;html=1;boundedLbl=1;backgroundOutline=1;darkOpacity=0.05;darkOpacity2=0.1;flipH=1;size=32;rounded=1;labelBackgroundColor=none;" parent="Of2HctXFItvGuZZWUc3y-42" vertex="1">
          <mxGeometry width="47" height="92" as="geometry" />
        </mxCell>
        <mxCell id="Of2HctXFItvGuZZWUc3y-44" value="" style="shape=cube;whiteSpace=wrap;html=1;boundedLbl=1;backgroundOutline=1;darkOpacity=0.05;darkOpacity2=0.1;fillColor=#FAE5C7;strokeColor=#0F8B8D;flipH=1;size=32;fontColor=#143642;rounded=1;labelBackgroundColor=none;" parent="Of2HctXFItvGuZZWUc3y-42" vertex="1">
          <mxGeometry x="15" width="47" height="92" as="geometry" />
        </mxCell>
        <mxCell id="Of2HctXFItvGuZZWUc3y-45" value="" style="shape=cube;whiteSpace=wrap;html=1;boundedLbl=1;backgroundOutline=1;darkOpacity=0.05;darkOpacity2=0.1;fillColor=#FAE5C7;strokeColor=#0F8B8D;flipH=1;size=32;fontColor=#143642;rounded=1;labelBackgroundColor=none;" parent="1" vertex="1">
          <mxGeometry x="977.5" y="229" width="47" height="90" as="geometry" />
        </mxCell>
        <mxCell id="Of2HctXFItvGuZZWUc3y-46" value="" style="group" parent="1" vertex="1" connectable="0">
          <mxGeometry x="982" y="66" width="50" height="151.99999999999994" as="geometry" />
        </mxCell>
        <mxCell id="Of2HctXFItvGuZZWUc3y-47" value="" style="shape=cube;whiteSpace=wrap;html=1;boundedLbl=1;backgroundOutline=1;darkOpacity=0.05;darkOpacity2=0.1;flipH=1;size=40;rounded=1;labelBackgroundColor=none;" parent="Of2HctXFItvGuZZWUc3y-46" vertex="1">
          <mxGeometry width="45" height="134" as="geometry" />
        </mxCell>
        <mxCell id="Of2HctXFItvGuZZWUc3y-48" value="" style="shape=cube;whiteSpace=wrap;html=1;boundedLbl=1;backgroundOutline=1;darkOpacity=0.05;darkOpacity2=0.1;fillColor=#FAE5C7;strokeColor=#0F8B8D;flipH=1;size=40;rounded=1;labelBackgroundColor=none;fontColor=#143642;" parent="Of2HctXFItvGuZZWUc3y-46" vertex="1">
          <mxGeometry x="5" width="45" height="134" as="geometry" />
        </mxCell>
        <mxCell id="Of2HctXFItvGuZZWUc3y-49" value="" style="html=1;shadow=0;dashed=0;align=center;verticalAlign=middle;shape=mxgraph.arrows2.sharpArrow2;dy1=0.48;dx1=14.78;dx2=14.78;dy3=0.08;dx3=14.78;notch=0;fillColor=#0050ef;strokeColor=#001DBC;rotation=-90;fontColor=#ffffff;" parent="Of2HctXFItvGuZZWUc3y-46" vertex="1">
          <mxGeometry x="18" y="132.99999999999994" width="30" height="14" as="geometry" />
        </mxCell>
        <mxCell id="Of2HctXFItvGuZZWUc3y-50" value="" style="shape=cube;whiteSpace=wrap;html=1;boundedLbl=1;backgroundOutline=1;darkOpacity=0.05;darkOpacity2=0.1;fillColor=#FAE5C7;strokeColor=#0F8B8D;flipH=1;size=40;rounded=1;labelBackgroundColor=none;fontColor=#143642;" parent="1" vertex="1">
          <mxGeometry x="1072" y="66" width="45" height="134" as="geometry" />
        </mxCell>
        <mxCell id="Of2HctXFItvGuZZWUc3y-51" value="&lt;pre&gt;&lt;span style=&quot;font-size: 14px;&quot;&gt;&lt;b&gt;128&lt;/b&gt;&lt;/span&gt;&lt;/pre&gt;" style="text;html=1;resizable=0;autosize=1;align=center;verticalAlign=middle;points=[];fillColor=none;strokeColor=none;rounded=1;labelBackgroundColor=none;fontColor=#143642;" parent="1" vertex="1">
          <mxGeometry x="998" y="32" width="50" height="50" as="geometry" />
        </mxCell>
        <mxCell id="Of2HctXFItvGuZZWUc3y-52" value="" style="shape=flexArrow;endArrow=classic;html=1;rounded=1;strokeColor=#d6b656;endWidth=8;endSize=6.6;labelBackgroundColor=none;fontColor=default;fillColor=#0cdf4b;" parent="1" edge="1">
          <mxGeometry width="50" height="50" relative="1" as="geometry">
            <mxPoint x="1122" y="124" as="sourcePoint" />
            <mxPoint x="1161" y="124" as="targetPoint" />
          </mxGeometry>
        </mxCell>
        <mxCell id="Of2HctXFItvGuZZWUc3y-53" value="" style="shape=image;imageAspect=0;aspect=fixed;verticalLabelPosition=bottom;verticalAlign=top;image=data:image/png,iVBORw0KGgoAAAANSUhEUgAAAJUAAACYCAYAAADtPKuRAAAAAXNSR0IArs4c6QAAAARnQU1BAACxjwv8YQUAAAAJcEhZcwAACxMAAAsTAQCanBgAAFZhSURBVHhe7d0FvOVXdTb+mYmHJMRxLVJ3f6uUekvdnbpT2tLSFncPAUIIHiRAsOIetHgolpCEuNtExu3ud33P3If/Zs/v3LkjCfD+88nn+Zw7V87Ze61nP+vZa+9zsuK+D/xgu+8DP7BwC27B3kKR6gMLr37159vewxmFM2/BLkPcpuL5tYFTTvlse+Mbz5oJ1IxUK1Y8rO09PKLw6FuwyxC3qXh+reDf2tFHP6En1X/UN3s8eAn8Z+EhS+ChhakXvQVLQ9ym4hnsLC9jDm9uPLDd6laPXkqpHr4EHlmwsh6z+HgLblokzpRsKh/BmMObGzsoVX5gtRjgowrj5G7BVy/kq0/wVwI7kIr69Jga+E0NK/Kx/w/gK6XgYw6nQDBuKnuyA6mmBrm3IMg7g9+TkMf/PwDz2JV53xzIa2UzcFOUzZuNVCYzFfhbsGLF4wric3NbDa+X16ReCLE31Guvk0pw+hIQCNxUQG/BdojPVNxuDhXLayAWBdvTlsZeJ9Ut5Nm7QKypON9UCMH2pBzuEqlCGI/zMAZlT5HnfFLhyV8jMNZ+7HuKPr4j/PymIF5K44jlGPy5pOrLWL4eJ7sneOIuQrKeWnjKVzmM0Vin5jCFJxSm4rMrQK4+T33eeqLsCfJcfYmcp2ZzSbW3SdRDMKcS8v9HRNVuKuxNYo2Y5712IFUvq7uD/O1UufK9fH8qwLuDpxWOu5nhNb323phH4pIYjaBke5qPHsRiiiC7g3llcQdSTQ0sMMFRvkfkd8bgKQuSEfj33oAkP30JHF94xm7A3009XzA1lt1F4jHGDBBOTJcT+6mc9QhBqdc8TJFnZ/B3aahSrwcXqZ60XFJZOVMTXw4Ebio5NzWeVThhN7AzUu1tzCPVrmA5xNoZ9oaSPaRI9dQpUhkgEqVkwdRERiDPWC6CqWBOgVIgAzxzD7G7pJp6ruUiY98VYk7FKxDTqViPGPMFvieXFKonzzz0pRJCMiVuJM887ECqSK3BLLV6It0jBGEqaIFA7wwSM5Xo5eLZexFTz79cpIzuDFNxGjEV66m8jPB7yJW8BlOEmofsJJdbHncg1dTAprAz8szD7irHruA5hZP2AjzP1PPvTVhAU3HaGZarXvOAWMtVrx7LIdZOSWXwU5hHKquzLwUj5pGKKkginLiHmCLI7mBvjCVzmqd64jEVp4CSTcU6ZXEedqZkY5mMH9sZ0VISe+yUVL20ehwnE4wSHgjEVABTTqbg5wI/ldgRz/0qxNQ4RyDYUnHoY9VDPOfFe8xJD8RKDvucTsHP2J1dLY9Ru1G9diDV1ACnYLImHVMajEEJBG4q2MsF0kngCwovXHz8SiPjMK7lLoopLKVkMBXjkG25oGwIhDwjqYL8zCPS7Ep57In1X8shlVVhEunhZHc2Th4EZywBvrezoEvM83aC5xck8qsNxjU13h47U7TEaSp2U3EW/z4fIE9Led2+PI6EGpGSuDtl8WFFquN2RqqokgkG4ySDkEcQe4xB7OHnVvyLdoKphPaY+pu9ianXDKZ+vwfiTc09GOMVINZUnGHMB2JN5W8KS5XDIL+z3HIYPKJIdXxPql5mexh0CONxKfidvkwsBQl5ceHkvYCXFk4pvHwvw3O+rDD1mrsC85yKwVJArKkYB2Id4k3lrUevZB6nMEU25XAK8VQ7JVW/CnoZhqyqwISnpB76VSyYU7CCPb6kg+TtLiT/lYt4RQf/ftUyMf5t/t7j1GsuB/38+nmP8P0+bjBVWsc8INeYr6hXj9HCTClbiJUyuZSi9SWyV7O5pJoi0YiRPPNglfaBnQdKMyZ0bwApXr1MnFqYeo7dBaJPzXUK4jQVvxEW81Q+eshfT6gpUK+RVFNYTqmM95ok1SitPawakuwxX2eiVlkv9WD1eewDl3ISjGVmTAhCSPTugvp4nEegqe/tKbxmP49xjj16JRvj16Mn1ZiDIKVSrvo8BvOINZbIkVRjeVT6RlL1ZfFRRaqn96TqS1q+zqOB99Lt68C/BYbajPLve0GIklKzFPyORL92L+A1A3zvdYuPUz/bExjz1HyCfu7i0cdnKnbi2sc68U4OQjYkk6s+h70opCz26Anm30okYimNUwRLSZynXr7/mCLVM0ZS9atiRMgzD1Zjv0qnIJi9OszD6wv/fRPhTYU3D9/bW0DWqfmMEIep+PRArKk4Bz2pRkS9emL1mKdewc56YfOI9dgi1Qk9qQxkHJyB91KcCVlFkfRe3hMQQRvLAvhaUK1qxJGEKfSJCgk87g14rrcM39tdeK43FjLWeXPyfTDvPh59XKAn2xhbjz2p5MNCT2583ecuZRKmSBVMeTDlELFi8EdSjWVxLqlCoh6jOvVSncmHRD0EKqtyLDHQK9EbdgKJe+tXMZBratw9MlcEm4oHiJW4jfHs45yy2KMnWZ+7nmCxMj16gi1VFuO3gpFg/U5xB1IZSE+gHgY8EgmsIBOPAo3wfaszQc2Kzb9BUihHD0TqIXnvmMDbb0ZMvfbUWMe5ULJ+zlMxQLbEa4zfGPMeo3r1+epJNWJKvUKwnlQj5pVFijVJqqgS8kR283XI00t21AhpeqmHPmhWal8uxqAjzNsGSNo7B7x7Ee9axHsKp92M6F87YxnHaNzjXMxvnHPiEaSEil0fT19TMeQaY+97ctLnqc9bSmKQfxMPVqcvj0C9Ug579Oq1VFmkWI8vUp3YkypyGgL1QJ5RrgF5RqkH5El5CARTkMdEjJA0SXzvHLxv8fEDhQ/ejHh/oX/9KRi38U/Nq0fINgLBxlhG6abiH2KNoGJTJRJSGscSGfWaKo+9WsG8svikItVJPamQCaJAkd8gZSzyHYREPQQoJaKHgFKYeZAYyZuHDxU+/FWAkGwekGtqfvn+VGxA3MZYWowhVo+QqoecyV9yiVweEYtSpTTm65FY2ayNLYlgNPWIlUekeuJIql5WQyoDR6ZIMlKZYCQ7X49yL2h9uQgE1ErvgUgeKQ/STOF/CpL50cLHloCff7zwiT1Anmd87h5+bjxTYwWkM59xrsEYm/w7xOrjiVTI1cfbY8pjj5CKWuUx3ktJTJn0iFR9eewJhlzpd42qNVUWQUl8SpHqeT2pIqkhFBh4ZDj+yARNPDDx0QMJUl8WAgHtS0ogER8pSNYUJPKTywBSfKrwmT3A6QXPM/X8I0KwKZjP1FxDtqn4IFYfS1+LMWL1MY96JScQ9YoYAIGIqe/LI/VKOUx5RKyQCpAMUhZHZNfYE+u4ItULe1KNpc2KGGUYgXq5FoRe3qNEfSkQSEoTWOF57Fc/hZEopBjxv4XPLgNI8fnCF/YAnyt4nqnnH2FcU+ON4o1Atsw/QLI+Xsg1xhTB+rhDFCyQL3kjBMkh9erLI4RUAeVCqpTFvkwiFdUKRoIhVjCXVGG+AWZ1RIZNxOQi2SGUIETWIQY6pWAkD6REUQVJ8AhT5JHkMwpnzsFZA84ufHEP4O/750O0qdcFBDa+ccyfLvTzyjzNGbH6WCBWYuVrsYuS5VGcE/MoWPIC8oRYKZEgj2OJTHkMQrCUxpTFoC+LIdhSfgupXjBFqhAqymQCPUyQ4QxMGpF6CA75B4ETzB7IQw0Ev4eESFSATBJ7TkGyR/j+eYXzFx/3NjzvuYWlXh/p+jFn3Mg2zi/E6pFSGViEfSzFt481azHmJCUxQDCkSk4BwXprA0iV8ggINu4WKVZfFmEesY4fSYVMYIC9zBq0iSBTHk2OVFtJHpGol3XBoUYh1FgmEKpf4b628vsyFDJNqQlI+gWFC5eBiwuXdrik4PvL/Xu/5/WmxgEhVz9288n8MscQq4f4RLX68pjHxDmxDrGAcslPn6+ollzmMZ4LsXrfrBxSrClipQyGWFEs6Eti+ltI9Ywi1Yt7UkVGDTJSCwZvIr0km1xKnMlH0kOkeKOUtJAosJL7JFj1FCGYIsxFAxDjssLly8BVhas7+PfU782D1/F64xj68UXVAmRL+QzMOwQLxKcvj30cxTULFcRb3EM06hVyBSEWJKcphx5DLFASPcbAA5KFWAFipRQGIVgap/CsItXJPakipQYZuTXwXooBiSLVJh4ZF5TIvMCNJUGAUzYEPCVGQigJSJRHibxiEb6+snDNAOTweH3hhpsQnr9/vf71M76MFfkyl8DiyEIx78QgQLTEqLcEiBbvCb7uSyVyJScWe3KGWMllgFgpjVGtlEVf9yURevWKke/Rk6rHs0dSRVL70mbgvRxHkUwyqysQiKhQSpmgxY94FFwrWrBThjz2iUGgawurF+Hr6wo3DlhTWF/YMAebCpuXiY2FqecI1hW8Xv/6CJfxZazIZvyZB0TlzNOiMX9E85jSKT7iJW7xYyFYH+MoGCQvgFipIFEviGWhXlTLY0riWBaDlMV+p4hYfX9LOQx6gp1YpHpZTypkAgNEphAKkcCEECmlzaSDKJPA9D4oAaRGeRRcQVeCAqs+iUEgCVy7+AiSKrlJvkdk2LoEFgptmfD7WxYf5wFJQ7KMox+jr5Et8wgQLfO0eMwfomLQ+zUEQ64QLJ5MnBN/GEtkchbfFUS9+l1jlCtlMaBcvefqy2IINhr5vr/1nCLVKT2pkMmA1G3yGkJFek3Eyhk9UkqbgMRPCFR8h1UqmFEjBOpLV8qXpAAChTQSCRK+rYAowRQ5bkp4TWPIODz2Y4ziZR6IlvlZKCmZfdkE5Eqsel9mcYprTL9YJ/4QFZMfeZIveZM/eYx6ZbdOsVIOESu7xJRFBEtJTPuBWvUES0mcMvKTpIqUGlhIlBIXIkWRTNKKMmGTF4wQKKWN9FudgpkSNkWenjhBktcncUjyysKqDv6d7+27B8hz9c87vvaX0BMtyBx6wvVkA0SjYuKCZOKEaFEwcYz5D9FCLurVl0j5kSfkinKlNCJYxCKqhVxRrr4shljKYoilHPYE47U8UiylUEkMwSjW84pUr+xJZTCQMmfAASLFKyGTSWbCJh81CpEEStCQqC9hgpugKylTiZpACNNjn8J+HfZffDygcNAiDl4G+t/16O/75+2JNoWp8e4A5EsZNXdxiE8DcQrBRi8GUTHVwCKGqFdyRLlSGiH5hOwao14pjQg2lkWI34LsFqNYkMbpaORfUKQ6tScVMoVQBtiXt3ilSLMJmqiVFRkXCKpEkSL7AsZM92okwBPKM0LCEAckFmkk3CMgwK0KyHBI4bAJHF44cgn4+dTfHVroiQcHFvLaGYdxLZtYEGXrVUx8xKkvlWOJFGfx5r2Sg55YoIqkNEJsC6QsIlWIRbXGshjFSmlEKkYeRmJRrJRDyoVUzy9SvaonVWQUoQzQQKlTCJXtf2+4o0w9oZhVEi9YUSYrNOVhKtiFfvVThqgOSCgCBZIu+bcuHFFAkKMLxww4tnCbJeDn4994Hs/neQOvE7L14wjRkAv5R0WbmucMiYW4xItRLnETv5THvjSmJMbcI9aUqadaSCWfFGskVlQrisVzzTPyUSzlcDmKRam+jFSR0JCpV6gQKnIcQsUvQZSpL3NRpAll6oMfEoEkhURJZMgDRxVCGLhd4faLuFPhznsAf3+HQv+cvs5red2onLFkfCGbcfdls58jjDH4sviIlx2lxQgIlrZFyqK4JwchlvwAgoVY8iifMfIhF2IphzxXiEWtUgqRKl4LqZCLYiFVVKsnVYgVxXrRSKrIqIHFgCNTyly61yZnkr3xFgwrLr7BKpwgEiBQyllKmPIV9VGSEEcSb7sIib1jQeLvUrhr4e6Fr1vEPQv3XsQ3FL5pN/CNha8v5HnA896j4DXuVvC6YBzIl/EBwhl3Sqo5QV86zdv8p+Iyi1cUDMRTXHvfFXJRL7mIek21JFISQzJVKKqVPldMfIw81YpyIVaMPGIBI59yOPa0kOrkItVre1IZSK9MVoKdCDKFSJQpBpwi9WSao0aCmNIgqFGhKFCUR9lBpCiO5ElkyHOvQgiDAN9S+LbCtxe+o/Bdi/iewvct4nsX8f0T6H+er7+7kOcBz/2tBa/zzQWvawzIZzzGZXzGGaJF2VKOqZp5jmqWmMBcFRPXeC+xFneLOTvHkEueUhrlTg5TFkMwJRGxgHIhVnaI8VuIRblCrPislMQQK6qVY54o1kuLVK/rSRUyGZxB9q0BhDKR+KWQKYo0h1ACl3IWMkWJBB0kAYmiRBIUxQmJJDbEQRrJR4QfKPxQ4YcX8WOFH++Qf/9E4Sc73LfQ/7z//R8p5Dl/sICAXsfreV3jAIRDbOPrSRaCmY95UbHMNUo2RbAxfl9CFEy8Y+qRC1gOC71Xrr4sUq2xLEKMvFKoJAKCUawYeIjPgvgsmOppwctGUoVQBpYyF0KZgMmEUL1fGhBlEqxRlfgQq5dJRiYrmyIpMZIiOT2JvrOARBIrwRIt6YAAyPJThZ8p/Gzh5zr8QuEXO9xvQL7v9/q/8zyez/OGgPcpeL0QLUAyYwRqhmQpo+ZjXsp1FAzMvVcv5TFtDHGbVC2IcqUsqhQWOeVCLLnK2aM8QtoQ7EyIlbIYYlEsJTGth5TDNE5HxcrOMP2svhS+vEj1hp5U8U4Gl50cdfJohZDgGHArp5twypzyJkC8Ej8RVUIkK1ZwrWJESklDIgmRmChQCCSREiq5Ev3zhZDhlwu/Wvj1wm8VfmfAHxT+cBG+HtH/7HcL/d/+duE3C79R8Py/UkBEBAzpfroQsv1oIYRLGbUoLA5qy5spk2DuVCwKthTBJktjyJWSaKFntyhvaaICgk2VRJuwGHmlUEmMcvU7RORCLIoVclGssRRGsV5RpHpjT6qoEhKlzAFCmcQ4uUWkzFGlUZH4o5BIQEMiwVY+lDMqpNxIjBJEGShGTxwJ/r0CEvxx4U8Lf1H4y0X8deHvCv9Q+MdFPLDwz8vEAwr5O8/zt4vwvF7H6/1Jwev/fgHxEBnhjO+XCsaLcNTTPFJGLRILJv7M/BEtKqZEitNo9ik8gi1p7vuySLkAweQRudLr6g09cvHOIVZKYox8yiH0O8R4raVK4atGpYo6IVTaAkuY8ChTyhxCWXVWH4kXKEGjSFaqskCRrGKrmU/5PwUrnRJJCCWQIMmiFhTkjwohkSRLNvIgzb8W/qXwoMKDC/9VeGjhYYWHFx5ReNQSeGTB74G/e0jBc/xHwfN5XqT7p4LXRDhjQOQ/KyA4khmn8f5agaJRVPOJmlEx8zVvC0kckCs7TAsu7QzkYvQtTGqfLr9YjzmYIcqlglAvNiVVJmaeaqlEU8RaancYtYK+7TCvFJ5apHpzT6peoXojPjERhBo9E0LFK5F3hBKw+CQrlT9CpHgiAVdKrHIrXrmhAhSBMkjc3xQklJpIMCL9ewEBkCbEeUzh8YUnFp6yiKcWnr4EnlbI7z6p4O+fsPjo+UI6r4Vo/1ZAYoSmaqOSKaXIZR5RMASzaHpPlvKYXSVyIVavXFQrvbCQK55r0neFXFSLB5bLGHmkolZLKVZKYTrxlCq7wnThUwpDrJTCKNZrilRv7Um1i4SyenrfZIVlBxfzLWCCl10bQsUjWcXKHL8ST4RMEvRXhZQzRKIaEivBEi3hyDOS5pmFZxeeU3he4fnLgN87qeDvnrUIzxPSPbngtbwmAlM0amZMKZ1/X6CgFOz+BeRKiUQui8Z8s+tUFqNc4hNiiVnIhVhpTYRciBW/NZWbGbFUGHlUbagWYrE2yuDOSmHMe4gVjxViUaxxVxjFgteNpAqhJnZ28U0x4gylSVKn9JZS6vgmnoF/sCIFL6bbjkqJ45VS4hCJIkkIIlEBivCfBWXs0QXqgUDPKJxQOLGAEC8uvLRwSuGVhVcXXlv478IbCm8svHkRbxqQ7/m91xVes4hTC57L855ceGHBa3lNr9+TzdhSOimZcqlUhmB/XlC+ESzqpTxSZwQTEwvNgus9V5SrL4kWrpinmYpck14rJh65qBaxiImfappOKVaAXGk3pBTGW031sV5fpHpHT6oo1IR/QqZ0wKNOyGSyJq03ExNuW82YMqhWJGWySpEpqsSHKBchkkRICAWgBo8tSJoEItFzCwj08sKrCpKPDG8tvL3wnsIHCh8qfKTwsZoDfKJweuFTE/D9Txb83ocL/1N/B57ntMI7Cp4f+byW13xFwRheUkA26oZoxxWUT2qGZBZESiUVUyItHATjvywopZFSpzQqizYtFqKy2O8aqT9bgVh9I9UCX7IUIlavWH3DdClixcD3xztpN/QN0l6xKNUbilTv6km1RMmzKhDKRBBKvUcmK0mpC6HimwTIbs5qZFitTiZWQJFJkK1mpUPwrXS+iJfhb5QgRHpR4WUF6kF13lZ4VwGJEOjjhU8WPlM4s3BWjf+LpbTn11wurIBeVAvl4g1t1aXr2z6Xr237XLauHte1VfXo+7Ofw/m1sv3d2fX3X6jn+Wzh9ILn/2jhw4X3FhDYGCgcRYyiIZgSqmxaDJTVwrBAKJgyqZTzYMhlUVlc1Itqi5HFJ2bZMY5l0cJFrLQh5MECR6xJxdoTYqWPlc57doMUa6rzTq2Q6r9HUk0QyiqgUiTX6ugJlXJn0gglCFEnvkGpY1J7deKXQiaGW8B5JJ5FSUEmHkeiKJLEIRPV+GDhYwXJ/kwF7OwtbeWFm9qqize1fa/Y0Pa/dm074Lob2kE3rG4H33hNu9Xaq9qh665sh669ot16/eXt1hsu63B5O6R+Fhy85prZ3x14/fX1HGva/leva/teVmS8qMiGoAj3uXpNBEYyY0FsBIuKIZhyiVzU9fiCBYJcyjgPZs4MvrJo5xjlsuDEiqJrSdjIpBWRkmjhxmvZEMmDfMhNSuEOqhViKYc9sdLPyp0txNKF1yQdS2H6V5DzwtxwQKyQSgncQanGARVCKJJLek3EpKgTaTZZk0Yo0t2rU1oD+kvIpNRZrSlzyoSAKx2M9QsKVEmClJx3Ft5bQfnQQlv5yW1t5Re2tVXnbm2rLtw8U5oDVq9uh6wpwqy7vB25+eJ2m4Xz2x3a2e3O7cx21/b59nXts+2e7dPtXu1/273bp74MvneP9pnZ78Dd6vfvUn93x3ZWu307p92mnd+Oquc8rJ774Buuagded23b74o1RbKN28dQY1n52cLHCzW+2TgRn4LxdUqkcm2BUC/kosLU2IZDuVf27WwRjK/Ui7MA2QTkEksxZeaRq98lxmvJh8W+LJ/VKxaPxbynl4VY1MqRzpTHQqycFfamHbHireBNc0gVdTJI8opQJJf0ZmeHUKN3ssJ4hJDJCuyVib8Q0KiSYCtxEsAov6Xw7oKy9qnCmaWc521o+122pt2qknpEKcyxGy9sd9j0xXbXzWe0e239VPvmbR9r37btw+27Fj7Qvq+9p/1we1v78fbm9hPtje0n23+3n26vaz/bXtN+vp3afqG96kvwb9/3859qr6/ff0P93Zvaj7a3th9q75g9l+f03N+09WPt3ltPb3ff/Ll2p01nt9tvPK8ds+GidngR7pDrrmkHXHFDW3VBGeKzSs0+XeSipnyZRYFkSjcFs2h4MHNn8GPuqRffJVbIxdSLnx0jtaf6NjrizF7Ea6kS8oFYFjzVYk943x2INSoW866FlFKIWNQq7zPwOK8ULtW/enOR6rQJUtnlqdMpdwYcQlklUShtAjs7Uo1Q5NvuxopLqaNMKXNKAK+REifQShxV4lf4FqWtyLTq4s1tv2vXtIPXXt0O33Rpu93CF9vdS1m+oX2ifVv7n/a97b3tR4pAiIMcv9Be2X6lvbT9Tnt++4P2nPaH7dntj9uz2p+2Z7S/aMe1v2xPbX/Vwb//vD29/Vk7vt2/PbP9UTuh/X793e+057XfbC9qv1rP5Tk9t9f4sSLqD7Z3te9qH2jf2j7Svr59ssbz2VLGc9rRWy5qh66/oh14w3Vt3yvXtZXnF7ksCAvDnCyUeDC7VOSK94rv0ndTFrVSQi5x5EWpPvUXZ6qFWOKv/4dY/ZFP2g5EYS6xoljZFeq+Uy1q5ayQYuUKjfNCZ4Vjxz27wb7jTrHeWqR67wSp+pLHEFoJPaGsFBMjzVZQdncUKscpejWkHaGyoyP/fEY8kzLBLyEUQ8wcl1FeefHGdtD111ZJu6Tdrn1xVpa+vp1eCX1/+4FKLDWhLr/cXj4j0e+3k4pAJ8xI8o/tce2f26Pav7RHtge1h7cHt4fUf/8+gQe3/2j/9SU8qD2i/VN7TPv79vj2t+1JRbqnzUjpuX+7vaD9Rntx+8UiGYIhM4J9T3tf+5b20VmJNcbbtXPb4ZsvK293fVt5aZn/84pcZ9ScPlF4f0F5NF/KZQNCtZR+cWEFeC5lMSVRHNPjQiwLt28/IJZ8qBxKYbrw2RVOlsIQq8Y3a5CGVJQqXfepQ+ipY5z4q3grePuEUhmEASl7OXKxCrLDy1GLiSGUiSKUicc/IZQVZ+XFiAucADKxyp1VS6GsYsZX8MsQr6qd2YHXr25Hb76ovNEXZt5H4igTtaAcv9ROmSX5Tyrpf9ueXER4Qntge/SMQI8sOj2uqPXE9nf1k78pavxlaRW9gvvXX/xJ6dL9S5/+rPSLhm3Hk+qZHlt/98ii5MPavxXR/nNGzH+s7yKZ3/rDduJMxby+Eqp0/lB7e/vuIrsx8mrGfFSN/dANV86Ua1WZ/RVnVSIZfO0KrQptCgrNc/GSFhoFRyyKhVgph0phiKW3ldZDiCUf1IrHUk0QixhQK3mcbJIilp2+vmRPLKYdqcAhNGJFqUa16k17T6q3DaRCKPU4bQOEsssgr7a0/dmdFYNQ/RELDxWFQigqRaF4KIETQAqlMWnVWr38xxnK3aa2/+rraid2RTtm8wUz8xwyUYafaa9tv9ZeMlMO9Pjrosy/VfqR6DGlMUiBOM9rv1t0+/X2stKxV5S2vLr9XKX+p0vXfqo05ifLOXFP9519/dr6/mvqmU+t3zml3a8K3q8WZX6zPbee41mlUwj5xBnZHlCa96DZ6/1DKRkVM4Y/KJIpucb2Y+0t7f+0d7bvaB+aLQTkus3W89thay9vB151Y9vngs210Sjl0h9DLrtGC8sC045gCcTJAtTjspnhRbVf0tdSCnmsnljywbxrN+R4h12JeZ/0VxC16okVw97vBvkqxOq9VXaDSDX2rijV+zpShVC5YYBQaWwqeSEUH2ViPaG0DGyRESodcUZUQzAeSsNQIBlYgeU5zm5tn8vW15b+qnbMtgvanWbq9KnZ6lfmKJMyh0x/U9T556LRf9Z/j6qvqM0Lqji9pMjAer+x3afS+oNVlL6nUvsd7ePtGyu99yondo/2uXJAn5/t8e5Wheou9Sp3rq/vWoXrHuWOvn72ux8pt/TB9p1F4+8t/fmhIt5969V/tore/drJRdQTS6s4spBMEf3boh3F/N2iM/X8uaIxcn1nPdM31bPes0bADx626YrtZbEWT+Vpe7lX9m1ObFLsemPiqbrFaGOjr9XvDkMsO8OcIY67QnlTZUIsijXZaqBWPbG0GfreVS76zWsxpAyGWEj1ziLVBztSZbdnQEoe1vNSOcMbu+T9uR1jrqHZNzOZUIbUEQeF4iVIP0J9unB2Teyize2gG66dEUor4N4z7/SB2Q7ODu3XK52M99+UMilJj65C95TSKTb8ZaUTVOftted7f9EQMT5XpDmn3b5d0I5ul287rF27+eB2/YaD243rD2pr1h7UbryxHm88sK1dc2Bbs+6gdsP6g9vqjYe0q7cc0i5fuHW7qB3Vzmu3rZHcuah9z/axogaivavI6rVeUQR7YfutGcGeVkURuf+9PbQU7HFFt6fMxnq/+i27T+Tiu8xJm+KILRe3W629pu135dq28syaO5V+X4FqIxaf5SiITRA7ipUjHw3TeKy+C8/XpvsuT+ljEYXsBpdNqrQZkCo3GrILVP56UimBdoLI1d8YHUmF1Uil7BmYshcvpRdFbrPbMymrRkc4Ry4mH2OuH6M3w0PFlGsS8hQzhapJ1Q5vnyoNR2y8pLTjjJlCfXtpjC09QvEvf1T0sVt7UJWex1fqlLjnlz2X3LeWlkn4J2tPSH0uXDimXbnlsHbd5iLNxn3aputXtIUrK4KXFC4snF/4YuGcxUf/9v1LV7Rt9XubVq9o69esbGs27NdWbzpo9lyXbj2qnb/tdjW6u9a+8xtnKvi2IrFy+vJyV88pGiH5o4rsLP8Dilw2DVSL70Ku714klkVz7ML5s4bsPpqqn684MPEaqcqhI6Ac/dgZUisL1ELlUVUC8Y5xtyO0wKd6WL1aEYtJw17l+Mt2gloMvFVuNLjgF1LFsKe1MHV8M0UqA2DymD0DS8fcKui75VaISekC50A4KsWYZ6fn3E6QmNJ0xakUU37h5rbv1TeWh7qq3X7rObOgaxV8f3v3zPHwT5KjvPxrFRtJY7BfVOnik95WTku5mpGpVOmahYPa+nUr29YrVraF8wtnFaE+U9H7eOFDhfcXTiu8u/COwtsL71r8np99sH7/I4VPFj63sm37YuHSwtWr2pYbVs1IemU7tPait5uV04+2b26nte+blceTa0wnVYF+eu0/KZdNg4VAtX6l9BSxKNY3le7dvbT0NtvObwdcVwmsRTUrhRYZf2nRIVZaDo8rWKA5P1QG+StqpX0Tf9X3r+ap1dydYE8snfbsBGPalT+7wKV2gkuRygCw2y6CQiGUXgiV0h/J8UtUCqEcM5gslbKqEMpOJl1yRlSw+Cgr8tMLbWWZ1v1mhLqyHbP1wlmg9X6s6B+uYvbTZXxt47UIHlA2nAI8udTgxZU8Bvu9lSJe6eLNx7Yb1hzc1l2zf9t8YREJid5beHPhdYVTCs8rPL3w1MJTCk8qPLbw6MJjCo8rPKHgZ37vhMJzCy8rvL6AgEW6hY+Wkn1+VVtzwYFt9aWHtquvPrxduubYmUf7SG0p3lPLgQfjvewmkYux5wP5LcrLI35vzfEbS/Nus/m8dsiaq9sBV69pK507/u+27SqeZqlSaHPjgFp/j3HXgbcRyo4QsaiVTRNvJU+Ild1gbjYQi502RN1mCKmUwJCqfwNF3pWzK6Ri0JU+5tzAyGm8FFMYQqnpJuXOUAhFpawqCsVsknCBceTiEFaHmdSfvbVK3pp2q1Koo7de1O7Yzp71oBjb76/UxJz/bu3B7LKselt8ZY9CUQeHK5e1w9vGG2q/fEFF59OF9xUQ6aQCAiHLQwv/VLh/4Y8Kf1D4vcJvFn51Eb+y+Phbhd8v/Enhzwv/UPiPAvI9ufCMwksKbyog7icKVUY3lDpes3Bwu2DhNjPTf1oR/tU1AyV6O7keOFsYyjj1NTfl3ZxvX7p3+OZL236ry8+cW6rVm3d2weZGLCkWjxrjrgwiFj+rnZNuuzw55WBXeGHiQK1UH75qt0ilZ4VYSzVClyIVlVKLyaemGlJpsBlsjmHs+JxN2eJSKed5pNmOz8Rti5U9XsqOhko5eHUd5TOtrTp/c0n/6nbrzZfNztfu1M6adcmplIZiDPp2Uj111it6eBVAW3xK8D/lus5pd2jXb92/bbmsInN64T0FhHpR4YkFZHhA4S8LSPQLhZ8p3Lfwo4UfLHxf4fsL31v4nsWvf6jw44WfLNyv8LsFhPzrwgMLlI2SvbjwmkK97sIXVrQtV61o69btOzP6ThKZemVRe+KZtTd8aC0KvS7EsvHQuP32mgmFvt3CuWXey2NdWuXHTQtHVGzC6wv6WK7VpNWgORq1YtrZDws8hj2kkruQikikb6WpXcP+ciyHVDvrri9FKlIZUmE7KTVIxzFWA5UiuTrndnzpSdmhKH0mzpxnx+fU3m6PX7AKy5gyqG4QHLn14lm33MHvN5fX0I/SSOQ/GFyk2m7QHz5rSD6nPAsfZft/8cLRbePa2s6Ub5oR6rUFhHpa4d8LyER1KBCCINC3F76pcK8iwl2KCHdY0TbfvkrabVa0jccU6tG/t9XP2j0K31JANCT7ucJvFDyv51c+o1x8WSnlwkX1HKWcl28+cjbGd5fuOlVUDvXQUgr1tuwOf6B+Qxm0QTmydoUHXFtqxV/ZESqD1MqidNuBaVcGVQILOKSysOUDqWyglEA7wVGp0mXfbVJFqZQ/nsoOcLlG3QDU4ZCKSjGA/FR2fOlLkV/bXCvHXSHbXxPvSx9v4O4Tc66jfGaR6tKN7ZC1Vfq2XTi7EXCPKhoM+naVetOskagvZVVrNPJTT2h/P/NT2ga2+ldvPqQtXFWkUoL4HoTih5Q7pevXCz9b+JFCkWnh7kUWhCnybD18RVtz0Ip2zb4r2pWrVrTLKrIXL+LywrX7rWhrDy6y1e9tvV39Tf3twjcXEIzaUa+/LTy4wIudXHhroTxXO7vK4bX7VSk8ZnYP4rRaKhqv2g881r+2R8xK+m+1F84UWaN01sdq51ZMrq0SWL7qfytOvCe1sij50r4EhlR23D2p+Cp5sqFSYUIqmy5isUekilIhlbaClkLaCjsjlQHwU7mFoINukFYBP9Ufx5gUUvFTIZWJk+uc7Wl0Kn1W3+xcb6Htd8Xa2fmYQGpFfkOtaypFoZyt2Yrb9T2gPXZW9o4ru/7CKiNvbT82Ky1XbD20bbihCKUtYCenFFEohPq7wi8XlDgl7RuLGEWmG4skVxRZLiginbXPinb6yhXtfyqiHyy8p/CORbyr8L7Ch+vnp9fvnVF/c+EBRcD6+3VH1HNRsB8oUC4e7K8KSqLNALWsneTWUs8bN+zbLlo4quhyz5mBf3ktE/5Kw9T5ogVjM+ImBJW+a6nVERsvbasuq8Q6iHZs5fiKH7UTZNh5VTc8nFTYadtxqxY2TGwJezJFquwAtYt2INVyjXpaCtCTCpZDKr0pHfSYdKWPSdfsTAddryQm3cphIEMqpU8gcp2FlDPoejLnbm37167vqIWLZwbdfSZHMf+njOvPlr3lN9wu4D8c+rpLoGPuKEU/6oJ2bFu7fr+2cHlFhDl/Y+HZBYn91wL/81OF7y58Q+GOpRyHrWiXVgS/UPhkAZHeWnhN4dWFlxdeVHjh4uNLC68q/HfhnYWPFs4seI71t67nLOVq31lQFpXEfy7wcSHWx4tYq0vxth48837aHq+t8T+7qORMUhm0q3UDwrx5K3E4etNFbdWVa2YbmVm8GHa+iuKLKV9lF8hq8LHMut03K6KCzCNV76l2OAfsSaUBmj4VUulVOf+z88ubT+OnolJj89NRzTuKVO+fUCo7v/6cj1LlJkKUCqk05Oz6bHdHUvEDIdWin1px/pa2/+rr2zHtwplBd0b2HUUXOz4q5cbBn7bjZ7slRyESoWv+pnafWbf88nbrtun6isy525M3S+IzC48sMNJ2eD9R4J9KVRaq3F1fpe7simAIhSjI9OICIp1UeFbh6YXjCycUnlt4SeHUAgL6u88Uri7V2nZUPffXFSjhzxeY+IcXji9oQ+h5XVJqtfHAWgTHzBqzOvH6WA65nQrovOtfmbf5K4HHbLqwrSoVX3FOJTl9q5CKr+JVtWuQilLZJIVUaYIuRaolWwr6VOM1GI3PXT2mQarxQHkeqaJUPanIb0iVYxmrSQBGpQqpLtzYDrhh9YxUDOr2Xd/7q/S9of1qbbeVBccxjj2UCyaXJ3l32drP1l7pum0HtK1XV+k7syLywcKrCrzUfxX4nN8p/HChyl67U/miUqnLquR9oiKorL298PoCMiEQPKXwuMKjCo8uPL7wpAKSIdwphTcX/D21uw6xblvPTwm9ljYFleSvnl/Q1zq/fNn6fdtltQj0sRwjOdpxrKMEulWhvcBXmb/2gr7VfldrLUyQikdFKhuhkVTKn9zkSoxeVYx6GqAh1dyjGo1PxzQu7OUKzHLO/qYOlJdDKuXPdpWnSvnrSaXGUyqkcniMVDnr6z3V5woXbGoHXH9dO7pI5cjCRTfnfPxUTypXWHSnX1KhdxzClzjTu37b/m3rNRWN2sbPSHVqgUKEVL9dYM7t8pDq0Cpb5Y2UsNMKbyu8tvD8wnGFpxaQCKEeXnhk4TEFJEO2EwsvK7yh8O7C5wpX1/NtPbae/54F/gqRlUB9MT2ytxVKSdetr51gO2x2vONwmi+0UB5RPtGdL97xPqXBOu1fItU1c0iVHaCrMSFVyp98xKgjVd9SSPPTxb1JpSr/NlMp14splQNlXiqfv7AUqXIDdGf3qaZIpfdBVueRiqeKUWcmGfW8ncruTyddj8oB8jnb2n5XrWlHbr1kdmOSl9BJ10XXm7Irun97RpnZR8/8h10Tk/vmWtPO3a6oJG26cbHh+bGCnV88VcpfPJXWQZW/1QduJ8PHC+8vKGfUR4lT6pCLMgEi+TcFo1L8Vgj1kcIFZeDXlWlfKK82I64NwR8X7AR15F9QeGfhwlKqDfu1S9qRtbe956x8p/zZzf5dfcU/hlTuYc3K35Vzyp+Yiq2FqzLwVFGqpUglnzmm2YFUUakcKIdUy72lsFxSkUp12O7P8YwBaikYrKsWzppMQtNNn8SKSePT5TItBY1PJ+3O/Jxj6abbIjOfZ7S2zyUb28Frrm5Hbb14Riz3pphVxNJO2K5Yz2r/Umv6MeWrXKpzz0lD8ez6i9VlgDdft1gCJdCW/rjCwwp2f79WYKIRq3zVpiLWNVWyLqxIfn6RHHyVMsiQIw7/xKSfXKBMrywgE3VDRkb94lKoG8uob71zPa8elkapneY/FqJSGqJF9i2lptduOWh2TvjR2opohGqCWihKuwt/elXmrK1gcR218eK20tvGvMVM+4VRp/SsBFI5+kKqKBVP6yqMRnT6VKrKqFQ5VP6Kkkrz04DGPlWan3l3sVWSNzXk/pSbCd5FnPtTfJXmp+sd7mqXWq384ta2TxnSg9de047YcunscFVn2S7w+9pps9uddkZ2gdoKyoWy4e0KrqGcX47sui0HtG12gHpDzLqdl6MUnXTHLL9UuE8BsapMUax1ZdivWrWinV/4bEX1Y4UPFajXewuIpqXga+2GTxXOKWW6tH7/uv2LnEWohbstPqfndryjJ2aTcGJBKT6t/NbZ9VobVrVLFw6ftUCcU7rN4MKfuTh20jL5maKaYynz1lrRUlhxSSX4jEo2u6ClQOmpft9SoFS5BqNipE/FojDpPalGT7UDqRwm3xykWqr5mbdeMYdWibrem3VGkq+ysnLlxQGpAJHz9KvO2zbrybjp6RpI7lK5+vKt7cOze+guu/1ee+6sVLhPrhS+o7zJ7CB54ai2buOqto23YowZdkrx+ALlYJ6piJ2gY5h7FyHKY209ekXbeEiVxDLvmp6XFCjYuYWzCnaJ5xV8/9pSpvVV6rYcub3cLXx9PY8GqKaqHtVfFJS9ZxUQSs/s0/X7l69qVy/cqlT1jjOVck3GzQoNXF6RZ3TAfN/anDia0qfTBD5sQ+24XIfx3kJ2gW3om5+qgBsgKoPFPDY/d3ZMM+mpEIunuilJxdQhlhNuVygc09hN2AHastplKIEmogTyVX0D1ErSVohaKYEk3JFDf304b3Ao477v5evbAdde3w5Zc2U7asNF7babzm132/r52dujXP51p0oX2rVh7QVlkE+51IHylftu71fZxutZ6awjlqMUpZDfcVTjzM9OTRugSteWKosbq4xtKLKsu0P5n8KNUP9eW+TbcNf6nfJk7VsLiISczgL/sOCg2cbAbg+R3YiokrdwTj3nVfu0KzccXrp791lfjRd0rZnSuq36d0Ut79rRTnCBT+OTSh+99cJ2YC2wFV+o0scmiJOYWZRaNEy6KsBiOBbLFWMnGxa5Bd+TSu70G9P8/IqSiqlDLLLZfzZCuup5oyjD7oScBFMrNd5bsUyaWvVXX7wlSWvBfSqrz20FxGJG7QjPKpxX5rSkf78i14Frr22Hb7qs3WPhMzMT+5O1/0MsnehnlI0/tSy9674St3pDmQWX8HTXHdlQLb0i6qEhyWcx8H9aQAhHLDyX/pIzQWTp4XuOYhxAI6Pf97cI+qBCDpSd+Sm7zv3OKAWsMaxft0+7YuGw2S61P1B25ZnSbj9QPqEM+ot3PFB2ae+S8lNiwn+Kk3v8FqU45k0RLkCqDOmmsyEWeXpUIZWNlhyqOpRq7u5vb5Cqf4vWFKm8uEFgOPk0uKn7VCaiBDr/i1o5A9RaMHlqlYNl7+0j41Gs/jMQQqzaFa64eGPbt3aGB5XXciXG256QSpnQ09HbcT9cm4EC6FS79nvDpgPagjaDhugnC8w7w8zA8zruTz2kQL3+pUBpHAzrvgd8GPxZQTNTe8KVmf8s8EwIqsnqOe04lbqPFIpQbpdet/XA2bHMGe0uZbu/Y9Zb05dCKE1cu1mE+o2imbL+pasvC19sR2y6tBaTVkKVPosth8n8FF8qjt546jBZNXCKET+l8al3KC/pUdm1u/2JVHZ/DpPd5t0pqfSpND+vKiDVzloKffNTn8pnKswjVe6nh1Q5rkkTNGrFsOduOjm2gkzaDiUf/WMnqGeluy5IrsHYDdrZMO52OSmF5SfcBL3V+qvase2CCvqnSo9OmzVGvWOFF+FLvFuGCrgF4P6SbfuajQe0La4Ouzb82cKHCm52ug5DVaiLJqltv/L4iIIS5rwwoGoI5AaC0uY88TkFJfUVhTcU3Nn6VKHM+LZ6rfXX7duu3HbYbJfH6yEUwr94UaG8y4ePcizza+3kItSps3fd6M3NbifUDvigNddsfxuXMz8H77n2QuHtojWUddLzZtP+kp6FbYGPl/RCKqVvbksBRlLlmGZXSOWRWqUEjs3P/jpxSMX0GagSmOvE1CrXiU3Q9tZkTdqdH8RiLK0ygdGz0l5wQNqXQWqFVKVU3kB6QPkK7zq5bWmQayEOXJHql8uD2IbbPUmWGwveXvW+srou7FGsKxcOaWs27Nu2XLmqLZy7sm37zMq28JHCaYW3FuGQQsl6ZYHi6CkhjANpeGnhlPq9+vlC/d5CebSFd9TzvK9Qz7PtM7UxOH9V23L1qrZu7ap27daDZscwp7d7z25PuJZDoZQ8d9YdhmuLuL6jfCt5FAqh7r3wqXbs1gvaweuuafteuaat1PD0zmwqpewhlP6URWmB8qq5oKc/ZZNEpdyl4nPjp5BKZWFdRlLNvU68N5SqP/sbSeUkG7GUQE1Qhj2HyzmyUQatDJNh2HMNBrF4q7zfTyD6D98QJMYzN0GZUafxmqJf3DJ7E6l7Vkds0Rg9e/b2Ji0GDUJv3tRt12LQPHxc+4ci15/O+ldvLNrxMFTi9IV7t3M237FdtOHYdtm6I9vVNx7arr/+wLZ29T5t/TUr26Yryv9cVGQ5ryLqjQ9KZj0u1OO2C1a0zaU+G65cWb+7qq1ZvV9bfd3B7cobbt0uWXN0O3/dbduZG+/WPrXlG9qHt31rEdobIH6kRvZLtUfdfj+dkm5vbj5h9r5Au7z71W9sP+P70Gyn553M3ijr/pRPrFl5ZhGKOUco3tPb2Oyc7aCz4xNPnjV31PnZvKNGqydeKm+DH68SL/nGh76lkGOaXVWqfGjHFKm8OGKpw/pVvJUBGmjaCzm2sePom6H6VrkJmqMbxNJfSUNUI88q1GZwzypq5RNUyqh7M8CtN17eblvmVZfZFWO7JO8E1oH2/jpl8IHtUZW8B9dXf9NOan8wUwfJdaTzriqLHyob7ABan+is2rCfVwXVmyMuaUfMzPRVWw9t12w5tF1dyOOV2w6dndV5i5Ze2Nnt9jPTfXoV4g+Xf3tvqdFbih6uCtvR8UwOvBHpoe3fS5ceMfN93v+s1LloyA9qj+R6y223njf7CKP9XR/20UTuTrEBfCaF4j/zFq30pfQAtREsWP6Vl2I9ECqtBAteNVnqTQ9zz/1Cqlx7Wa5RRyZGvTfrU6Ty4v17/xDLABFLGeSt0mFXBvu+FWJZRXootr25vZA3QoRYSqH714iVMsiwn7PQVl66vh1w/eqZeb3zwhdmZtYuyQU+5YNh17tylOMWJb/CCLtZSSlOLIKdXL/ljaUI5i1cVMxuUYn6YOmF68j6Rx+bpXo7/PvD7dtmZHx/FSj34J3XeXOqkqbxShW9c1ln3IZBdxyZfG4DovuQD8pEVe9Tf2nMFoUy7t3KR267pJT46raPo5hzi1A+wY9aZ6fHd4ZQ4iVuen89oVL2mHPeNl5qfHtW30mXT1deliSVs7+pD0JbilTLbSmQSMSiVrwVtiNWzgPJaxSLv4pp7xuiJi8IeleOFPIewBArd9eVwSiWZp9d4BdLsS7dOLseYwfoekzuXCmFDp6dEW4n10mz/pVWA5VwpeQR5WIQTGnULH1u/RYV2/4W+PvNyOHNE4x+4K6TR2+Rd86IPG5HeOPCCe2PZx4OiSgST/fg0khEytvfvXNam+AX6xnim7x30VvOmHGq6xNh9r1mTVtV5W7Wizq9Etq/O5l665zr71EobRllz8IMoVQCViM+yqbJ4qZSCEWlHK/JVcqePHrDg8t5O5Cqyu6XVIqf6ktfTyqEcjkPqfq3vU+RyuNIKi+GWAZCrfLuGsw3YANP70odNzFlMG+IsIrsCAUhisUPOGzWakgpRKx8jJBVmg/pUA4cU5y/qR10/XXt8CqFx2y+sN1p61ntXgv/O7t2jFw8ipKoiZhPfVEaJdkNAPfaNRv1hxCBB3tCOR2EY6JHKKOPL9I4a3TtV6OVCrlQh0C8nL/2sUM+bsjBN2K7A4boLtt9T+nht5XeGeftN5/Tjtp0UTts/ZXt4FLefS5ZX/OqJNrt2uEpd9nh8ZrpmiOTkmenF0LljI+P4mFzyxOhLO60EJQ9DU8iQBDyAR1EYvJyHpXqDboeVW57Ak+13A/oSJ9KW2Esf3lRAzEoxFKXc3vBjjBNUcaQ9FIs5FLfyTJiqfvxWHljRMx7doU5H8wVGe/QtXr1sBjXs6scXrxp9g7m2RslNl0ye+u4N0rwW/nwDoeytun8i9uj7re7VpLPqUK2fLYL0u1Iqe34y/p5PqvK2Ryi2rXxR3afPBIlQmilTQ9NaTYWfsnYji03dlh5JmP2UUIrz9+8/e3tfCMj7hxUW0X512oRA4usb24ik5jZTbMTbIUqoBogVG4jIJTFbaEreWwKQqUvFUJNGvSoVAjV3/Yc76Uj1dQbSKEnVT5U9i1FqqnPp8JsgwqxDJRaWQlpNTCG2RGGWGS591h2hYJjKxyP1RNLc9QqteNJuyHkWrzV4H7R7BNhqnx4r6CPYbztwnmz0qhBilx2VpLsHSo/UnsyngYBFDhqQtEChn8KPuTsl4qQytjPF4HcmKBCP1qE9S4fz+3zsb6lfWS2i9v+mVRntGO3nj87ATh43dXlB69v+1xequRK8OcrebwiIx7fpFen9Nuw5PjFDhmh4p9sdPo3NtgIqQJshqpg9x1CWdwqSIw5H5UPPZskVJXe2Y7P9eFczOtJpeyFULyUdyVTKF4KqfoPlbXjc0EvJh2ptn9C8TSp1F91uCdWOu35fAXGnfSaYFoNtre9xxIUwUkp7NsNiOXwmTFVDhFLOaBaudmQlsPi/XafKnxglcVDN1zVDt9yWbvNtvPaXRbObD7RztVkplgJ0guiYm4B8DiUDPKxjVPwsx8pFUIgSqTMeh4H3N6u7rn5uzvX691+2xfbsdvOb0duuaTdqlR0/2tunH3q8ewDZ5VvC0KZszi0T+KblHzeSbsAodKD6sudYy8dczaC6odQ/KujMv1ChOKjVI2UvBAqKrUDoQCplD1vcsgHysag81N5owOFAqRCKD4qn6EQpUImvan0p/I/+J738YwQYunE9sZ9ilhRrL7jjlijx7IK80GyfNa4M8yNUeUhH4jmLCx+6wvb3zK/6vINbZ9KpHtZh2+8rB2x+ZJ2zMKFs/cRuu1wt/a59nVFAGYZIVwEVKoo2hT8zO/YC7ri7O+8dUyp9dFG+mbe/XNUbR62fwzjtW3/665r+3rL+gVb2kofauZ2gc+esulAJopLnczFnMyNKqfcmbsYiAV7QM3Fibr3RzAazRRKbPudnthPtQ+IwA7vmglCqrQQdnXHB+PbshBqyQ+S9aLdIBBr3BFaEVGtmPecD6aHRbEEI/ev7FqYTSuQtPeqJbB2h44jmNV4LataF55y5cM90jA9vcb56S1t1Vkb234XrG/7X7SuHXDZmnbQVTe0Q64pJVu9uh123TXt8BuuaEfceGk7cs0l7ag1F7ej117YjllXWH/Bl6O+d9Tai9sRay6tv7m83fr6q2Z/f8i117Vb1fMdfNX17aDLb2z7X7i27XtOeaUzq3x8vpLz6SpzyhsSKXGIxDPZgFBeZS5EMj/qrNSZs/6T81LHWxac2OTopW9sqgA8VBQquzw2RA5yXXjJnR4oe7rn/X30kVDz/u8PFCqESrMzhGLQl/zIay88ECuIebcabFdNJl13k+zvXwkCcjGVDLwACZTVh1x2NFEugc1bvAQ854YIFs8VBeNJrH6tCCXSLoqSKTXIpuykXPqgfh9X5Aik1G1WmjxeXIF1Gc4H88Ps6/reBUUUn9HpcNs7hfk5R0iez64NeZDaa2qDILmWANIjPxLpwVkQxm38IZJjK54JkSwmc3YI3ysT76SZzIyLmdjlJudY7pCpPywOmSZLXsVgZsyVPF3zeQq11IfzR6XG7nl6UyHV5Ifz2xEgloFMDNDA47GyK2TgszNML4tqIVfffU/boTfxyJUuvLLoQFo56D8nlKGXID4EwVwHQTCJVFpszZVKKiHRSibl0FRFNuXo4zWfwP9WZITvf6SAOICoPJ0dGwLxRQiE0DYUlMjrGwcSebcLIvGHIZL36Fko/YfDUiVkMue+zFlw8U3KHHUSu5zliauFawHzTypFCMWeTCoTIBNTPuWhdqZQjHnMeRRKyUOocceX/5XI5P9GhDSSyDnEMniKZWVQLBOjWCGXSeuZUC1eKyXR7tDKS0mM3yL3vZlHLsHPx2RLilWOYBLVKxgPxuBTMSrBCLtiQ80knoJE1RCCsnmcByVW6QJ/5++Rx3N6brs2PSVGG7kRKYYb+fPR1THeVMk8qFIMuEU0kkk8xEXvSZxyJTjqlC65hZtOORuCULrlS/qnEGpXFQqZqFR/JJOdXsx5FAqZ+v/hEaX6sv/hkRdn4igWQ2dgE+Qis1YIYqnnVAu5xrZDVEugkMvuRfBi5imXwGrs6WvpyygJVjPjKiHKhfIoURSMAvBgSCaZdpA8C6J5K5OEIxtQEcqmLPFoHkfk+/wPgoKvkcfz8XjgnjjVRGwEUqaRyImBsVFY40yfyeGvK0FUybzy/6BR5kKmKBM1Z8JteCxGi1L8xJERF1cLN0cvqoWFPdk2AAoV/7SrCoVMSIVQvYeKQoVQ/f/oaMn/NZt+hb4FIxdyYbtBDgOnWvpZJpaDaOQizQKg7lthgiNIOeIZe1tIpr9lpzP2uCgYkjH3khQl08+RvJBNiaFqVIIvo2ySDgiACDtDiIKs4GvPRSkRx2sgjhKtnFEhR1FKmrFRWiSiRna81Mhi6Y23eSJSVMlCYxMsPGRiwvkmcRO/9J7ENWY83gnk4MtKHwGQK3kjEO5HySdCIVM+dnFnplyTk0Jll0ehxpIXhdrp/0TSC2OzQWA3lpNPxJqjWiFXWg9RLsEQFLJt6ytYCEbSyTtyUTAEs1KjYPFedo19iZQoO6QQTQIlU1KpmgSHbEoPwimhiMAkI988+LnfDfyt5/BcKWFeA6mpKJIrZ8ZBhYyNElkMxuw4xRxivNMSME+bmFxV0UBOeyBk6jvj6TtFmZYsdcikuoRQaWqCnOYNokuVvHTMo1C5gZCSl35UX/KQafzf3b6lJxUWa4LNI5aBzyGWCSNWdogCIjBUS6CUReRKWaRaAmulCrJg810SwGNIhqRIjiRJFnKBBKZcxuz3aoZogGgIsatAID4IgYAKhUSI7bUBmdIGsAgoLcVV2s0hqoRMVMkiokrmTr35pRjweKa+zKVNMLfMgXyETP1ZHjLJJRCL3I9aypSPxzBpcuZsD9I5jzpFoeb+j7mRikQupVhLEMvEo1r9FRqKZfUhlwAKZF8WNfSiWspCvFdPMMlSRiRPEpUWyoBg2hSSLOESHyAbRUO4nQFxPPobQFakBaXYayA0Enlt/iilLURKedNf6pXJwjHHKFN6TSOZsqtLqQuZvqzE9aBQNlVThMpZXjB16Y5ChVT9QfGoUmkfRKV6QvmaSr2+8NrCK0ZSkUZALsQyMKfXajNJ7XeHc8ohCESUi2rZrWSnmK68YAoq9RJkAecrUhqp1zySSSCPEqM/ki2JH4nncUT/fb+bvw9pgLnuSxqERHpKI4l6r5RdnEWESMx3ek0WWnxTdnTIZEGK3aQ6iXnKXXZ3MeM9oXLjQD7n3eLM8UtMOWViyhGKl4qHCnpCKXnBGwqvK7y6cEqR6o09qbwoeQyx1GGDG8k17hAz2SEAKYskXFkUrLQirEoBBQom2CGZsoBokoFoVnnvwdJllkTJlFQI6SQb+jK6FGKi+79FFs+X5wXlGcHz+oD8CGQxGCvl5ZFCol6NMl9zp0ZKXMocEs1VpECMQ6apnZ1S1xPK4XDO8nInKgqFTGlq9m0DhjwKNe7ypkpeT6hJUmGxE2qDCcMNrieW1YBcpDbKhVzLKItRsDRQBdYKjYL1O8e0JhhYBFMqgaLFj/WqRh1AwqmbRwjxEMLjiHy//xtfhzD9c/eeCIEA8Y0LkXKvCZHSCqBG5mfzkl1cekzKm3iIzZKESpnrlUkOIIRSWQiBfEWZxusrQQjlxgGkbYBISl081NQujzIhFDKl5L2mgFCvKry0SPX6nlRYjFgUy6AAwSiWuhwTT2IRzCqJco1lMZgIUloRUbAQLCQbfRiCSRRY/ZIniRBfhmxA1UI4X6dPthSiNOPf5jmD+CGvj+wQhe0VycJAJIoc022eKW0h01wi9fGbKnOIJAd9qUMoQhBlygfq9599nnKnbRDfBOPRi1LXHxL3fajs8qBXqFMLryicXKR6XU8qdRYMwmAMLsSKeoVcJmRyQL3iuZRF5ArmEEtAg5h7gU/wJSKtCZCkqBiixfRLKnXIo4QrPdCX0aWAmPn9/G3+HR/kuZE7rx0gPoXNOGO0lfnMJe2AmO65ZAIkSuymyGRRI1LIlFaB/Iw7u9zajBFHJshVYGUOekItp+QBhQqhKBRCwUtGUqXxZRBkMsqFXFEvgyex2SmOnktZFATqlR2j8pgSScmiZl0wUyIDqxnRJASym0Q2SZsiXXwa8kG+ph49GUf4Wf/7PXzPc3sNr0dJo6rxQ8aWcUJf1iBk6uf7pThACETtLcreL1mwfYlDogCZlLioEoRI8hd16nd2Uaa0CiD9J6BQlCmgTMjU7/AolJJHnRDqlQWEennhRUWq1/Sk4v69uN1ABkS5kKsfuImkPJqYCYZckWWBEJQQLCVS8GCOB1sKfZIgxAOJleB5CBnngbJM/R1QnLwO9OOYGueSMGdEssgSi16NwOIUw/SYwAJWKahRYm+hp7yFSClxwDfJZ3Z2jDjflO54lCmtAshtA8jODpkgRIK+5MEphZcUnl+kelVPKkwGg6BaBoVgUS2rAKJcvXqNph6srpBLeYz/EkSID9tFcgUpJUFPNI89elJMYfzdlKugf52psSyJqFH8ETXqFQkovFjFJ8FY3iBXfUEVQabYFkKQEpcdXZCdXQjV955S7uKdlDzKhFAhVcw4IlGmIAqFUPCCItWpPanIIkSxDMwAQ6zA6jCh3tRn1zivNJJxQLCpEhkfEQWTiN0gW8i1p9gt8gQpayGT+Y2lzQKLKomLGEWZxC4tnZS4QKVI7C10ZJIfUOaiTnxT8gkUKuWOEU+5C5myw4tCxT8pdb1/6tUphHppIaSiVK/sSRUmY3UUyyCBnFoJYHWYUO+5wKQjzymLgiRY2TkKntUY/yWwgizYSCbwKQ1RsWAqgV9pZGxZBBZFPCQiZV5gvplz4hBliipBylximfj2nikKhUwhUnIVI558pucUzDPiIVTMeF/ypkiVktfjuUWql/ekIokQYoHBIZiBGrDVAPFblMsETTYKRr0QLOQSJLD6BM9KFMgElewjWRCiSYSkIJoEBQgneVOYSvzuIAQZgej9WCAKFIRAmU/KWmBxJQ4e01sCROpVSUzBAk6lsLCTBzlJiUtHXN5ixJNTBhyZgrH3pMyl/5TeU5CSl10eZQoQ6cWFFy3ipCLVKT2pIokGEbk0uEhoymIIFtlFMMQKwfryGP/Vey8EsyKRDKhZfETIJhEpmRIUT+ZrhJPIKVCIlNLdBfJ4nqnnB6TJeDIm5Ml4U86y/e9LWtATKfZBnFLeeiJZvGKcEseSyIFcIFPyg0zzylyIFMQ3IVR6T9ndRZGQKI9RppcVemU6uYBML1zEiUWql/WkiiQaRKTS4PqyiFhgMpFbk0xpDAQjJVKAIuECF2kPQjIQ/JTLAMkkKUA4iZyHlNM9QV+upoBE/ZgAgfpxI1PmhUQWVT/vsbQlXhZm4ohMMd5RpeQA5pU5hOrLHMSIj2UumNd7CnrvFEKFTMGzi1Qn96Tyol7cYMglGFxk1KD7smi1BFaNyfflMXIdgk2VyECQo2ISEKKlREiQR5giWhCVU0L3BNTGc817HQTKeIwt44sKBeaETFGjYFSkKH2vSL0qQVRJ9ZCDfB1lSpkL+jIXQilxKXOIFCOekhdCZWdHmQKkijKl5PWEel7hWSOpsDc7gcDAIqFRrhAsshtYOZl8Xx4Fx2M8mMcoWALbl8ognqwvm3nsS0kPJJTgXjF2FfNKVg+Ez9gC/7Y4+jlAvJE5gsWVOIRIiZG4hUSJZRqWiESRQqLkImUOkfrchUjyCsiERND3nlLmAmUuCJECZEKgFwx4fuGkwjOKVC/uSRUZVGP7XYGvo2CRVBMwocBkrZpIsSAISOQ6RLPyIucCSeIFN4jp7xECjsmagqT2id5TUJWp1wGLIEozjjmkGYE4iUHigDyJUUiUWHqElDaxRqCUtOSjL23JXdQIfI1MKW+9KqW8RZ2WU+aoEhKNOL5I9YKeVCQwA4hMIpgBGjQYcBQsEmuS/coJyVIqgyhZVqDHsWyClSsBfWJ8LXmBZE6BEqS07CmiMEgyvo7vpWRljEGUZ0QIFPLk66hQkJImjolrPFJiHiKltHmMGgVyuVR5y2MMeNATaixzVGkk1HMKzy6cWHj6SCovGlkMDC7yCQiGVCYVmTVJk+4hIFZXD8GzCkcILHL1sKIlZ4TvZyMgqTc38rohzwjkGecSTM0dLMA+TiFRD2TqYw4hUtDv4gJk6ksbhEhB3xEHypRHhEqJQ6qUuR4IdcIijhtJ1cuix6hWENUymSCk6mHy1CuqFdnu5byHwGb19pCIvlSMkMRRJW5KjKVrCtTI2Ptyln+b61QMkCgxSrwSxzGuYt7nAJn6HEWdksPkM6XNY0g1lrmgVyZfTxEJolAhVEj1wp5U5DCmzWBi6iKfBoxYEIkNsVIegxArBtKjFRez38PqFFzST81SDjxKBtL1pTPYGenmgZoshyAjvN44hn58+boff75GpnHeCCQmfYwAgcZ4hkCJffKASMlP8hUSJZ9jmaNMU2UuCKGiTM8t9ERS5oKeUM8sPKVI9byeVF4Umw3CwEbZNPBeWkMyK6eX4XgwxIJesgUs5Iq059/INZaCAOkkbG8ghAwJdgf523njBT+DkGecLyL1sYHEq4+prxGpj33iHxIlR70qBcnrWOaCGPG+zOXfPaFgJFLwrMLTC08sUp3Ukwp7vXgkMoPzaMCRU4hy9dIb9PLcI2TrJT0QYIFOCZiC1S1JfenYHVAOmPrZcpG/j+IshajPiJBnXqyiRIF4i3ufB0AkQpBceczXOfANeiIpbUGvSj12Rijlj0Ih1CSpvKhBBBkcGDRiRU5NJHIbWD0mH2keYdUJWFZlL+/+nRKZMjAFSZpShV1BX4Kmfr4c+FuLYGqMI6hPP9fM1yPyiMtUrKJEPZCoz0MUqidTzDekzKW0IRPsrMwFyl3Q+yfKhExwfCGketJIqp7FCBbZHOH7JoFYPUxaIEZEqgVLEEdE4gU6JXMeJEkyv9JI6Zoa4wgLKXOcgoWYGPWgSggzxhmZpvISIJIcJp/Qm+8RytxIpmA04sEzCiFSjx2UqpdDTEYsAwwioVE0xOqR1QMmP0p1VltKZ8y+oObrfrXmewKfspBV/pWGcWRMQcbczyHf6+fo68Qhj4lRvhbDMb4Q9elzAfneWNZ6xCMF+k0QhVLekGgEVaJGI0KkpxWeuojHFame3ZOKBELMWuSyl84w3wQisUGULUoWaYaecP4teFZniDYPId9UifhqQcYWxZmaxwiLbiou+V7iOMZY7Ps8JD957BUo+UxO+6Zlv4tbqrx5jCodt/iYrwNkesoiHlukOqEnVV7QIPrBBQadyUzBpHsZngKy9VK+FKJoX0tAqqm5TCHkmQfqMxXnHsg0laupnVsPJOrL2YjefE+hJ1KPuaSKNHrsCUZCo1qR1FG9UiqDKFoChVT96gwi71Zqgp5ysCegClPJHxGVmXqOXUUIkzmNcw38LHGhSlOx68mTmCcHyUNPpJS0XpWCqFEwRSSqBH15C3xvVKYRyt+XkSoyCBmIwRlsj8ipiZiYCS8FARK0nQH5Qqy9AYmTYGTZGZAPiaeeZ3dgHlNznAcxmopdIM49eaYgLyHPFMaWgNLWI6TpidSXOeCfRiI9ucNjilTP6kmVFzOAkGoekM0E+5UyIkrWr7idIcTqV/GeIMRCmChgj3x/b71eEFItZ+5+R5ymYjiFkGcepvpJPWK+e/LMw1KqFDyx8PhFPKJIdfwUqbxoTFy+Hgfe7x4Cq2UMQC/TPQRxXoD7EjCF5Xi3QHL7kjMPU3+7FKIu82CMHqfmCH1M8vUYu2CM85RX6nM1VdoAkZYqbwE1CqZIBCEbQj2h0JPq6T2pvOjUYCDqFSkdJwUmLAijLM8jWwIciR+/noKfIZ6kJrk3N7zuUoTJHPq5jF+P8YCpmHkU2zHmYx7mEQmS16XMd8qex5FAI5Q5j08qhEw9qb5MqTDYi08N0Pf6789TrxG+H7L1yCodkZ8J/lKlw8++0pgaF8KMc5rCGAvkmYofjHFGpj4nU/nKz0OkpZQJkZZT5vwOQvXKNGIHUnlhg5gCwnnsB4xYJuhxHvxcYPiAeeilHXxPkAU75fNrASHUOJ9gnHcPMZqK34jEWw6Sl+RmCj2ZYrSnMBIIeSjRiN4/jXhs4WFFquN6UuWFM4gevh8lC8hqj/5nQSTa4zyMKzG/LxFZzSkJX80wTgSZmg+M8w78LESZwlScPU7t1vp8jT+bIs88LEWeKTyu8OjCfxWpntqTirzBvIGCicyDlTFKceR5KSSwU+jLwNcKpuYB5rpUTPq45fc8TsUapvIDIU/yGYzE6eHnlEhpW6q8BVTpMQOQ6iEjqbANPCmmTmGUwx4G10sqGKzHqckDAgsQQkbKl4LfG1fuVxJTYxyRuWW+Ywzy/TF2IH7zSlG+P+ZI0pPLKeTnIykeVXjkEnhE4eGLjw8rPHQCD2oHHfT4/49UBxxwXFsaxxeeuRs4ofCcvYTnFp7/VYLnFYzpxMXHPcGzC1Ox2xmeUZjK1c7wtMKTdhGPLzxuSSDdHe7QtRRuwS3Ye/jAwv8FQlPHjsE/eUgAAAAASUVORK5CYII=;rotation=-90;shadow=1;direction=east;" parent="1" vertex="1">
          <mxGeometry x="1248" y="56" width="112.06" height="114.33" as="geometry" />
        </mxCell>
        <mxCell id="Of2HctXFItvGuZZWUc3y-54" value="" style="group" parent="1" vertex="1" connectable="0">
          <mxGeometry x="787" y="363" width="85" height="59" as="geometry" />
        </mxCell>
        <mxCell id="Of2HctXFItvGuZZWUc3y-55" value="" style="group" parent="Of2HctXFItvGuZZWUc3y-54" vertex="1" connectable="0">
          <mxGeometry x="-15.195530726256983" y="6" width="94.97206703910615" height="53" as="geometry" />
        </mxCell>
        <mxCell id="Of2HctXFItvGuZZWUc3y-56" value="" style="shape=cube;whiteSpace=wrap;html=1;boundedLbl=1;backgroundOutline=1;darkOpacity=0.05;darkOpacity2=0.1;flipH=1;size=17;rounded=1;labelBackgroundColor=none;" parent="Of2HctXFItvGuZZWUc3y-55" vertex="1">
          <mxGeometry x="-3" y="1" width="55" height="52" as="geometry" />
        </mxCell>
        <mxCell id="Of2HctXFItvGuZZWUc3y-57" value="" style="shape=cube;whiteSpace=wrap;html=1;boundedLbl=1;backgroundOutline=1;darkOpacity=0.05;darkOpacity2=0.1;fillColor=#FAE5C7;strokeColor=#0F8B8D;flipH=1;size=16;fontColor=#143642;rounded=1;labelBackgroundColor=none;" parent="Of2HctXFItvGuZZWUc3y-55" vertex="1">
          <mxGeometry x="34.94" y="1" width="53.18" height="52" as="geometry" />
        </mxCell>
        <mxCell id="Of2HctXFItvGuZZWUc3y-58" value="" style="html=1;shadow=0;dashed=0;align=center;verticalAlign=middle;shape=mxgraph.arrows2.sharpArrow2;dy1=0.48;dx1=14.78;dx2=14.78;dy3=0.48;dx3=14.78;notch=0;fillColor=#e6d0de;strokeColor=#996185;gradientColor=#d5739d;" parent="1" vertex="1">
          <mxGeometry x="313" y="126" width="30" height="14" as="geometry" />
        </mxCell>
        <mxCell id="Of2HctXFItvGuZZWUc3y-59" value="" style="html=1;shadow=0;dashed=0;align=center;verticalAlign=middle;shape=mxgraph.arrows2.sharpArrow2;dy1=0.48;dx1=14.78;dx2=14.78;dy3=0.48;dx3=14.78;notch=0;fillColor=#e6d0de;strokeColor=#996185;gradientColor=#d5739d;" parent="1" vertex="1">
          <mxGeometry x="362" y="273" width="30" height="14" as="geometry" />
        </mxCell>
        <mxCell id="Of2HctXFItvGuZZWUc3y-60" value="" style="html=1;shadow=0;dashed=0;align=center;verticalAlign=middle;shape=mxgraph.arrows2.sharpArrow2;dy1=0.48;dx1=14.78;dx2=14.78;dy3=0.48;dx3=14.78;notch=0;fillColor=#6a00ff;strokeColor=#3700CC;rotation=90;fontColor=#ffffff;" parent="1" vertex="1">
          <mxGeometry x="336" y="216" width="30" height="14" as="geometry" />
        </mxCell>
        <mxCell id="Of2HctXFItvGuZZWUc3y-61" value="" style="shape=cube;whiteSpace=wrap;html=1;boundedLbl=1;backgroundOutline=1;darkOpacity=0.05;darkOpacity2=0.1;fillColor=#FAE5C7;strokeColor=#0F8B8D;flipH=1;size=13;fontColor=#143642;rounded=1;labelBackgroundColor=none;" parent="1" vertex="1">
          <mxGeometry x="384" y="370" width="22" height="61" as="geometry" />
        </mxCell>
        <mxCell id="Of2HctXFItvGuZZWUc3y-62" value="" style="html=1;shadow=0;dashed=0;align=center;verticalAlign=middle;shape=mxgraph.arrows2.sharpArrow2;dy1=0.48;dx1=14.78;dx2=14.78;dy3=0.48;dx3=14.78;notch=0;fillColor=#6a00ff;strokeColor=#3700CC;rotation=90;fontColor=#ffffff;" parent="1" vertex="1">
          <mxGeometry x="385" y="345" width="30" height="14" as="geometry" />
        </mxCell>
        <mxCell id="Of2HctXFItvGuZZWUc3y-63" value="" style="html=1;shadow=0;dashed=0;align=center;verticalAlign=middle;shape=mxgraph.arrows2.sharpArrow2;dy1=0.48;dx1=14.78;dx2=14.78;dy3=0.48;dx3=14.78;notch=0;fillColor=#e6d0de;strokeColor=#996185;gradientColor=#d5739d;" parent="1" vertex="1">
          <mxGeometry x="755" y="479" width="30" height="14" as="geometry" />
        </mxCell>
        <mxCell id="Of2HctXFItvGuZZWUc3y-64" value="" style="html=1;shadow=0;dashed=0;align=center;verticalAlign=middle;shape=mxgraph.arrows2.sharpArrow2;dy1=0.48;dx1=14.78;dx2=14.78;dy3=0.48;dx3=14.78;notch=0;fillColor=#e6d0de;strokeColor=#996185;gradientColor=#d5739d;" parent="1" vertex="1">
          <mxGeometry x="592" y="565" width="30" height="14" as="geometry" />
        </mxCell>
        <mxCell id="Of2HctXFItvGuZZWUc3y-65" value="" style="html=1;shadow=0;dashed=0;align=center;verticalAlign=middle;shape=mxgraph.arrows2.sharpArrow2;dy1=0.48;dx1=14.78;dx2=14.78;dy3=0.48;dx3=14.78;notch=0;fillColor=#e6d0de;strokeColor=#996185;gradientColor=#d5739d;" parent="1" vertex="1">
          <mxGeometry x="485" y="482.75" width="30" height="14" as="geometry" />
        </mxCell>
        <mxCell id="Of2HctXFItvGuZZWUc3y-66" value="" style="html=1;shadow=0;dashed=0;align=center;verticalAlign=middle;shape=mxgraph.arrows2.sharpArrow2;dy1=0.48;dx1=14.78;dx2=14.78;dy3=0.48;dx3=14.78;notch=0;fillColor=#e6d0de;strokeColor=#996185;gradientColor=#d5739d;" parent="1" vertex="1">
          <mxGeometry x="944" y="264" width="30" height="14" as="geometry" />
        </mxCell>
        <mxCell id="Of2HctXFItvGuZZWUc3y-67" value="" style="html=1;shadow=0;dashed=0;align=center;verticalAlign=middle;shape=mxgraph.arrows2.sharpArrow2;dy1=0.48;dx1=14.78;dx2=14.78;dy3=0;dx3=14.78;notch=0;fillColor=#e6d0de;strokeColor=#996185;gradientColor=#d5739d;" parent="1" vertex="1">
          <mxGeometry x="1038" y="119" width="30" height="14" as="geometry" />
        </mxCell>
        <mxCell id="Of2HctXFItvGuZZWUc3y-68" value="" style="html=1;shadow=0;dashed=0;align=center;verticalAlign=middle;shape=mxgraph.arrows2.sharpArrow2;dy1=0.48;dx1=14.78;dx2=14.78;dy3=0.48;dx3=14.78;notch=0;fillColor=#e6d0de;strokeColor=#996185;gradientColor=#d5739d;" parent="1" vertex="1">
          <mxGeometry x="415" y="390" width="30" height="14" as="geometry" />
        </mxCell>
        <mxCell id="Of2HctXFItvGuZZWUc3y-69" value="" style="html=1;shadow=0;dashed=0;align=center;verticalAlign=middle;shape=mxgraph.arrows2.sharpArrow2;dy1=0.48;dx1=14.78;dx2=14.78;dy3=0;dx3=14.78;notch=0;fillColor=#6a00ff;strokeColor=#3700CC;rotation=90;fontColor=#ffffff;" parent="1" vertex="1">
          <mxGeometry x="528" y="530" width="30" height="14" as="geometry" />
        </mxCell>
        <mxCell id="Of2HctXFItvGuZZWUc3y-70" value="" style="html=1;shadow=0;dashed=0;align=center;verticalAlign=middle;shape=mxgraph.arrows2.sharpArrow2;dy1=0.48;dx1=14.78;dx2=14.78;dy3=0;dx3=14.78;notch=0;fillColor=#6a00ff;strokeColor=#3700CC;rotation=90;fontColor=#ffffff;" parent="1" vertex="1">
          <mxGeometry x="457" y="443" width="30" height="14" as="geometry" />
        </mxCell>
        <mxCell id="Of2HctXFItvGuZZWUc3y-71" value="" style="shape=cube;whiteSpace=wrap;html=1;boundedLbl=1;backgroundOutline=1;darkOpacity=0.05;darkOpacity2=0.1;fillColor=#FAE5C7;strokeColor=#0F8B8D;flipH=1;size=13;fontColor=#143642;rounded=1;labelBackgroundColor=none;" parent="1" vertex="1">
          <mxGeometry x="444" y="469" width="36" height="45" as="geometry" />
        </mxCell>
        <mxCell id="Of2HctXFItvGuZZWUc3y-72" value="" style="html=1;shadow=0;dashed=0;align=center;verticalAlign=middle;shape=mxgraph.arrows2.sharpArrow2;dy1=0.48;dx1=14.78;dx2=14.78;dy3=0;dx3=14.78;notch=0;fillColor=#0050ef;strokeColor=#001DBC;rotation=-90;fontColor=#ffffff;" parent="1" vertex="1">
          <mxGeometry x="910" y="332.99999999999994" width="30" height="14" as="geometry" />
        </mxCell>
        <mxCell id="Of2HctXFItvGuZZWUc3y-73" value="" style="html=1;shadow=0;dashed=0;align=center;verticalAlign=middle;shape=mxgraph.arrows2.sharpArrow2;dy1=0.48;dx1=14.78;dx2=14.78;dy3=0.48;dx3=14.78;notch=0;fillColor=#0050ef;strokeColor=#001DBC;rotation=-90;fontColor=#ffffff;" parent="1" vertex="1">
          <mxGeometry x="825" y="435.99999999999994" width="30" height="14" as="geometry" />
        </mxCell>
        <mxCell id="Of2HctXFItvGuZZWUc3y-74" value="" style="html=1;shadow=0;dashed=0;align=center;verticalAlign=middle;shape=mxgraph.arrows2.sharpArrow2;dy1=0.48;dx1=14.78;dx2=14.78;dy3=0.48;dx3=14.78;notch=0;fillColor=#e6d0de;strokeColor=#996185;gradientColor=#d5739d;" parent="1" vertex="1">
          <mxGeometry x="872" y="384" width="30" height="14" as="geometry" />
        </mxCell>
        <mxCell id="Of2HctXFItvGuZZWUc3y-75" value="&lt;pre&gt;&lt;span style=&quot;font-size: 14px;&quot;&gt;&lt;b&gt;64&lt;/b&gt;&lt;/span&gt;&lt;/pre&gt;" style="text;html=1;resizable=0;autosize=1;align=center;verticalAlign=middle;points=[];fillColor=none;strokeColor=none;rounded=1;labelBackgroundColor=none;fontColor=#143642;" parent="1" vertex="1">
          <mxGeometry x="310" y="323" width="40" height="50" as="geometry" />
        </mxCell>
        <mxCell id="Of2HctXFItvGuZZWUc3y-76" value="&lt;pre&gt;&lt;span style=&quot;font-size: 14px;&quot;&gt;&lt;b&gt;128&lt;/b&gt;&lt;/span&gt;&lt;/pre&gt;" style="text;html=1;resizable=0;autosize=1;align=center;verticalAlign=middle;points=[];fillColor=none;strokeColor=none;rounded=1;labelBackgroundColor=none;fontColor=#143642;" parent="1" vertex="1">
          <mxGeometry x="364" y="418" width="50" height="50" as="geometry" />
        </mxCell>
        <mxCell id="Of2HctXFItvGuZZWUc3y-77" value="&lt;pre&gt;&lt;span style=&quot;font-size: 14px;&quot;&gt;&lt;b&gt;256&lt;/b&gt;&lt;/span&gt;&lt;/pre&gt;" style="text;html=1;resizable=0;autosize=1;align=center;verticalAlign=middle;points=[];fillColor=none;strokeColor=none;rounded=1;labelBackgroundColor=none;fontColor=#143642;" parent="1" vertex="1">
          <mxGeometry x="437" y="503" width="50" height="50" as="geometry" />
        </mxCell>
        <mxCell id="Of2HctXFItvGuZZWUc3y-78" value="&lt;pre&gt;&lt;span style=&quot;font-size: 14px;&quot;&gt;&lt;b&gt;512&lt;/b&gt;&lt;/span&gt;&lt;/pre&gt;" style="text;html=1;resizable=0;autosize=1;align=center;verticalAlign=middle;points=[];fillColor=none;strokeColor=none;rounded=1;labelBackgroundColor=none;fontColor=#143642;" parent="1" vertex="1">
          <mxGeometry x="777" y="331" width="42" height="54" as="geometry" />
        </mxCell>
        <mxCell id="Of2HctXFItvGuZZWUc3y-79" value="" style="html=1;shadow=0;dashed=0;align=center;verticalAlign=middle;shape=mxgraph.arrows2.sharpArrow2;dy1=0.48;dx1=14.78;dx2=14.78;dy3=0.48;dx3=15.67;notch=0;fillColor=#e6d0de;strokeColor=#996185;gradientColor=#d5739d;" parent="1" vertex="1">
          <mxGeometry x="977.5" y="399" width="30" height="14" as="geometry" />
        </mxCell>
        <mxCell id="Of2HctXFItvGuZZWUc3y-80" value="" style="shape=flexArrow;endArrow=classic;html=1;rounded=1;strokeColor=#d6b656;endWidth=8;endSize=6.6;labelBackgroundColor=none;fontColor=default;fillColor=#0cdf4b;" parent="1" edge="1">
          <mxGeometry width="50" height="50" relative="1" as="geometry">
            <mxPoint x="973" y="605.5" as="sourcePoint" />
            <mxPoint x="1012" y="605.5" as="targetPoint" />
          </mxGeometry>
        </mxCell>
        <mxCell id="Of2HctXFItvGuZZWUc3y-81" value="&lt;h3&gt;&lt;font face=&quot;Times New Roman&quot;&gt;Conv 1x1x1&lt;/font&gt;&lt;/h3&gt;" style="text;html=1;resizable=0;autosize=1;align=center;verticalAlign=middle;points=[];fillColor=none;strokeColor=none;rounded=1;labelBackgroundColor=none;fontColor=#143642;" parent="1" vertex="1">
          <mxGeometry x="1006.5" y="580" width="90" height="58" as="geometry" />
        </mxCell>
        <mxCell id="Of2HctXFItvGuZZWUc3y-82" value="" style="shape=cube;whiteSpace=wrap;html=1;boundedLbl=1;backgroundOutline=1;darkOpacity=0.05;darkOpacity2=0.1;fillColor=#FAE5C7;strokeColor=#0F8B8D;flipH=1;size=16;fontColor=#143642;rounded=1;labelBackgroundColor=none;" parent="1" vertex="1">
          <mxGeometry x="512" y="556.75" width="51" height="34.5" as="geometry" />
        </mxCell>
        <mxCell id="Of2HctXFItvGuZZWUc3y-83" value="" style="group;rotation=45;flipH=0;flipV=0;direction=west;" parent="1" vertex="1" connectable="0">
          <mxGeometry x="681.38" y="449" width="75.95" height="95" as="geometry" />
        </mxCell>
        <mxCell id="Of2HctXFItvGuZZWUc3y-84" value="" style="shape=cube;whiteSpace=wrap;html=1;boundedLbl=1;backgroundOutline=1;darkOpacity=0.05;darkOpacity2=0.1;flipH=1;size=16;rounded=1;labelBackgroundColor=none;movable=1;resizable=1;rotatable=1;deletable=1;editable=1;locked=0;connectable=1;rotation=-1;" parent="Of2HctXFItvGuZZWUc3y-83" vertex="1">
          <mxGeometry x="-27.744539512774807" y="17.20000000000001" width="53.141984848484846" height="51.99000000000004" as="geometry" />
        </mxCell>
        <mxCell id="Of2HctXFItvGuZZWUc3y-85" value="" style="shape=cube;whiteSpace=wrap;html=1;boundedLbl=1;backgroundOutline=1;darkOpacity=0.05;darkOpacity2=0.1;fillColor=#FAE5C7;strokeColor=#0F8B8D;flipH=1;size=17;fontColor=#143642;rounded=1;labelBackgroundColor=none;movable=1;resizable=1;rotatable=1;deletable=1;editable=1;locked=0;connectable=1;rotation=-1;" parent="Of2HctXFItvGuZZWUc3y-83" vertex="1">
          <mxGeometry x="8.895674390968507" y="15.87000000000001" width="59.83939393939394" height="52.470000000000034" as="geometry" />
        </mxCell>
        <mxCell id="Of2HctXFItvGuZZWUc3y-87" value="" style="html=1;shadow=0;dashed=0;align=center;verticalAlign=middle;shape=mxgraph.arrows2.sharpArrow2;dy1=0.48;dx1=14.78;dx2=14.78;dy3=0.48;dx3=14.78;notch=0;fillColor=#0050ef;strokeColor=#001DBC;rotation=-90;fontColor=#ffffff;" parent="Of2HctXFItvGuZZWUc3y-83" vertex="1">
          <mxGeometry x="17.620000000000005" y="80" width="30" height="14" as="geometry" />
        </mxCell>
        <mxCell id="Of2HctXFItvGuZZWUc3y-88" value="" style="shape=cube;whiteSpace=wrap;html=1;boundedLbl=1;backgroundOutline=1;darkOpacity=0.05;darkOpacity2=0.1;fillColor=#FAE5C7;strokeColor=#0F8B8D;flipH=1;size=19;fontColor=#143642;rounded=1;labelBackgroundColor=none;" parent="1" vertex="1">
          <mxGeometry x="326" y="242" width="29" height="95" as="geometry" />
        </mxCell>
        <mxCell id="Of2HctXFItvGuZZWUc3y-92" value="&lt;pre&gt;&lt;span style=&quot;font-size: 14px;&quot;&gt;&lt;b&gt;256&lt;/b&gt;&lt;/span&gt;&lt;/pre&gt;" style="text;html=1;resizable=0;autosize=1;align=center;verticalAlign=middle;points=[];fillColor=none;strokeColor=none;rounded=1;labelBackgroundColor=none;fontColor=#143642;" parent="1" vertex="1">
          <mxGeometry x="905.5" y="198.00272727272727" width="50" height="50" as="geometry" />
        </mxCell>
        <mxCell id="Of2HctXFItvGuZZWUc3y-93" value="" style="html=1;shadow=0;dashed=0;align=center;verticalAlign=middle;shape=mxgraph.arrows2.sharpArrow2;dy1=0.48;dx1=14.78;dx2=14.78;dy3=0.48;dx3=14.78;notch=0;fillColor=#0050ef;strokeColor=#001DBC;rotation=-90;fontColor=#ffffff;" parent="1" vertex="1">
          <mxGeometry x="968.5" y="494" width="30" height="14" as="geometry" />
        </mxCell>
        <mxCell id="Of2HctXFItvGuZZWUc3y-153" value="" style="edgeStyle=segmentEdgeStyle;endArrow=classic;html=1;curved=0;rounded=0;endWidth=8;strokeWidth=4;" parent="1" edge="1">
          <mxGeometry width="50" height="50" relative="1" as="geometry">
            <mxPoint x="707" y="540" as="sourcePoint" />
            <mxPoint x="611.38" y="514" as="targetPoint" />
          </mxGeometry>
        </mxCell>
        <mxCell id="Of2HctXFItvGuZZWUc3y-154" value="" style="edgeStyle=segmentEdgeStyle;endArrow=classic;html=1;curved=0;rounded=0;endWidth=8;strokeWidth=4;exitX=0;exitY=0;exitDx=7.61;exitDy=3.36;exitPerimeter=0;" parent="1" edge="1">
          <mxGeometry width="50" height="50" relative="1" as="geometry">
            <mxPoint x="833.3599999999999" y="448.3900000000001" as="sourcePoint" />
            <mxPoint x="726" y="418" as="targetPoint" />
          </mxGeometry>
        </mxCell>
        <mxCell id="Of2HctXFItvGuZZWUc3y-86" value="&lt;pre&gt;&lt;span style=&quot;font-size: 14px;&quot;&gt;&lt;b&gt;1024&lt;/b&gt;&lt;/span&gt;&lt;/pre&gt;" style="text;html=1;resizable=0;autosize=1;align=center;verticalAlign=middle;points=[];fillColor=none;strokeColor=none;rounded=1;labelBackgroundColor=none;fontColor=#143642;arcSize=0;" parent="1" vertex="1">
          <mxGeometry x="653.6397029114676" y="429" width="50" height="50" as="geometry" />
        </mxCell>
        <mxCell id="Of2HctXFItvGuZZWUc3y-155" value="" style="edgeStyle=segmentEdgeStyle;endArrow=classic;html=1;curved=0;rounded=0;endWidth=8;strokeWidth=4;exitX=0;exitY=0;exitDx=7.61;exitDy=3.36;exitPerimeter=0;" parent="1" edge="1">
          <mxGeometry width="50" height="50" relative="1" as="geometry">
            <mxPoint x="919.3599999999999" y="344.3900000000001" as="sourcePoint" />
            <mxPoint x="815" y="300.6" as="targetPoint" />
          </mxGeometry>
        </mxCell>
        <mxCell id="Of2HctXFItvGuZZWUc3y-156" value="" style="edgeStyle=segmentEdgeStyle;endArrow=classic;html=1;curved=0;rounded=0;endWidth=8;strokeWidth=4;" parent="1" edge="1">
          <mxGeometry width="50" height="50" relative="1" as="geometry">
            <mxPoint x="1007" y="210" as="sourcePoint" />
            <mxPoint x="924.64" y="156.20000000000002" as="targetPoint" />
          </mxGeometry>
        </mxCell>
        <mxCell id="Of2HctXFItvGuZZWUc3y-163" value="&lt;h3&gt;&lt;font face=&quot;Times New Roman&quot;&gt;Gating signal&lt;/font&gt;&lt;/h3&gt;" style="text;html=1;resizable=0;autosize=1;align=center;verticalAlign=middle;points=[];fillColor=none;strokeColor=none;rounded=1;labelBackgroundColor=none;fontColor=#143642;" parent="1" vertex="1">
          <mxGeometry x="1012.5" y="547" width="100" height="60" as="geometry" />
        </mxCell>
        <mxCell id="Of2HctXFItvGuZZWUc3y-170" value="" style="edgeStyle=orthogonalEdgeStyle;rounded=0;orthogonalLoop=1;jettySize=auto;html=1;" parent="1" source="Of2HctXFItvGuZZWUc3y-165" target="Of2HctXFItvGuZZWUc3y-166" edge="1">
          <mxGeometry relative="1" as="geometry" />
        </mxCell>
        <mxCell id="Of2HctXFItvGuZZWUc3y-165" value="" style="shape=sumEllipse;perimeter=ellipsePerimeter;whiteSpace=wrap;html=1;backgroundOutline=1;" parent="1" vertex="1">
          <mxGeometry x="262.59000000000003" y="671" width="28" height="26" as="geometry" />
        </mxCell>
        <mxCell id="Of2HctXFItvGuZZWUc3y-175" value="" style="edgeStyle=orthogonalEdgeStyle;rounded=0;orthogonalLoop=1;jettySize=auto;html=1;" parent="1" source="Of2HctXFItvGuZZWUc3y-166" target="Of2HctXFItvGuZZWUc3y-171" edge="1">
          <mxGeometry relative="1" as="geometry" />
        </mxCell>
        <mxCell id="Of2HctXFItvGuZZWUc3y-166" value="" style="shape=orEllipse;perimeter=ellipsePerimeter;whiteSpace=wrap;html=1;backgroundOutline=1;" parent="1" vertex="1">
          <mxGeometry x="328.59000000000003" y="671" width="28" height="27" as="geometry" />
        </mxCell>
        <mxCell id="Of2HctXFItvGuZZWUc3y-180" value="" style="edgeStyle=orthogonalEdgeStyle;rounded=0;orthogonalLoop=1;jettySize=auto;html=1;" parent="1" source="Of2HctXFItvGuZZWUc3y-171" target="Of2HctXFItvGuZZWUc3y-177" edge="1">
          <mxGeometry relative="1" as="geometry" />
        </mxCell>
        <mxCell id="Of2HctXFItvGuZZWUc3y-171" value="" style="verticalLabelPosition=bottom;verticalAlign=top;html=1;shape=mxgraph.basic.patternFillRect;fillStyle=diagGrid;step=5;fillStrokeWidth=0.2;fillStrokeColor=#dddddd;fillColor=#bac8d3;strokeColor=#23445d;" parent="1" vertex="1">
          <mxGeometry x="405.59000000000003" y="671" width="64" height="27" as="geometry" />
        </mxCell>
        <mxCell id="Of2HctXFItvGuZZWUc3y-176" value="&lt;h3&gt;&lt;font face=&quot;Times New Roman&quot;&gt;Attention gate&lt;/font&gt;&lt;/h3&gt;" style="text;html=1;resizable=0;autosize=1;align=center;verticalAlign=middle;points=[];fillColor=none;strokeColor=none;rounded=1;labelBackgroundColor=none;fontColor=#143642;" parent="1" vertex="1">
          <mxGeometry x="1004" y="508" width="110" height="60" as="geometry" />
        </mxCell>
        <mxCell id="Of2HctXFItvGuZZWUc3y-182" value="" style="edgeStyle=orthogonalEdgeStyle;rounded=0;orthogonalLoop=1;jettySize=auto;html=1;" parent="1" source="Of2HctXFItvGuZZWUc3y-177" target="Of2HctXFItvGuZZWUc3y-181" edge="1">
          <mxGeometry relative="1" as="geometry" />
        </mxCell>
        <mxCell id="Of2HctXFItvGuZZWUc3y-177" value="" style="shape=sumEllipse;perimeter=ellipsePerimeter;whiteSpace=wrap;html=1;backgroundOutline=1;" parent="1" vertex="1">
          <mxGeometry x="509.59000000000003" y="672" width="28" height="26" as="geometry" />
        </mxCell>
        <mxCell id="Of2HctXFItvGuZZWUc3y-184" value="" style="edgeStyle=orthogonalEdgeStyle;rounded=0;orthogonalLoop=1;jettySize=auto;html=1;" parent="1" source="Of2HctXFItvGuZZWUc3y-181" target="Of2HctXFItvGuZZWUc3y-183" edge="1">
          <mxGeometry relative="1" as="geometry" />
        </mxCell>
        <mxCell id="Of2HctXFItvGuZZWUc3y-181" value="" style="verticalLabelPosition=bottom;verticalAlign=top;html=1;shape=mxgraph.basic.patternFillRect;fillStyle=diagGrid;step=5;fillStrokeWidth=0.2;fillStrokeColor=#dddddd;fillColor=#bac8d3;strokeColor=#23445d;" parent="1" vertex="1">
          <mxGeometry x="572.2299999999999" y="672" width="64" height="27" as="geometry" />
        </mxCell>
        <mxCell id="Of2HctXFItvGuZZWUc3y-192" value="" style="edgeStyle=orthogonalEdgeStyle;rounded=0;orthogonalLoop=1;jettySize=auto;html=1;" parent="1" source="Of2HctXFItvGuZZWUc3y-183" target="Of2HctXFItvGuZZWUc3y-190" edge="1">
          <mxGeometry relative="1" as="geometry" />
        </mxCell>
        <mxCell id="Of2HctXFItvGuZZWUc3y-183" value="" style="verticalLabelPosition=bottom;verticalAlign=top;html=1;shape=mxgraph.basic.patternFillRect;fillStyle=diagGrid;step=5;fillStrokeWidth=0.2;fillStrokeColor=#dddddd;fillColor=#bac8d3;strokeColor=#23445d;" parent="1" vertex="1">
          <mxGeometry x="680.91" y="672" width="64" height="27" as="geometry" />
        </mxCell>
        <mxCell id="Of2HctXFItvGuZZWUc3y-185" value="" style="group" parent="1" vertex="1" connectable="0">
          <mxGeometry x="971.5" y="529" width="38" height="61" as="geometry" />
        </mxCell>
        <mxCell id="Of2HctXFItvGuZZWUc3y-186" value="" style="group;fillColor=default;gradientColor=none;rotation=-180;" parent="Of2HctXFItvGuZZWUc3y-185" vertex="1" connectable="0">
          <mxGeometry width="38" height="27.111111111111114" as="geometry" />
        </mxCell>
        <mxCell id="Of2HctXFItvGuZZWUc3y-187" value="" style="ellipse;whiteSpace=wrap;html=1;aspect=fixed;fillColor=#e3c800;rotation=-180;fontColor=#000000;strokeColor=#B09500;" parent="Of2HctXFItvGuZZWUc3y-186" vertex="1">
          <mxGeometry x="4.222222222222222" y="-0.6777777777777778" width="27.111111111111114" height="27.111111111111114" as="geometry" />
        </mxCell>
        <mxCell id="Of2HctXFItvGuZZWUc3y-188" value="" style="curved=1;endArrow=none;html=1;rounded=0;endFill=0;" parent="Of2HctXFItvGuZZWUc3y-186" edge="1">
          <mxGeometry width="50" height="50" relative="1" as="geometry">
            <mxPoint x="22.8" y="-0.6777777777777778" as="sourcePoint" />
            <mxPoint x="18.57777777777778" y="27.111111111111114" as="targetPoint" />
            <Array as="points">
              <mxPoint x="32.08888888888889" y="-0.6777777777777778" />
              <mxPoint x="13.511111111111111" y="19.655555555555555" />
            </Array>
          </mxGeometry>
        </mxCell>
        <mxCell id="Of2HctXFItvGuZZWUc3y-189" value="" style="edgeStyle=segmentEdgeStyle;endArrow=classic;html=1;curved=0;rounded=0;endWidth=8;strokeWidth=4;" parent="Of2HctXFItvGuZZWUc3y-185" edge="1">
          <mxGeometry width="50" height="50" relative="1" as="geometry">
            <mxPoint x="43.261538461538464" y="49.193548387096776" as="sourcePoint" />
            <mxPoint x="16.953846153846154" y="29.516129032258064" as="targetPoint" />
            <Array as="points">
              <mxPoint x="17.53846153846154" y="49.193548387096776" />
            </Array>
          </mxGeometry>
        </mxCell>
        <mxCell id="Of2HctXFItvGuZZWUc3y-190" value="" style="shape=sumEllipse;perimeter=ellipsePerimeter;whiteSpace=wrap;html=1;backgroundOutline=1;fillColor=#fad7ac;strokeColor=#b46504;" parent="1" vertex="1">
          <mxGeometry x="799.41" y="672" width="28" height="26" as="geometry" />
        </mxCell>
        <mxCell id="Of2HctXFItvGuZZWUc3y-203" value="" style="edgeStyle=orthogonalEdgeStyle;rounded=0;orthogonalLoop=1;jettySize=auto;html=1;" parent="1" source="Of2HctXFItvGuZZWUc3y-202" target="Of2HctXFItvGuZZWUc3y-166" edge="1">
          <mxGeometry relative="1" as="geometry" />
        </mxCell>
        <mxCell id="Of2HctXFItvGuZZWUc3y-202" value="" style="shape=sumEllipse;perimeter=ellipsePerimeter;whiteSpace=wrap;html=1;backgroundOutline=1;" parent="1" vertex="1">
          <mxGeometry x="328.59000000000003" y="731" width="28" height="26" as="geometry" />
        </mxCell>
        <mxCell id="Of2HctXFItvGuZZWUc3y-211" value="" style="edgeStyle=orthogonalEdgeStyle;rounded=0;orthogonalLoop=1;jettySize=auto;html=1;" parent="1" target="Of2HctXFItvGuZZWUc3y-165" edge="1">
          <mxGeometry relative="1" as="geometry">
            <mxPoint x="214.5" y="684" as="sourcePoint" />
          </mxGeometry>
        </mxCell>
        <mxCell id="Of2HctXFItvGuZZWUc3y-213" value="&lt;span style=&quot;font-size: 12px;&quot;&gt;Z&lt;sub style=&quot;&quot;&gt;&lt;font style=&quot;font-size: 12px;&quot;&gt;1,2&lt;/font&gt;&lt;/sub&gt;&lt;/span&gt;" style="text;html=1;align=center;verticalAlign=middle;resizable=0;points=[];autosize=1;strokeColor=none;fillColor=none;fontFamily=Tahoma;fontSize=15;fontStyle=1" parent="1" vertex="1">
          <mxGeometry x="350.5" y="658" width="50" height="30" as="geometry" />
        </mxCell>
        <mxCell id="Of2HctXFItvGuZZWUc3y-214" value="&lt;span style=&quot;font-size: 15px;&quot;&gt;Z&lt;sub style=&quot;font-size: 15px;&quot;&gt;&lt;font style=&quot;font-size: 15px;&quot;&gt;1&lt;/font&gt;&lt;/sub&gt;&lt;/span&gt;" style="text;html=1;align=center;verticalAlign=middle;resizable=0;points=[];autosize=1;strokeColor=none;fillColor=none;fontFamily=Tahoma;fontSize=15;fontStyle=1" parent="1" vertex="1">
          <mxGeometry x="183.5" y="664" width="40" height="40" as="geometry" />
        </mxCell>
        <mxCell id="Of2HctXFItvGuZZWUc3y-215" value="&lt;span style=&quot;font-size: 12px;&quot;&gt;&lt;font style=&quot;font-size: 12px;&quot; face=&quot;Tahoma&quot;&gt;X&lt;sub style=&quot;&quot;&gt;&lt;font style=&quot;font-size: 12px;&quot;&gt;1,2&lt;/font&gt;&lt;/sub&gt;&lt;/font&gt;&lt;/span&gt;" style="text;html=1;align=center;verticalAlign=middle;resizable=0;points=[];autosize=1;strokeColor=none;fillColor=none;fontFamily=Times New Roman;fontSize=15;fontStyle=1;strokeWidth=0;" parent="1" vertex="1">
          <mxGeometry x="631.23" y="661" width="50" height="30" as="geometry" />
        </mxCell>
        <mxCell id="Of2HctXFItvGuZZWUc3y-220" value="" style="edgeStyle=orthogonalEdgeStyle;rounded=0;orthogonalLoop=1;jettySize=auto;html=1;" parent="1" edge="1">
          <mxGeometry relative="1" as="geometry">
            <mxPoint x="342.09" y="794" as="sourcePoint" />
            <mxPoint x="342.09" y="761" as="targetPoint" />
          </mxGeometry>
        </mxCell>
        <mxCell id="Of2HctXFItvGuZZWUc3y-221" value="&lt;span style=&quot;font-size: 15px;&quot;&gt;Z&lt;sub&gt;2&lt;/sub&gt;&lt;/span&gt;" style="text;html=1;align=center;verticalAlign=middle;resizable=0;points=[];autosize=1;strokeColor=none;fillColor=none;fontFamily=Tahoma;fontSize=15;fontStyle=1" parent="1" vertex="1">
          <mxGeometry x="324.5" y="783" width="40" height="40" as="geometry" />
        </mxCell>
        <mxCell id="Of2HctXFItvGuZZWUc3y-224" value="&lt;font style=&quot;font-size: 17px;&quot; face=&quot;Tahoma&quot;&gt;&lt;b&gt;ReLU&lt;/b&gt;&lt;/font&gt;" style="text;html=1;align=center;verticalAlign=middle;resizable=0;points=[];autosize=1;strokeColor=none;fillColor=none;" parent="1" vertex="1">
          <mxGeometry x="404.59000000000003" y="669.5" width="70" height="30" as="geometry" />
        </mxCell>
        <mxCell id="Of2HctXFItvGuZZWUc3y-225" value="&lt;font size=&quot;1&quot; style=&quot;&quot; face=&quot;Tahoma&quot;&gt;&lt;b style=&quot;font-size: 13px;&quot;&gt;Sigmoid&lt;/b&gt;&lt;/font&gt;" style="text;html=1;align=center;verticalAlign=middle;resizable=0;points=[];autosize=1;strokeColor=none;fillColor=none;" parent="1" vertex="1">
          <mxGeometry x="561.75" y="670" width="80" height="30" as="geometry" />
        </mxCell>
        <mxCell id="Of2HctXFItvGuZZWUc3y-226" value="&lt;font size=&quot;1&quot; style=&quot;&quot; face=&quot;Tahoma&quot;&gt;&lt;b style=&quot;font-size: 11px;&quot;&gt;Resampler&lt;/b&gt;&lt;/font&gt;" style="text;html=1;align=center;verticalAlign=middle;resizable=0;points=[];autosize=1;strokeColor=none;fillColor=none;fontSize=10;" parent="1" vertex="1">
          <mxGeometry x="672.91" y="672" width="80" height="30" as="geometry" />
        </mxCell>
        <mxCell id="Of2HctXFItvGuZZWUc3y-227" value="&lt;span style=&quot;font-size: 15px;&quot;&gt;Z&lt;sub&gt;g&lt;/sub&gt;&lt;/span&gt;" style="text;html=1;align=center;verticalAlign=middle;resizable=0;points=[];autosize=1;strokeColor=none;fillColor=none;fontFamily=Tahoma;fontSize=15;fontStyle=1" parent="1" vertex="1">
          <mxGeometry x="872" y="664.5" width="40" height="40" as="geometry" />
        </mxCell>
        <mxCell id="Of2HctXFItvGuZZWUc3y-230" value="" style="edgeStyle=orthogonalEdgeStyle;rounded=0;orthogonalLoop=1;jettySize=auto;html=1;exitX=1;exitY=0.5;exitDx=0;exitDy=0;exitPerimeter=0;dashed=1;fillColor=#b0e3e6;strokeColor=#0e8088;" parent="1" edge="1">
          <mxGeometry relative="1" as="geometry">
            <mxPoint x="200.5" y="671" as="sourcePoint" />
            <mxPoint x="811.5" y="671" as="targetPoint" />
            <Array as="points">
              <mxPoint x="200.5" y="631" />
              <mxPoint x="811.5" y="631" />
            </Array>
          </mxGeometry>
        </mxCell>
        <mxCell id="Of2HctXFItvGuZZWUc3y-231" value="&lt;h3&gt;&lt;font face=&quot;Times New Roman&quot;&gt;Multiplicative recombination&lt;/font&gt;&lt;/h3&gt;" style="text;html=1;resizable=0;autosize=1;align=center;verticalAlign=middle;points=[];fillColor=none;strokeColor=none;rounded=1;labelBackgroundColor=none;fontColor=#143642;" parent="1" vertex="1">
          <mxGeometry x="999" y="625" width="200" height="60" as="geometry" />
        </mxCell>
        <mxCell id="Of2HctXFItvGuZZWUc3y-232" value="" style="shape=sumEllipse;perimeter=ellipsePerimeter;whiteSpace=wrap;html=1;backgroundOutline=1;fillColor=#fad7ac;strokeColor=#b46504;" parent="1" vertex="1">
          <mxGeometry x="974" y="642" width="28" height="26" as="geometry" />
        </mxCell>
        <mxCell id="Of2HctXFItvGuZZWUc3y-235" value="" style="shape=orEllipse;perimeter=ellipsePerimeter;whiteSpace=wrap;html=1;backgroundOutline=1;" parent="1" vertex="1">
          <mxGeometry x="974" y="679" width="28" height="27" as="geometry" />
        </mxCell>
        <mxCell id="Of2HctXFItvGuZZWUc3y-236" value="&lt;h3&gt;&lt;font face=&quot;Times New Roman&quot;&gt;Concatenation&lt;/font&gt;&lt;/h3&gt;" style="text;html=1;resizable=0;autosize=1;align=center;verticalAlign=middle;points=[];fillColor=none;strokeColor=none;rounded=1;labelBackgroundColor=none;fontColor=#143642;" parent="1" vertex="1">
          <mxGeometry x="999" y="662.5" width="110" height="60" as="geometry" />
        </mxCell>
        <mxCell id="Of2HctXFItvGuZZWUc3y-237" value="" style="shape=sumEllipse;perimeter=ellipsePerimeter;whiteSpace=wrap;html=1;backgroundOutline=1;" parent="1" vertex="1">
          <mxGeometry x="977.5" y="714" width="28" height="26" as="geometry" />
        </mxCell>
        <mxCell id="Of2HctXFItvGuZZWUc3y-238" value="&lt;h3&gt;&lt;font face=&quot;Times New Roman&quot;&gt;Conv 1 x1 x1&lt;/font&gt;&lt;/h3&gt;" style="text;html=1;resizable=0;autosize=1;align=center;verticalAlign=middle;points=[];fillColor=none;strokeColor=none;rounded=1;labelBackgroundColor=none;fontColor=#143642;" parent="1" vertex="1">
          <mxGeometry x="1004" y="697" width="100" height="60" as="geometry" />
        </mxCell>
        <mxCell id="aFIkd2kD5AfC_N174I0f-7" value="" style="endArrow=classic;html=1;rounded=0;" parent="1" edge="1">
          <mxGeometry width="50" height="50" relative="1" as="geometry">
            <mxPoint x="829.75" y="685" as="sourcePoint" />
            <mxPoint x="880" y="685" as="targetPoint" />
          </mxGeometry>
        </mxCell>
        <mxCell id="aFIkd2kD5AfC_N174I0f-9" value="" style="shape=image;verticalLabelPosition=bottom;labelBackgroundColor=default;verticalAlign=top;aspect=fixed;imageAspect=0;image=data:image/png,iVBORw0KGgoAAAANSUhEUgAAApUAAALVCAYAAACRCRrLAAAAAXNSR0IArs4c6QAAAARnQU1BAACxjwv8YQUAAAAJcEhZcwAAFxEAABcRAcom8z8AAO5DSURBVHhe7J0HuBRF1oZ3TTSYw5qz7qobzJtcfzeqa845YlYMKDlnBEEUQcWIOecsiOCawYxZTBhQUZGcPX+/dbu0bXsuM0NPuHO/73neh8uE7urq6lNfnaru+UUxMkmSJClvRaFTkiRJSiqKk5IkSVIeikKnJEmSlFQUJyVJkqQ8FIVOSZIkKakoTkqSJEl5KAqdkiRJUlJRnJQkSZLyUBQ6JUmSpKSiOClJkiTloSh0SpIkSUlFcVKSJEnKQ1HolCRJkpKK4qQkSZKUh6LQKUmSJCUVxUlJkiQpD0WhU5IkSUoqipOSJElSHopCpyRJkpRUFCclSZKkPBSFTkmSJCmpKE5KkiRJeSgKnZIkSVJSUZyUJEmS8lAUOiVJkqSkojgpSZIk5aEodEqSJElJRXFSkiRJkiRJqlFFtq+0ivYlSZIkSZIk1agi21daRfuSJEmSJEmSalSR7Suton1JkiRJkiRJNarI9pVW0b4kSZIkSZKkGlVk+0qraF+SJMU0f/58+/DDD+3555+3Tz75xBYuXBi903A1bdo0e+WVV+zll1+2qVOnRq+WRtTf+++/by+++KJNnjw5ejU/ffXVV+57EyZMcNuRJKm8mjNnjo0bN84eeeQR++abb6JXpYauyPaVVtG+JEmKCQPWq1cv23LLLW3w4ME2e/bs6J2GqxdeeMF23XVX23nnne25556LXi2NvvvuO+vUqZNtv/32dt1119mCBQuidxate+65x3bYYQc76qij7PPPP49elUqh77//PvpLkn4U191uu+1mq6++uj3xxBPRq5VRIW0012d5PcniqL7vJ/eTCxIV8f8XKr+NQhTZvtIq2lejESeBDNQ111xjp512mh177LF21lln2dVXX22fffaZ+0wxJ1iqLX377bd23HHHcRFa69atbdasWdE7lRVtc8yYMXbOOefY8ccf/wPNmze3k046yc477zxnHtP0+OOP2xprrGGrrbaajRgxInq1NPr666/tsMMOc/XXtWtXmzt3bvTOonXFFVdYkyZNbOONN7Z33nknelXKQl988YWNHDnSzj33XDvjjDOsRYsW7vzceeed9vbbb1dNO5cqq48//th+97vfuev34Ycfjl4trxiYDhkyxFq1amX/+9//cg5Myapee+21LiYyII1/jlmSyy67zM4880w7/fTT7eSTT3aceuqp1qNHD7v//vvto48+WmSfz3Yw1yQY2BbeoUOHDm6//rph9mfQoEHuPa4rD9cZHsNfbx4+d8EFF7i43L9/f1f+119/PdpjbpHwIM63bNnSzToVIjxfyRXtq1GIaUyyJ9tss42tuOKK7oJZcsklbYkllnD//+Mf/2jt27eveEc2adIke/bZZ+29996zefPmRa9K5dSUKVNc4KFtdOzYsWo6WwImbfiXv/yla7/LL7+8/epXv3JGsWnTprbMMsvYb3/7W+vTp49rR3ERFDfaaCNbf/31bdSoUdGrpRFTZgzYuL66detWkKkcPny4rbzyyvab3/xGpjIjEUc4/ww+NtlkE9d24lDff//7323YsGFuQFVJsfThwQcftIkTJ2qAXyFR91tvvbVrG48++mj0ann1xhtv/GBsBw4cmLMvpL3+7W9/c5/DrMVjzWuvvWbbbbfdD+2cfh58/Fx33XVt//33d9P8ubJ+GDf6Al+WOEEQ2E477WQXXnihjR071v70pz/97DP1seOOO7pB9FZbbeX+z3Euqs0zy7Tccsu5zxcax8PvlF7RvmpeXCSMFOh0Oez/+7//sy5duriRAtOce+65pztRq6yyit1xxx3Rtyqjm266yf7whz+4ERWZBan8qmZTycidoIhBHDBggN122212yy232NChQ+2///2va99rrrmm3XjjjdG36lQpU9m9e/eiTOVmm20mU5mRRo8e7WIebYMYd8IJJ7gsEPGPDAlTnbQplh28+uqr0bcqo1NOOcXWW289u/jiiwtqN1J2qgZT+dJLL9m2227rjBuxLZepZFbkr3/9qy211FLWpk2bn7QZDKE3lQcddJCbobn33nvthhtucBlHYqH3A0899dTPDB3Xwt577+0+w/YPOeQQ69evn7t28A1cNyussIL9/ve/dxnd++67zy666CLHJZdc4mYEMLxcWwzayHTyXd7HQPpMKTGdWMnSJP5fn3r37u0++5e//MXNuhai8DhKr2hfNS0W/tPYyOQQUDkpH3zwgc2cOdM1QNbLcSJvvfVWZyDIElZSNEYaDaMYpiGk8quaTSVtmfZBIORmGEQwJOiOHz/e9t133x+CaDwQl9NUkj2QqawOka3xmRzWuDJFyBSaF22HpT++o2NGp5I68MADXVkZ9EuVUTWYSm8I8zGVtO80U8mNid5U0rbj4nPXX3+9G8Bg+pgOj6+dpw4OPvhg912W4lx11VU/y+J/+umnzjf07NnTzSwmNWPGDDv77LNdHGT6PVcW8u6777Z11lnHxT2MaS7hWf7xj3+4fokZIP5fiMJjKb2ifdW0OGGMJjhcprdzGQRO+PTp01M7QL7z7rvvurUddMisa8PwpX2W7WBSWSvhRxKsD2Fah+/SudMY4yL1jkF45plnXCNs1qyZu0mErCX7ZH9pNy1gfug0yEQ89thj7vus/0hbf8JFyZoNtvXll19Gr/5Ub775pnuf8sWnA5hKZSRHJ88xc3yYb17DtNcnLkSOgXJSBuBiZ9TI3dXJfVFXrAukrp5++ukf1rqmic9SJspBfVP2Rd1xzBocAgDngX3wXUbF1Im/6OszlZQf80adM5Jle+VS3FQy8iXwxcXd0gQb2jpZp3jZ6jOVHDd1+dZbb/3Qxv3x8Xp9oi0wJcN3mALiGiLQsya1PlPJ52gTfO/JJ5/8wUAS6BdlKjk/lI0y8n3OX6472mmfXBt+7RPXkW+7/J0r0NeCON7OnTv/0DGydrI+0amm1QcmlHPELM7tt9/u6jwZw7zYJ23ogQce+OE65LOs5SSjzrng3MfFfmmfZN3JOlHeAw44wGXb2SdZoLRpea5ZTA/f49iIF7naAW2S7dBmkvtHvMZ7TIUm4wdxis6eeM71z3Vy1113ueOs7/rgeqXdkR2jrSPqkgwVsZ3yJo0B1zRl4JgoT33xhXojZj/00EM/1AExsL4ZLo6T/VJ+DBFl4/pJGqpcphKjxDlkXxxTqa6frE0l6xCTom8h28j7rJ33gy2OifWRbHOllVZyiZ76RJ2kTZ/TFln7SBxkaj7XMeAl9thjD7c/4ne8v4mLa2Tttde2VVdd1Z23QhUeZ+kV7atmxQXL9A6HyprJfBbCJkUAYR0bnTgnlKlF1mLstddebpE7HVS8QdGx0yDXWmst10B4H6PIuglulOD7BEw6NS8aEevgCPwYYEZOTNWzXo7tAAHZX8DsjyCP8eG42C6wXurII490o7LkyInO9cQTT3THwALjNNHweZ81IvFgRvDZYost3JQB5dhvv/1sww03dPVAuesTQe7Xv/61HXrooa5jYQqAda3cWci6Oda0cIcwFyDraLi4WRfI8WCC+B5rrOKPl+H42S7l/ec//+nKQr0Ca19Y6sAgICkufm7KYrTHCJXPsw8MPKNN33HlMpXslwCOYePYyaakdVClUtJUJjPZlIU6ob3TPuMBNpeppF6pX6YdWR/E+9QL9e/XGeeakqFz4fxtuumm7vMYQdrIzTff7O7eJkimmUoGUMwYML3F9zbYYAN3TjCULFrHVG6++eapppJMG0tDKBuje64Nri0yARiZZCdMB85naBO0XaawqAfaOW23nOev3CJ2UcfEE9oz7bpQ0XmRdea6Ih4B1+0+++zj4gSzPnExAKWO//znP7sBPbGGjpsYwHmlrXAu4ucWE0RMYQkSN2nRfhlYs1aYDpRzjfHxos1eeumlLqtJzORzxBOuY9od+0yaUAY8XLdk+NNuZqNNkuUnNmE+42aJuuP4iV3E1n//+9+uHvgsbS6XaItMd9KW6Qu4BrmxjnZLnKfdEpP9jXPEFqZbiWccNzGX9zGOcfn4z80eXLN8Pn5uGNB5ExsX8YL4yvIqrnHqjbJwHPEBRy5TyXWMOaOf4TxybZXDVHKuc+0HU8+s3qJMJXElKdoqcZJ4SizwxprBCu2b7+2+++4/G7znK643btJh+5yrXAMEzifnxe8vre9CTLnTbvAPyesuH4XbL72ifdWsaBw+hU2DyzUCyCVG2DQuAt3SSy/tLr4jjjjCTS1y0dPgCVKMZL0YjWA22SfTTQQGLnQaAh0n3yHIY4a4cBCNikBGx84+uEAIEASYww8/3O0zHggZIfM5ysTNGmyXwE/w5jUCMuYynt3kAvJTo7mMoK8rGjgGzIvUP8sHOBaCK39jBlj0zF2+9QUWjmvZZZd1xoGOBjNGIKQO+Zu6IMgxouORNxwPwZ/64jsYO44Pw+nFcWE22S4BlXNEHf3rX/9y38eQH3300e5Zh3FdeeWV7rxhMgjuZHG4a5pOAvPkR/hJU+mDAZkDH2w5Bs4f565cSk5/c3zsn9fpaMlw+JEso/v4ecllKsm+EFhp497kH3PMMW77tCPONTd4xDtptssAgXU9nD/OI22L+ifo0eHQafHdpKmkjjGAbJv6ZT+0Bc4jZaOMvM46paSppOOjg2a7tAkGe1xrtHteo5OmXHFhJDlfDFRou9Qd9cNSGMwpmY5aFecZI4d5IDNWiDjHGEoGCtQf1wzXOtcF59rHP+JMfDaB6XNiG+2JDBLnlHZCXdM+iE9sL75mnFjDDQsMiGgHvE98wxxxfTLg8x07Mfz88893x8W5xKxivOLbp2yYuHgnTsxkIElc5TpJiowiN1oQUxjkxq8drgliCu2LmIeBpX0S32lfuYRJwQjwXdotsYPycn3R5omhHCttmfLTPjHJvEfcp6y8T78Qf14kmVTqnTpgm3yWzxC/qW++Q0xkRsWLvoy65Jwx0GAdH/XKv5yn+BrsNFPJ4Is1gmTuvIGrb0ZocUVspX45n9QhA1v6MNqah/ZDosj3hfWZShI9cZHE4MY0ziWxioy4P+cMYBjIMMhhIJErw7go5WsqEW2Sc0ebYJCflM9mUv8MvuPtM1+F9VB6RfuqWZHm5yTR4TDCime7FiUaBJ0pHRwXGBkSsn2kyGmQTAP5Cw9D5xsMDRDTRmdLYP3Pf/7jpk4ICsDfBGre53N++oOyEVxZPE9gY/TFaJP9AcYBMYoh+PF9zAAjcLbLRc9Fxs0bvkMnk+DFe9409u3bN3r1p8KY8X7btm1/YioZ+RNMqQsCNouVCTx0ILmm0r0YhfNdLixGuIz0CQjUIQ/YJaCyT4ICppMLhnrmfeoKg0I90pH4gMF7rIHBJFIGzhXHj/HhvPgRePzixDxwfNQb32UbbI/j5D224euYv72pxLhwTgk0dCSUFbNPFihrLSpQeFNJUMdw05GQBSc7SMdHgKSuMcvJTE0uU8mx0w4JsHQ8jPypE9rU5Zdf7jo2OqJ45pusDiNq6oKBgJ8mZ1tMq5FF5T3acdJUsnbPZ+HZPt/hu7R1jsV3pGSd4qYSA73LLru44yPrQBthu5wbys21yvcYTLBNL4wor3Mu+S5mgwBNu6FT9Oe81kQ8oX6pa855mpGqT8yw+LWYmBay0j7+Ud/EGdohbYPHtnjxHp2fP/8YPpakcI7JrjAIIDbRVsl0eVFeDKPPEDGwJWZxnfI61wYxllkTzCEdfrt27dyAnm3zOYwhNyHxfdo62TwvZoaIJQyA0h6pRVsj5jLYwGDFr0UGsMQvtos5ZKqZ9oppo05yCVNJWyV+8V2m9olPXFscG0aaQSD1yPaJz5g4zBPbpa0ySOZ4GdB6cQ6I7WRBufb8eSEWUzY+z3FQV16cT46dvoEy+P6KMnJtx+NF3FT6QRozPH4gQUxMxpeshanE2BGvGRDSLkg0EOc8ZKppa7Qz2jn9VjzWYCoxphwHAyKOm0EA/QYxk7qnLfK9+MCIzzCI4niZdSnGwCH6kXxNJf0XXoGyYvbjx4E4D7RpEju5Zo4WpXDbpVe0r5oV6+xocLh77iYspHEwdUPDIvOSNl3MSaeD5H1Gn1zciOBIJ031cmHSsOOiDH5Knmmi5FpJAg0BE7OVXDRPVoppQ4IQ2b140PQisDC9xPbJKHjTFzeVjDjTVJ+p5DgpF51CIRlfAjiBiFF12qgPg8dFxzkiIMZFwCN4UCayW/Ey5SoD9UnwJqhiUL0IvP74qcP6MoxxU8kUNx0ImU06BwylzzDnEueYQE1Qp+7yhYxwcko7LgwQ5wYDThugw+G88K/vuDhuMjwsD4grl6mkrH7aJymMsw/srNf1YlsEXPYb35YXWSGyIQT6uKmk4ydLQzmpX8xAXHS2BGGOj47Em0rKSEePEcGwYlySYnBFHXCM/O3lTSVxgM6QzrcxiDr3xi9XrMgl2gOGhuuW7Fx86tmLc4VhpG4x+16cG55CwLWD0SfuxMXggLtcKReD02TnSUxkm8SZpOHH7PA+2+ZaxnwlhdGjjRBTmGXwWhxT6ctEPRbydBDqkWPkOiARkNwvbdHfXUyZk1PWrFUmC0dsTJaJ76bFMMwe9c+1yVpA/x2uSfozBtvMHtWnpKn05SAOEA/rM9JZyZtKypAPXPtpppJEBe9jHv1yCgaXtG3OJ31Sso0yGCOuYsDru3FmUSrEVCLiE5+lzPFZNr5HIojZHZZ3FNL/xhXWQ+kV7atmRcdKA+ICY2SXb1aCC5F1HJgoOjd/l21SBGreJxDxQHUUN5WsE0oTDZn3yfIkHwtAxoj9EmSS6ya4YJgmoeERVOMmy4tAQ1k4brI9ZGvR4phKtsdFRmMvdF0qgRSTQHbWlyUupmm54DnetEckcKERlAnsyU6E84RRoSNjJE7WguBL4CQQcw69CPBMcdOZMcWGicPUJDs1RDAgCPBZMl9kKmhDdIbxKaVcYruUmyw5Roh/FwUBjzqqr/P3mUrOP+2O4Ee2x69dwwgwhUaApW3FM325TGVcHLe/8YZOmLbolyiw3gtR55hyXsM4Yi6SYjvUG+WMm0q2SbaaAQZ3eaeJ1zl31IUvP/XJ1CjHRSaK65q2REcJnHtvOqnHeAbMm0qmwfzArzGIOvc3GzDoJdOYrzAmDKKoN6ZHcw06aHO0A7LmPlaR8eE64Zrm2k6KbXMOKRfXSPJGFaZ+2S/vJTtPlsBg/Ni2j7dJsT3KzDYwbH7gsjim0sdNYkKyvPWJeiPWYmCIrWnTxZgEto1Zi+8TEbM5BvoDZtqSpoR4QH1jnpiVAWIC8Y3vMKjwfR7nx2eBibXEDLaf1idiKjGRfJZlSSxf4HxxLScHgrnEeWbJBTNMzL4Bf9MmmKFKHmtSfvqb2E9CASPMeUuCySfm5Zr+9qaS46FNcQ69WSVesNQhKTKZ9J/EErKbiyprLhVqKslScy1R1yQYvEgMEc95nTW89SVE6lN4zKVXtK+aFdkVUtw0TDJiaQYiTZx8Rsp0YpiZXBcSgciPipmuQVyk3lSSrk8TGU7eL9RUYqrYJiMWUuS5GjuNE2MVz9ZlYSpZe5jLYOcSFz4XPGn7eLbLiykcgi7PCk3LQDHSpxPBoBPsvPiboMmaPEafBACmTjEkZDJ4LXnXHgGYaQ9MDXVIMGIKDcMVP15vKik3FzkBhnqhLAwaFiU6HoICGQM6WDI5i4J1aATP5DmPK24qWdOZnAahbARfzCOdPQMQH4DqM5VkJAn4GC/aDHUJnHPqknrwSwkoA+XkdZZfpGX+6FDIUiVNJQGRbdI2WU6SJtoa5wdT6Reskxmh82V7mHtfPs6xP/eUm3aEaaAj8PKmEsNQaNttyOK8My1N7CPjkpwFqE/EGb/+mpmTXCKLQ/0zKOI6R95Ukhnm2k6KQQimkjbFMo1CTCWDRpagcD2mxRJE7OY6pa0wfe8HJlmYSmL8ooxBXElTmcyIcY5YG+ljS1LEIeqD+Md1FDf3zGIR/5j+ZR0m5wCTRPxje9RR3FTyL4Mv1h9TN3yW65frHpMXj2txU8msD22I8xmfgl+UqE/WxtOHcvzA3/Rt9MWLiqOYSuIRxx43WEmxHfpKDFeaqfTT3wy4eY94xes++4xhTiYKmP7mmuGYSUyUY00lYpbNtzWm9n1GmEQD7ZY178kbcAtRuN3SK9pXzYq75vxIhem2fKe+OPkENS4mslSLMpU0fEweiptKpm7TVGymkoBNsMcQsXg5l6kkaNIIMdR0qigLU8lC+EIbtTeVrEVKy1R6U0lwTE73ozRTSaeHOaSeyMIQmPnZLAYCTP1z7BiTtEdBUIcEDdbYEFgJdJgtMtn+mL2pJFCRsaFe+BxTQskbQXKJdkA7yhc6DIJXfaNitlmfqUQEIrKEnEc6d2/Uc5lKtoFh4/iYDuJ4fV1iSmlDSVPpDTfvp2VuMJVpjxTCVBKoyVZSnjSlmUpG6pwDzgfHTfkwJFyjHv9/MiHx6TlvKjEYixOQG6Jo59Q3xq++jjkprhG/ZjZXRhCRvfZTqn7JQdxUMnhOivWutLFiTCXxg44Vw4QRShNtzWdoGQT79p+FqWTNbyFTj3FTybrU5ExL3FTSZySFAY8nEbyp5Ppiap+ycn1ybTA9Sr+CeWIAT2wku8n1GhfZXrKZfr0sn8NAxh9REzeV9DP0oQwi6c/yHZhRRuoR08r5AJ+15FwsKtvmTSV1xzWdy9jRnjiWXKbS36jDvuMi/mA4GXwn77dg/THtjDZK/0N8LkaFmkrqhHND++a8Uk+IGMrxMZhnm8UqrIfSK9pXzQojxcXModLwaGT5iIbJiaSj5YIiUKaJkR8jZzpBH7RpnItjKv20O5mr5HscDyMYGimBOdeFxi8GUCbKxvQg4rs+YKeNipEPcNVqKn0HwbQbx8c0D0aF4MsFSUdAQMSQU976ni+GUSGrh6HigmU62d/FzyAifqMO59mvfcLUV8qcJE1l2nIBAhcdAWWlzXPzAsplKslm8FmmsqkPv1aLumSpA5kK9ucfnUIZ6Fz5DhnWtEfy0KHQlpKmku3TEZIF8IOdpLghwE9/e1PJtCFGmfPBTXG+c6WMcdLUmE0l7ZlBF/WGyc93LRzmh+uNesO8xDNkXrQRpgm5dmhXfoDDNZqFqeS9tEwlAx/iATEuTSyHoSNnG1yrfhtxU5k2MKRtMOtRzabSX0fcPMI1gqFnVgqj4c0j2S5iKd9JM5WIY6NP49qgD2L/GFO//p4Y6tdUEr9ZbsLaWq5nlhDFb4SrTxxfGrmu1biyNpXJRwrR7pil4j1mlOI3XtIW6Ot4jxm0XI/4WZQKNZWIfRNXOW6uH+IxXoAZGpYTUH/FKjye0ivaV02LmyUIQhwu60Po8NJEo6Vh+QufaWOm1chmxddoeWEeMURcvGRevGFdXFPJlBUNiAsledMGZcTw0UjT0vaIDpgRDdvHCPnj4XW/fodtJEW90Jj9+9VoKr25J0BQTgxPMmiS3WWUnTSVnJe0wOQfH8E+/MJ2jFLcVBKoeKQTgZX90kEkb7Aqh+KmEuPsM7dxEcj8jWC0L1/OXKbStxVuukhm8qkbOnFG895UItY98hoZMD+9GBcmnPPNoCxuKjG4ZIOoV6bAkkGWNkgQ9ibfb5vOmc/TjnjdDy7yUWM2ldQ7JoDjZ3qU2JJmMhBtniwWnTTXPm2I88D5Sqs3zpXPiNPx+kxPlqYy2T64eYEMKu0/rb0ibnYhLtDGyLZ7A0Nmk+uXY4rfwOdF1pXsFG262k0lMZPvcG0mTQbXO22d+s9lKuOiLnzGk+sWxU2lX4tLsoMMGoN5so5pMxRZqtSmErEEh+OmrqhT/13qjPNB/KLuiWG5jpc2im9I6w+KMZWcT9aPE19JIJGsYgkWg/58k2K5FNZD6RXtq6bFhYxBoNHRQDi5ZO9oBGSkMFs0CqadGan6jCMdGv+nmriwCUoEFBo3o2GmA73JILh68f7imEo/CsXMYgRozGQYvMkj28OFQIPH/GGi2CcXBMfCBUgHwtR9/JFCbIdAzX7JvhJACHo0dB75QQYII0ZjZgRXzaaSKRTKyTbjFxoBhmkOLmICZdxUknVjfRjHysVOfXHsjPSZLuL4fPaDzsqbyvhzKsmQkkWmDuPrlcol9se6Lo6PTCWdLOfen386IY6RbAxljD86KpepZHt8ltFwfJBC1oJjp53xvp/+RtQ561F5nYEagx/KQBujE+J64Zz7gBwP1j47gJGnLdMGMSRsg/ZJAOXcJh8pRDsi6+a3SfbAX4+cH9o+xp/rNB68G7OpRAwMfMfK+ccQMIXJOaEDo+6pS5aTcCMHsRFDxQ0QPJqG+qZDpj14o0X9sh1MBh0ysdNrcU2lH+QQO2kTvozsm/NNFp4yMZAnYeDjFO9TRn8jI+/7WRrEgMY/soV90Bb5Dv/SDhmk8T2y6GSE/LGiajOV1Ddl5VqO35nP/ui/SEoAMQpRfzwJhXW11JE3ovzLU1E4V8RAjByKm0riIyJm+nPDDJG/ca9UKoepxAP4m5dOOOEEV99eZN59FhcjzaCWG/0oh2+T9L2cF9appt0lXoypRJwn+n/qmQESfRPfz/cmqVwKj6X0ivZV82IE7tdkcdh0XIyuCUAEDB73QIDEMMTXHnHBsV6IRoGBJAgy+uPiYlRL50fDi6/vodHR0NgPmcI0YYp4nzU/yXWTGC/fYVNG1o8RWHynjuFh3SBBg2CAGeCCwXyRicRMcSFybMlpe8wEo1u2TRClc+ZOXgwKwZTpId4jeMZNJVOSGDs+V+hUAOtT2CZB3q8RiQuDTf1Sj2mZN4It541F5d50Mh2D6eB71DFmj+wZj6th0Tr1Qv0QjLyY8iJwsiSAhwBTXxw/557y0Yn5Y+Pi5TO8jgnyHQmDCUwYdUG74JmMuYJdKUQH6LOQBBzuGOXcA50XAwM/oKC+4gMWFtljNpkyi98JzF2g3oRyjdChUpcsZOd1TCXmOp6txwhwXtgP5oB1x3RgtFWCOO2XDBfXB2WMB3raANlG9sfom2wSbYA2TifJgIdsEQMGP3WPyKSxD9++ydSzba5HykLbZ7/cIBSf5uWmHfbFdoudxmrIogPkuud6px6IcZhFOmLOm/+1G84lHZh/+oCf8WCAy7XEAJtrgTV7ZAt5jZhJTOSzXphK4hrtJj6o9cIEcI5oGwxakqYSI0oZuea5nrkOmcb2g0fWyfuH3dPxEiPp8CkbbYLjIAbQhuPXJh06Ay6uW77L9UHbY/C42WabufjO9rjZj8Fl3FSSMaLuMAiFmkoGdhxL2tMrODes7WbbmOWkMDkcO8dErPKmhMET1xfxj/iPyWQpAtcvcQETSgz0Roq4wQCb97hGqFPKxXmgLXCu+Ky/TonDvp+IP9+UeOJNGNthkBavpyyFqcTYUnckHuozlZx3ysRd/0lT6c0x8T5N1BvtgdiTfJYrZaB/If4Rc6grBiZk02nj9Gl+gJPLVPrH+/FM4XxNJfGLeMX3gO2TDFlchdsqvaJ9NQpxATAVxB1pdKxcdAQvRiEEVdZV0LnFjRgXPVMhNCQCDkHUTxXwHaZg4pkyxAXsAyMBI01MJdAYCRjJKW7MHNNUXLSUkQ6WYBDv1Ak2dKY0PMoPTNVjAjBbBMukoUQcD5lQpofpFCgjnTflwJgRmOlEksGeaQIuKLKJhd5Bi4mgXBgIHlWTFAGRshO406Y1yYhQ94z0vakkwBD4OX5MFHXEOfVGA+PF/+N3rhIo6RTI1nD++A4dCPWMGYs/Iw4DQ1uhLgjm8Y6EkT7boR3QMZXTqBDAaaN+yoYyAOef46HD5Hgoe3Kwwo0ULEzHWMefYUnHx+CJ80N9+O1wnTA4IgvP/+OZSkR9YiIxiL6dMtBikEaApdPieuHfeKDn+mAkznNYOa+0QQI6544H42MCMTeY02TdEpRp93SonHe2z375PgMivsNyBYK5Fx0F57GYJxfUksjaYaDIEFPnGBLOG/WIqcKUU1fxtk4MwRjyHbIlfI9/uV45XwyO44YScX1goGiTtKukMAEMeNkW11bSVLI9st+cV2Ik+2PAGf9FLTLqZKUoty8T8YxrHsPLDUq066SIm7QxkgoMhmjvmA7KQ3wlDnJtJTOVmGuMBwPKQkwl2SwMEXXBdZR29zexB9OYZnooL8af7zNw8sfENcSNNRhKriFiAP9y3WCwid+0eWZt2AciWcG1SV/CdQPUF9+hTjgvXmTwmJXCbDJDEBdxxD8Hk/pgoF0Kce2TxOAc0TdxzGmijvwaeuqIOvdiUMpx8B43wKSJWUoGTJyDtOcXkwlm4ERfQ51icqkX6o/YR1snY562rI5+hL6Y/dNeCzHgxHCMLO2UwVU8phWrOtdXYkX7alSiMyToYFbIfDCCYyRf3yJ2vkOg4eIDGjnZnmRARDQcAiAXdK4ffaehklliai7tomQbZNYoI4GZzyUbFRcZo3YuFjpaAjyGkYs+eWHExbZZ8E6w4yJkrZzfNt+l3EyVxkeGjLAxf5iBQhs3nQTPAiMDnGZ0GQ1iwsmYpa2Roky8j1FJvs/ojYwEx089+ekbRtSYLwx//EKm7Jw3ykPdUgc8miRuehD15/dL5iYeqBDbpz6o+3IbFYw1x0w75Fz5NknnzwCIZQ1pAZjgS/CjzLTnuDjXtEkGM3RuHJt/Hil1yDUSfxhvXJgV9k/7w5T49sEAgtdylYfBFOcB08n15BfK09b4P0sucq1/ZmqKY+X65TzyeUwvZU62EdocbYPrt9C2W2si1nCNYNzJ0FD/XHe08aQ59MJEkRkjZvIdIB7RLtKyR1xLGBgGfcnfrEYMDHiffdPmktcWwnxh8tgXa/780qO4MEHEKd5n8MhsCrGM67G++Ef7wCjR1ikD26CdESfI5tNO2EY8blBn7Ie4mcvc5BLJDNqqX8oUF/vg+uH6SnuGKnVFmahL3o/vm3rjHLBMgWua64Xy8R3aPMeG+fbHwbniumEanPf4Dt/lmkkacP5Pn0idJgf6nF/iLmXieo/PaGUpzjfbJ2b5m8DSxPEyFe/bW/y8YeroRzmnyWVmXtQpdUyih1iV1h45ZuqfmSliL30Z5aLvoK7j+4yLbVO/7D+ZfFqUiNHsg2uA6y+tXIUqsn2lVbQvSZIkqREpV0dYn/hOvt9b1Ofy2U5W+0pTru8Us63FVX0mGC2qTGnvF/OdpPLZRj7baQjK91jKfcxZ7iuyfaVVtC9JkiRJkiSpRhXZvtIq2pckSZIkSZJUo4psX2kV7UuSJEmSJEmqUUW2r7SK9iVJkiRJkiTVqCLbV1pF+5IkSZIkSZJqVJHtK62ifVWteAQDj2LgERY8cqTQxzlkKX/XVyF3Y+X6Dv/njj+I/x3Hfy/+/3zlv1vId5JK7tsT/3+a/GfSvhcnn9f930kWpbTP828h+4h/thAlv5uLNPn34t+P/10O+TLku7/45+Pf4e942ZP/L4d4PBGPouKRITxepNrFY194REol45wkSQ1LPG6IuEFsrU+R7Suton1VrXh2Gg8Q58GuPJg07bmQ5ZLvGAvpEHN9h//HO1j/dxz/vfj/85X/biHfSSq5b0/8/2nyn0n7Xpx8Xvd/J1mU0j7Pv4XsI/7ZQpT8bi7S5N+Lfz/+dznky5Dv/uKfj3+Hv+NlT/6/1MKY8Tw5HozOg/PTHqxfbeLZqDzzk+ejJp9LKEmSFBcDZZ65yrOFeRZvrmfNekW2r7SK9lW14qGj/HoJReUXMbL4qSJJkmpf/EISv/zBL8fw822lekhzluJBzfwiFvGOX1Ihy8qDj3lIuBBCeBiAMmj2P0O53377uV+zqk94vpIr2ldVy/9WMD+jxG+b8usPTGvxCyFCCBGHX2MhZvDzdxhKfrYy/rOU1Sx+RYRfMeHnJvkJRX56kp/L5GfkhBDCw89G8tPJ/FwmP59MzFuUIttXWkX7qmqxXoCflOI3qvktTH63GlfOSF4IIeLsv//+LkYQK/h9fn4Cj/VGDUn8xCW/R03HwYCa37gWQgjP73//e/vPf/5jvXr1cr+Tno8i21daRfuqerGAnd/2bd68uZseItCSgeBfIYTwbLHFFi5GHHnkke6397M2lPz2OmuXGOyy5pG/Wa+ZFZ9//rn7PWGmt/jtX0wxv+suhBAwePBgGzZsmFse88Ybb7h4AWnxJE5k+0qrKE4WLX54nrQrd2iXEvbBFBY/hN+9e3dr3769tW3bVgghfkK7du1cjBg+fLg9/vjjmccnZkn69u3rzOR3331nPXv2tIMOOsgOOOAA914WsC2feT3kkEPc9oUQwnPwwQe7+MC/zM6kxZEkke0rrSJvWLRY2/jPf/7T/vCHPzjIHpYCUr1kH7bddlsHi1OFECINYgTrErfaaisXO9JiSrEQNpl2+vjjj936zR133NG91qRJE1tllVUyZdVVV7XVVltNCCF+BvEhLW7kwpm+UivyhkWLwMrBsakNN9zQGUuCeKlg+5hLOgshhEiDGFGqWIR53HXXXW3ixInOVO60007WtGlTd2MQa7+vuOIK968QQlQTda6vxIq8YdHCVK6xxhrOULL255lnnnHTTdyhLYQQtcbKK6/8E1PJnZi8ds011/zwPE4hhKg2IttXWkXesGh5U0lW4Omnn45elSRJqk15U+mnv72pvPbaa6NPSJIkVZ8i21daRfsqWnFTyShekiSplpXLVJKplCRJqlZFtq+0ivZVtOKm8n//+1/0qiRJUm1KplKSpIaoyPaVVtG+ilYxppLf/uW5k/pdW0mSGppkKiVJaoiKbF9pFe2raBViKlkoys+ocSPPHXfc4Z4hV99vVc6ZM9u+/npyGLg/Dz8nhBCF80XIlCnfhAPZ+VFkKU4MhmfOnClTKUlSg1Rk+0qraF9FqxBTOX36dPcLFzyYuH///ta5c2e7+eab3QOE08ST4vv27W+nn97Gzjqzg7U8q6MQQuQNceOMM1rbZZdd7p6puziaO3eujXjkEZlKSZIapCLbV1pF+ypahZhKfp+yW7dudumll9oHH3zg7pbs1KmTvfDCC9EnyE7OsRkzZjgDes8999r22+9rywZ72orLHmErLS+EEPmzfLPDw/jxHzvk4BNtwoR3oihTnGbOmmX9+/TJxFSy9IesJ/GOGZyk/CNAJEmSslJk+0qraF9FqxBT+eyzz1qHDh3ssccec//HTPJzi/x+pQ+ir7zyivspxiuuuNzOPLOlrbfObrb0L06zZkt1tmWX7iSEEHnS2Zos0cmW+sURtv9+p9qHH77n4k6xmhGayr7duy+2qWTQTCy88cYbw4HzPW6Anba+nOn2qVOn2ieffBzu632bOPEDIUQj5qOPPnAzu8XejxLZvtIq2lfRKsRU8sghTCW/n4teffVVZyrvuusuF0AxlR9++KGNHj3aRowYYeee289+s8n+FvzyDFu+SXdbIegmhBB50j00lt2syZLH2EEHtsjEVPbr0WOxTCUxjuf59gi3M3DgQOvTp4/7BZ5PP/00+sSPmj9/fhgHR9rpZ7S2o446w4499mwhRCPlqKPOCjnF7r//AZs9e1YUJQpTZPtKq2hfRasQU/nSSy9Zx44dnYmcPXu2jRw50tq1a2ejRo2KPlEXSJkSgvvvf9C23fro0FSeZssv0zXsJIQQIl+6haaya2gqj64aUzllyhQbMmSI9e7d2yZMmOBiIDGRf8k+YDrJRHz++edheT+wc/sOsLXX/q8ts9Sh1myZ5kKIRsoySx1pTZbe0c4//2KbNWtmFFEKU2T7SqtoX0WrEFPJnd78lCOj9FtvvdV69uxpgwYNcttIE6P07bc9RqZSCFEE1WcqP/nkExf3rrzySvd/jKW/YZGBNIPqcePGuW1dfPFQO+zQY2yl5fexpX/R2pou2SWksxCi0dEljAFtbalf7hGaymE2a7ZMpRMj8XfeecfdoMPUz2WXXebWUBJI0/TooyNkKoUQRVJ9ppLfC8dUDh8+3P3//ffft65du7r1lZhKlgGxxpLHrj322Ahr1aqjrbnawdZsybbh8fRwxySEaGx0t6ZLdbRg6X3sggsul6mMC2P57bffujVEX3/9tXtMRy7JVAohiqc6p78vuugi69u3b1ieD92zepn+fvTRR38YXBMj+XvmzGl2ycVX2XprH2HBEq3D42FdedpxCiFqm26hqewQmsq9ZSoXRzKVQojiqT5TyZpJblQkO8lsDWsrWRLEtpKaP3+uXXrp1bbeOjKVQjRuZCozkUylEKJ4sjeV/RfTVCIeE8STMG666Sa7++673ZKgtCVAc+fOtktkKoUQMpXZSKZSCFE81WkqUd309kz3FAzWUaZJplIIUYdMZSaSqRRCFE/2pvK8jExlPpKpFELUIVOZiWQqhRDFI1MphKgFZCozkUylEKJ4ZCqFELWATGUmkqkUQhSPTKUQohaQqcxEMpVCiOLJ3lQOkKkUQpQdmcpMJFMphCiebE3ldJlKIURFkKnMRDKVQojikakUQtQCMpWZSKZSCFE8MpVCiFpApjITyVQKIYpHplIIUQvIVGYimUohRPFkbyoHylQKIcqOTGUmkqkUQhRPKUxlT5lKIUSZkanMRDKVIguWCy/IIOgV0ruE9HL7Sdu/qBQylUKIWkCmMhPJVIrFYfkQjN4qQVvbIDjZNglOso1LwCbBibZ+cKqtHLQP9yljWT1kayqnyVQKISqCTGUmkqkUiwMGr2nQIzR+x9tBwW+tebC+HRtslDEbhttdz/YLtnLGspk6/ioie1N5fk+ZSiFEuZGpzEQylWJR+GzkcmGHm2TZ0FA2CXrb5sHRdlqwqnUMlrD2QZOMWSbc7pJ2YrCWbRScaEHQM7Us6VDu9OMSWSBTKYSoBWQqM5FMpagPDOXyQWdbMehgK6ewUtAxNG1d7HfB4XZq8CvrECxl7YKmGROE2106NJVr26+DY8PydAr3m16eJHxuhbD8HEfa8YnFRaZSCFELyFRmIplKUR9k+dYMzrK/BrvbLsGOtnOw08/4d/B3NzV9VrCiM4Btg2aZw3bPCFa2vYNt3P7SypGE8v4z+GdkRDu7rGXaMYrFIXtTOUimUghRdmQqM5FMpcgF6yUxYhsHJ9pRwcZ2drC8tQyNYxpnB8tZm6BpaAAh3RguLmz/nHA/aftPo1X42dOC1ewvwR7h8XQKj0WGIXtkKoUQtYBMZSaSqRRJ/BrKZcMOlptiuPP6uGB9t7aRjGEuSmko66ibCs+XjsHSoblcwXYIdneZymZBD2UrMyd7U3mBTKUQouzIVGYimUrxU7o4A7Zi0Cn8u5P7e9PgOGsebOCMWrrZq046BE3srGCl0FTuZiu5RxF1CY+J9ZUcY9qxi8KRqRRC1AIylZlIplJ46oxWJ3eHNVPGfwvNGFm+XYId3E043DSTZt6qFUwwU/YHBH8Ij2VXZy63CQ60NYKWylhmhkylEKIWkKnMRDKVwoPRWjHoaH8ODWWLYFU3dXxmsJL7t3WKaWsItAnBWJ4ZrGhnhf8eHvzaZV6Z2tdD1LNAplIIUQvIVGYimcrGS93jgvwzKLtFDxXvbH8L/mutQjPGY3z8+sQ0w9ZQqHssEc+7XNo9nP03wbEylZlRAlPZS6ZSCFFuZCozkUxl46XOUHYNzWSdoQzcjSxd3OODuMuaB4+nmbSGSZ2xPDbYQKYyU2QqhRC1gExlJpKpbLxgKPnN7k1Dk7VlcIj9ITg0/Pcg2yvYPjSVyzoTlm7QGiIylaVBplIIUQvIVGYimcrGC8aK39I+MPi9nRWs4NZO8gDzH585mWbOGioylaVBplIIUQvIVGYimcrGC7/bvWFwih0R/MY9g7JDCFPedWsoa9lUNo+eWVlnLGUuFweZSiFELSBTWa++//776K/6JVPZePGm8vBg88h01ZqRjPOjqfx1aCpZP4qxJGPJMoC0+hH5UAJT2VumUghRbhq5qfzuu+/stddec/9/++23bc6cOe712bNn27vvvmtPPPGEjRs3ziZPnmwLFy5076VpxIiRoak8VqayEdLYTGXb0FSeGKxlfw12c78HvllwjG0eHG1rB6eH9cGD3pWxLByZSiFELdBITeWTTz7pXnvvvffsiiuusJNOOsn69etnX331lS1YsMDGjh1rAwcOtO7du1uPHj3shhtucMYylx5/fLT9cbvm1kSmstHR+ExlU/fMypOCNax5sJ4dH6wTsra7251f3NFvgxdD5U0lszJpMzO5Xo9LplIIUUcjNpUEym+++caee+45a9++vZ111lk2adIk+/LLL23QoEHOTD711FN2/fXXW5s2bVw20wdXjCeGdMSIEfbggw9Yr9597Ncb7xcG1BYylY0IHifE9O8GjcZU1j0Ive44WTfK+lGew7mU/SfYyVYOTSVT4Wl1JeqjBKayT36mklj20Ucf2SOPPGKPPvqoffrpp+51Yt37778fxrcHHfzNZ9M0f/5cu3TYcJlKIRo9WlNpM2fOtGHDhlmrVq1c4H399detdevWLvAy5f3mm29ax44dXbbST4/PmzfPRo4c6cxoixan2d5772Nr/OrfYWWebss30fRfrYOZXBYjEBrKJkFvWy84zQ5tJKayjrqMZd3xckNSE/t38PfQVHaQqSyKyplKYhoD665du9opp5xio0aNcq9jIocMGWI9e/Z0A2z+njBhgnsPERuJg3PnzrXp06eG719u660tUylE40am0q2fxFSSjSRL+dJLL1nLli3ttttuc+9/8MEH1q1bN7v66qudAUWM4r/99lv33oQJ79nw4dfY7397aN30d5O0iha1Qt0v6HSxNYOWtmFwcmgoT7WtgoPt6GDD0FzxyzmNwVT+SN3xBqGp/IdMZdFUzlTOnz/fLfu59957Xdx74IEHnFm86667rEuXLm5WB4iBvOYH1pjJ8ePH2z333GM33nSjnXBiC/vVKgdY0yXbhsejNiBE40Sm0gVJTCXZSdZNcoMOBvPyyy93gfOVV15x791yyy0u2KLkGqORIx9zd39rTWXtU3cjSmf7S7CnHRZsZocHvwkN5UZ2RrCiM1d1Gbx0A1aLyFRmQeVMpRc3LJKtfPjhh23q1Kl2ySWXuGVA06ZNczc0XnDBBXbppZfalClT3OeJmywPGjp0qJ17bl/bf//DbOUV97VmS7ULj0dtQIjGSSM3ldOnT3d3d59zzjl28MEHuzVF3AVO8OzUqZMbvV988cVumpvP5ZIeKdR4qHsmY2f7b7BDaKh4LuVS0U8xNuzf9i4Wbyr/FfwzrJ9O1iTo9cNjhsjqptWhSJKxqZxZuKl844033I2JrBPHVDLdPXjwYDeTwwwNfxMLWYeOmP7GcDK7M/GTj+288wbbOmsdZsGSbcLjkakUonHSiG/UQZ988onddNNNzlSynohA+uqrr9pbb73lprv79+/v7gJ/6KGHXADNJZnKxoPPVP43+Jv7xRxuWGls2ck43lRyo84qQRvjd89XDM0lBpN6SqtDkaSyppIbcBg0M3hmIE2s4zOspWQdJesre/XqZdddd53NmDEj+taP4kadYcOG2/q6UUeIRo4yle4ubowkcFMOI3HWGTECZ/ROUOVzySnvuGQqGw8/NZWYqsaZofyROlN5eLCp/SP4p+0U7GJ/D/5j2wX72RrB2aHJ1I1ri6YEprJvfqaSuMbacKaxDzzwQOvcubMzmMTIPn36uClw6N27t7344oupz+vVI4WEEHVoTWUmkqlsPMhUptMqWNZaBsu73z7nd89Zb7pRcIozlXV1ll6fAipnKslS8sSLq666yj2rl9kafvSBm3d4Xi8zNrz37LPP2qxZs6Jv/VQylUKIOmQqM5FMZeNBpjId6oG1pXUsbUcHG9vGwckylXlR2UwlN92wjpIbcoApbjKSzNgwFQ7+JsU0yVQKIeqQqcxEMpWNB5nKfAjsyGBT20imMk8yNpUz8jeVWUimUghRh0xlJpKpbDzIVOaDTGVhlMBUnitTKYQoNzKVmUimsvEgU5kPMpWFoUylEKIWkKnMRDKVjQeZynyQqSwMmUohRC0gU5mJZCobDzKV+SBTWRgylUKIWkCmMhPJVDYeZCrzQaayMLSmUghRC8hUZiKZysaDTGU+yFQWhkylEKIWkKnMRDKVjQeZynz40VQuG9ZXnbGk7tLrVJTAVPaTqRRClBuZykwkU9l4kKnMB0zlr22D4FRrGvSwZiHLhkZjOVd/6fXauJGpFELUAjKVmUimsvEgU5kPTa15sL5tG+xvGwcn2iYh/MtvgS8fdPlZnQqZSiFELSBTmYlkKhsPMpWLpk1oKs8KVrTjgnXtmGCT0GBuZEcEm4Ymc7+w7rpEdZhev40TmUohRC0gU5mJZCprH9YFQt00bhfbNdhRprJemoYErn46BEvbOcGy9n/BLmFdylT+HJlKIUQtIFOZiWQqa53OtlLQPqSDrRh0DP9tZ7sFf5GpXCRNw/ppGprKZUJTubxMZU5KYCr7y1QKIcqNTGUmkqmsTbiphLuX1w7OsB2C3W2XYCf7V/Av+3fwdzsm2NBN82Ka0g2V8LQPmtjZwQoylTlRplIIUQvIVGYimcrapM5UdrffBMfaccF6bhq3dbCstQqNUmuZybyRqVwUylQKIWoBmcpMJFNZm3hTuVloKk8M1rLOwS/ddHfdlLdMZb54U7ljsGu0LrVH+G93V79p9d74kKkUQtQCMpWZSKayNombyhOCdaxTsGSqaRL1g6lsGSwfmspd3E1OdQ9E7+KQsQSZSiFELSBTmYlkKmsTmcpsILPLsoEDgj/Yn4K9HFsFB9oaQcvQWNbVc1r9Nx5KYCrPk6kUQpQbmcpMJFNZm8hUZgVLBZpay2AFaxGs7J5heXSwof0mOMZlLWUqZSqFELWATGUmkqmsTWQqs6bu2ZUdgqXs5GAN2yI4SqbSIVMphKgFZCozkUxlbSJTWQqaWvtg6dBUrhWayqNlKh0ylUKIWkCmMhPJVNYmMpWloX2wjEzlT5CpFELUAjKVmUimsjaRqSwNMpVJZCqFELWATGUmkqmsTWQqS4NMZZISmMoBMpVCiHIjU5mJZCprE375BVO5eWh+Tg1+ZT2CX1jn0Fh2CpZwxijNMIlFI1OZJGNTOV2mUghRCWQqM5FMZW1SZyq72UbBibZ/sKWdFKxtzYMNQzaw04NVQoOkX9UpBpnKJDKVQohaQKYyE8lU1iaYHVg5aGvrBafZxsFJtmFwamgyT7J9g22sTWgq636yMd08iXRkKpPIVAohagGZykwkU1nb8KsvzcKOslnQ05oGvcJ/u9kuwf+FprLu12LSjJPIjUxlEplKIUQt0IhN5YIFC+y7775zwfbrr7+2efPmRZ+s06xZs+zLL7+0KVOm2MKFC6NX0yVTWcvwG9XhhRL0COlpQWgqm4ad5s6RqWwvU1kwMpVJSmAqB8pUCiHKTSM0lVtuuaUzlR9++KHddNNNdvHFF9ull15qDz/8sH3zzTf2/fff2yeffGJ33nmnXXjhhXbZZZfZs88+60xmLslU1i7LhaZypaCdrRecGk1/nxJyku0TTX/LVBaOTGWSyphKYh0D6/fff9/efvtt++yzz0KDONe9h6ZOnWoTJkxw8HcuyVQKIepopKbyiSeesHfffdduueUWu+OOO+ySSy6xTp062ZgxY1yQxWx26NDBLr/8cjv33HOtZ8+e9vrrr0db+rkef3y0/XG75tZEprKm8DfqbBCayL2D7eyYYCM7PNjMjgh+4+4Gx1SmmSZRPzKVSUpgKs9ftKmcM2eOPfPMM25gff7557t/n3vuOTczg4l84IEHrH///tavXz+7//773axNmubPn2vDhg239WUqhWjkNOLp79mzZ7sgybT3yy+/bO3bt7fbb7/d3nnnHevSpYsNHjzYJk+ebE8++aS1atXK7r77bjdljgi6X331lb355ps2fvxrNuyyy+13WxxiTZZoYcs36ZZS0aIh4h8ptFlofk4MTVDn4BfWLmji4Des0wyTWDQylUnKm6m89tpr3eeIgS+88IKbpWFAzeC5a9eubtkPcY84yGevu+4669atm40ePfqHpUD8O3/+fJfZnDbtOxty0eW23loylUI0bhqxqfQiM3njjTe6YPrSSy/Ziy++aOecc47LYiKmhniP0b2fAsdcjh071mU4Bw4cYCeeeLKtt85u1nSJ02UqawjMTp2pPMZOCNYOTeUSoaHkjm8ylMpSFotMZZKMTeW0/DKViEE10+BkLYlnbdq0cdPdw4cPdxlKBtYMoPn7iiuuCLc97Yfvvffee/b444/bAw/cb2ec3tpWX/WgsENpGx6PTKUQjZNGaioZhSMMJRlIRuiPPvqoG3WTtcRUMgWOmCbv3LmzG60zskeM0j///HNnQseOfd4uGjzUttjsIAt+2ULT3zXEj6ZSv6iTJTKVSSpnKhHxjJhINpLZmkmTJtmQIUMcxLwZM2a4v4cOHerWnSNiJVlO4uKll15iRxxxnK260n7WbOl24fHIVArROGnEppI7vm+++WYXSO+7774fFqJzAw+vMTLnO5jNli1buikiP/WT1MgRj+lGnRpEprI0yFQmqZypJEPJrAtrJ5mxYUkQJpKbF3nt22+/dUZywIABbo05A3FELCRryXYnTvwojJcX2DprHmbBkm3C45GpFKJx0ghN5VZbbeVu1Bk1apTts88+tu+++zoTyV3eZB6nT5/u1g7xGhlKbthhWujTTz+NtvRzjRgxUqayBvlxTWXd9Dc/z1g37d0QSTd45aWuLO2DpUNTuWZoKo+SqXRUxlSyJpI4eNJJJ1nbtm3dAPqjjz6ymTNnur+5eZHMJTczsr6S15KPXkMLFsyzYZddo7u/hWj0NEJT6e/+5oYcgisL0Znq5hFC3HjDeklG6s8//7zdeuut7g5IAq2/SSdNeqRQbRL/7e/kjToNhbYh1XOXel2ZOgRL2inB6vbb4EiZSkcJTOWgRd+owwD6qquusv3339/OOOMM69Gjh4uFzOKwjvKGG26wjh07OpjmZhtp0iOFhBB1NOIbdZi+YeqHm28wkYzO489ow0TyHp9hIXt9kqmsTeqmv7u5Z1TuHOxoBwZ/cD/P2FDYL9jajg3Wt1bBsqGhq5yx5FeHWof/Ng/WdeXaP9jKdg12sA2CU9yvFclUltdU+kwlWUduRHzqqaccDLbHjx/vYiHiJh3WTQImM1cclKkUQtTRiE1llpKprE0wO7BS0NF+FZxjawRnNxgo75rBWfb34N92VrCiM3Zphq8ckJ08O1jO/hX8PSxbS1s9LBvlWzHoENZvl9S6b1xUxlRmJZlKIUQdMpWZSKaytqnLWHYP6RH9W/3ws5LLBZ3tL8Ee1jJYwd0cg7GsM5flzVq2d6ZyBftbsGtYtm7WLKpHspRp9d34KIGpvECmUghRbmQqM5FMpag2+L3yFYOOoZH7r8sSdgyWtA7B0u4mmXI/uN2byv8LdgnL1iU06XqW60+RqRSNAz9AZ2BZDHxX8aOakanMRDKVotqoC7yd7LfB4bZ3sK1bD3pAsLUdEmxuZwQrhWavfMZSpnJRyFSK2qdu7XQnWy1oZWsUuZyIpTMrBx1+tm1RLchUZiKZSlGNsF5x5aCdW1u5VsjqYVDmTvbjgvXcdHiaASwFMpWLIntTOUimUlQZy4asFprCHcM4sE840N0n2L4g9gu2sT2CP9mmQXM3E6M4Uo3IVGYimUpRjZAZIPiyjhGCoIetE7SwY4KN3FS4/8nJQsm1JjPts9AhNLDnBMvLVOZEplLUPs3CdrF2cIYdGmwexgUGtT6W5EfHMGadHcaR7YJ9XTxTHKlGZCozkUylqGYwl0BQXy84zY4NNnDPivQ37hQGz74MUp59Wfc+WcnkdzoES4WmclmZypxkbyrPl6kUVQA349WtoexuTYKetmbQ0pnKuhsH0wehuegUmkoGp5jKukeRKY5UHzKVmUimUjQECOxrBWfa3sF21jxY32Usi+H4YF07K1ghNJI/ZhFOC1YLzeqGqZ/HxB4RbGLbBvuF5eiszuBnyFSK2qNuDWVnWzlob6uEcOPgesEpdliwWWgSGZzGB6WLpmNoRFlGs12wv6a/qxaZykwkUykaAgTilYIOtmFwsv06aO7WJhXCJiEbB8fb9sG+7qHqdAxkIsla7hUa1d8ER9lG4fvp3z3OZSnIVKaVrXEjUylqD9Z0s9yGNZS7Bn+zXYL/sz2C7e2UYI3QJBZ+o6BMZUNApjITyVSKhgKBnqkj/0s2hcB3moVBY4PgJDs8+PVPTOW/gn84w0o2NO27PyJT+XNkKkVtgeHjet8sOMbNVLQOY0TrYFn3617F/mysTGVDQKYyE8lUisYAnQQL5DcKTeVRwSbWyT37cinj2Zf/CXZyj/pg/VTad0V9yFSK2sKbys1DU3lCsE4UJ5YJYZ21TGXtIlOZiWQqRWPAm8r1g1ONR4KcHKwRsqadGKzlHrK+UtBeprIoZCpFbRE3lccH67kZjTSjWAgylQ0BmcpMJFMpGgN0ErBK0NY2DE5yHcYWIUxxrR2cHn5GN+EUR/amcqBMpaggMpWNFZnKTCRTKRoTBHP/mBAPQT7tsyIfsjWV02UqRYWRqWysyFRmIplKIUTxZG8qNf0tKolMZWNFpjITyVQKIYqnFJnKXjKVomLIVDZWZCozkUylEKJ4ZCpFbSFT2ViRqcxEMpVCiOIpxfS3TKWoHHFTeUKwbvTzrXU/t5hmGPNBprIhIFOZiWQqhRDFo0ylqC28qdwsONqOC01lu2DpEH6akR9LIGtZuLmUqWwIyFRmIplKIUTxlMJU9papFBWFX8/aIDjZ/hv8xQ4JtrCDg9/ZYcFv7PRg5dAkFj4dLlPZEJCpzEQylUKI4sneVA6QqRQVp4utHLS3tYMzbP3gNFs3ON02D460I4NNoqxlunnMhUxlQ0CmMhPJVAohiqcUplLT36LykK3kV7h4rm2ToKetGZxlhwZbuJ9s9Gss86VTsLSdEywvU1nVyFRmIplKIUTxlMJU9pGpFFUFP5KwTnCGHR78xjoGS0a/BZ4/nYMlrFWwrG0f7CNTWbXIVGYimUohRPHIVIrah4zlGsFZtmuwgx0bbGBHBxuGbJQ3zYP17YhgU/tdcFhoKutuBkrbj6gkMpWZSKZSCFE82ZrKGTKVogrhbvAVgw5ujeWGwclFcJK78We1oI3bFqTtR1QSmcpMJFMphCgemUrROMAIMnXNGsvi0LR3dSNTmYlkKoUQxSNTKYSoBWQqM5FMpRCieLI2lTPtPJlKIUTZkanMRDKVQojikakUQtQCMpWZSKZSCFE8MpVCiFpApjITyVQKIYqnFKay7yJN5ffff28zZ860zz77zD744AP3mXnz5rn3FixYYF999ZX77tSpU91nc0mmUghRRyM1lU8++aQLmA8//LBdddVVLsiOGTPGpkyZ4oLss88+a1dffbXjueeesxkzZkRbSZdMpRCieCpjKjGOr7/+ul155ZV23nnn2cUXX2zPPPOMi3evvPKKXXLJJXbuuefazTffbJ988on7TppkKoUQdTTiTOWkSZPsgQcesFtvvdUF027dutkjjzxiTz31lPubYNqvXz/r0aOHC7QE4FwaOXJUaCqPtSYylUKIgqmcqXz33XdtxIgRjt69e1vnzp3dAHvgwIHWt29fu+KKK6xdu3Z222232ezZs9330nTVVTfY+useKVMpRKOmEZvKuXPn2pdffhkG8A+dmSSYXn755TZs2DD3NyN1RvGYSkbsZDG9Fi5c6P4/ceJE++ijD+2GG260LX9/mDKVQogiqNz095w5c1wWEiPZvXt369ixo5uhad26tY0ePdpNfQ8ePNj69Oljn376qfseYpr8/ffftyeeeMIefvhBO/PMNrbGagdb0yXbhscjUylE46QRT38jAu1NN91kZ511lhuN33HHHda/f38XRJkCYip86NChPwuo8+fPd9nLQYMGudH9Mccca+uutWsYUE+35ZvowaxCiELI2lTOsP55mEovBtAMno877jgX0xhYd+jQwd588033PjGS98lqepG1HDVqlMtmduzY3nbfbV9beYV9rdlS7cLjkakUonHSyE3ltGnTbNy4cW5dJVPeGMhevXq5fzGUBE6mxpOmkmmjjz76yG3n8cdHhUb0PNts0/3rMpVN0ipaCCFyUQpTeW7eppIB9FtvveXWVjK47tq1q8tUvvbaa+794cOHuywmmUkvfyPPe++9Z+PHv2rdu/W1tVY/xIIl2oTHI1MpROOkkU9/f/fdd848vv32224NJcGUdZQEUF6bMGGC9ezZ04YMGWLffvtttKW6aSOCKlNA8+bNtQcffNi22/porakUQhRBeTOV1157rfsc8Yv3iHUsA2La+8wzz3SD6vbt2zvzyY2KLAe66KKL7JtvvnHfS2rBgnk27LJrdKOOEI2eRmgqt9xyS7cOiKkcbtJhypu1lARO/mZKp0uXLjZgwAAHRpObd1hHmUsjRozU3d9CiCKpjKlkQM1aSgwjsJTnhhtucBnJe++9183aMO3NkiBmdHLFQN39LYSoo5GaSjKVLE6/88473ZTPdddd54IrI/Hp06e79ZJM+QB/81p90iOFhBDFU5k1lawNJ0NJ7OPu7+eff94mT57s3uNGxLFjx9pjjz3mpsbru/NbplIIUUcjnv5m+po7GwmiBFDugvRiapzX/Ov1PfgXyVQKIYqnMqYSkX0kFmIwk5lIv8xnUZKpFELU0YhNZZaSqRRCFE9lb9RZXMlUCiHqkKnMRDKVQojiyd5U9rugn0ylEKLMyFRmIplKIUTxyFQKIWoBmcpMJFMphCgemUohRC0gU5mJZCqFEMUjUymEqAVkKjORTKUQonhkKoUQtYBMZSaSqRRCFI9MpRCiFpCpzEQylUKI4pGpFELUAjKVmUimUghRPKUwlf1lKoUQZUamMhPJVAohikemUghRC8hUZiKZSiFE8chUCiFqAZnKTCRTKYQoHplKIUQtIFOZiWQqhRDFUwpTeZ5MpRCizMhUZiKZSiFE8chUCiFqAZnKTCRTKYQonuxN5bkylUKIsiNTmYlkKoUQxZO9qewrUymEKDsylZlIplIIUTwylUKIWkCmMhPJVAohiqcUpnKATKUQoszIVGYimUohRPFkbSqny1QKISqATGUmkqkUQhRP9qbyXJlKIUTZkanMRDKVQojikakUQtQCMpWZSKZSCFE8mv4WQtQCMpWZSKZSCFE8MpVCiFpApjITyVQKIYqnFKZyoEylEKLMyFRmIplKIUTxyFQKIWoBmcpMJFMphCieUtyoI1MphCg3MpWZSKZSCFE8MpVCiFpApjITyVQKIYqnFKbyfJlKIUSZkanMRDKVQojiydpUTlOmUghRAWQqM5FMpRCieEphKgvPVM6bN89mzJhh8+fPd/9fuHChTZkyxcHfuSRTKYSoQ6byBxE044Hz+++/D4Pl3B8CbH2SqRRCFE/lTeXUqVPt3nvvtcsvv9w++OADmzVrlj311FN2ySWX2MUXX2xPPPGEzZyZ3kHIVAoh6pCpdOK9hx9+2F544QWbM2eOTZ8+3caNG+eC7IgRI8Ig/2G95lKmUghRPJU1lcQ8DOQpp5xiRxxxhPub+NezZ0+78MIL7aKLLnJ/jx07NjVjuWDBfBs27BpbX6ZSiEaOTKWb2rnyyitt//33t4EDB9rnn39uo0aNsq5du1q/fv3cv4MHD7aJEydG3/i5Ro163P643bEylUKIIqisqXz33Xft2muvdbHurLPOsscee8yuv/5669Gjh3tvwoQJ1qtXL7vuuut+yFYuWLDAPv30U3vxxRftmWeesnbtuthaqx9kTZdsEx6PTKUQjZNGbipnz57t/sY8MkrHVL7yyis2YMAA69Onj7355psuW3nOOefYo48+6qbEEf8yPfTNN9/Y5MmT7Y7b77BttjzSmiwhUymEKJRsTeXMAkzlZ599ZldffbXdeOONdtttt1n79u3tjjvuCDuEC2zIkCEuzrHOkoE10+Dffvut+x5Lg8hmXnXVVXbRRYPt0EOPsdVW2t+aLdU2PB6ZSiEaJ43UVDK9w6L0Z5991i699FK7++67XQAlkI4cOdI6dOjgRuqYx7fffts6d+7sRumYUMQo/eWXXw5H99fYsGGX2plntrQN19/DgiVPt+WbdEupaCGEyEX2prJvnqby+eefD+PXmdapUydr27at7bbbbtalSxfr1q2bm/bGUE4Ltzdo0CAXK5nZQcTAr776ymUyX3vtlfDzfW2d1Q9VplKIRk0jNZVPP/20m+YmG8l0DyN1/j311FPdwvRWrVrZ7bff7r7HonWmhYYPH+5G7Yj1lZjN+++/343qu3TpaptstI8FS7SQqRRCFEgJTGVoAvMxlR999JHddddddvPNN7s4x+fPP/98tyQIYzlmzBgHRpPPsf4yqQUL5tmwy7SmUgjRiDOVBNlhw4a5ETrBdK+99nIw9d2uXTsbOnSofffddy6byfT3nXfe+cPNOmQwGanzfxapP/TQw7bd1kdrTaUQoggqZyqJYwyWYfTo0c48siTo/fffd9PdTIcTD5nJYYDtlwDFNW/eHN39LYQIaaSm8sknn3SGkOkbXmcqm7sbMZjcAX7LLbe4vxmts96ye/fu9vrrr0db+rlGjBipu7+FEEVSAlN5/gV5mcq4WCM+fvx49y/mkSwmT78ADCUGNE16pJAQoo5GfqOOF2slmeJ55JFH3BoizOatt97q7n5kLRHrjliYnkt6pJAQoniqw1RiJD1erD2H+iRTKYSoQ6bSiRE4i9F5ALB/Dht/M1KfNGnSIoOqTKUQoniqw1QWK5lKIUQdMpWZSKZSCFE8MpVCiFpApjITyVQKIYqnBKZyoEylEKLcyFRmIplKIUTxZGwqp5OpvFCmUghRZmQqM5FMpRCieLI3lX1kKoUQZUemMhPJVAohiqcEpnKgTKUQotzIVGYimUohRPHIVAohagGZykwkUymEKJ4SmMoBMpVCiHIjU5mJZCqFEMUjUymEqAVkKjORTKUQoniyNZWzZCqFEBVBpjITyVQKIYpHplIIUQvIVGYimUohRPFkbCpnyFQKISqBTGUmkqkUQhRPCUzleTKVQohyI1OZiWQqhRDFI1MphKgFZCozkUylEKJ4ZCqFELWATGUmkqkUQhSPTKUQohaQqcxEMpVCiOKRqRRC1AIylZlIplIIUTwlMJX9ZSqFEOVGpjITyVQKIYpHplIIUQvIVGYimUohRPHIVAohagGZykwkUymEKJ7sTWXvfjKVQohyI1OZiWQqhRDFI1MphKgFZCozkUylEKJ4ZCqFELWATGUmkqkUQhRP9qayl0ylEKLsyFRmIplKIUTxyFQKIWoBmcpMJFMphCgeTX8LIWoBmcpMJFMphCieEpjKc2UqhRDlRqYyE8lUCiGKpwTT331lKoUQ5UamMhPJVAohikemUghRC8hUZiKZSiFE8VTOVM6dO9e+++47++qrrxzTpk1zr3///fc2ffp0+/bbb2327NnutVySqRRC1CFTmYlkKoUQxVMZUzl//nx7+eWX7dJLL7WLLrrILrnkEhcbMZoffvih3XLLLe61ESNG2DfffOO+k6Z58+bYpcOGy1QK0eiRqcxEMpVCiOIpganM40adWbNm2U033WQnnniiDRs2zO6++257/fXXbeLEic5o9urVy5nNzp0720MPPRSax3nue2jhwoXu/2Qxp037LvzcZbbuWofJVArRqGnEpnLq1Kn20ksv2ZgxY+yJJ55wI/YpU6a40TtB9dlnn3XwN6/VpxEjRspUCiGKJGNTOTO/TCWG8IYbbrAjjjjC+vbta3fccYe9//77NmrUKGvVqpUzkp9//rkNGDDA+vfvb5MmTXLfQ2Qzn3/+ebvqqqtCQ3mhHXbIMbbaivuFx9EuPB6ZSiEaJ43QVG655Zb25JNPOkNJ4OzQoYMbld9111322Wef2dtvv22DBg2yrl27Ohip8xprjHLpscdGhabyWGsiUymEKJjKmEoyjePGjbPLLrvMxcBu3brZ0KFDXdayXbt2LmuJrr/+euvRo4e9++677v8IU/naa6/ZnXfeGb5/jR3X/FRbbeUDrOmSbcPjkakUonHSCE3lVltt5UwlGcqDDjrIzjzzTLvtttvsjTfecAvTb731Vmc2H3nkERs5cqR16tTJBdUZM2ZEWzJbsGCBM5r33Xef3X77bdalc1fbdOO9LViihS3fpFtKRQshRC5KYCr75HejzsyZM93NOKyZZA1lixYtrH379ta2bVsbP368+8x1111nPXv2tPfe+7FcTH+T6SRmfv31V3bhhZfaOmsdrulvIRo1jdRUMv396quvWpcuXVzw7N69u5vGYTqHLCXTPdwRyZ2QF154ofXr1+8nUz9MhzM1znt9+/a25s2b27rr7BqO0k+XqRRCFEhlTCWD46+//tq9N3nyZDcVfsYZZ7i4Rlxk9obsZJ8+fez88893n0nT/PlzdaOOECKkEa+pZIRNwGSKh4wji9FZV8QUENM/jMLnzJnj/u7du7dbW+nFVDjrL9nmhx9+YNded71t+btDNf0thCiC8prKa6+9tu5zs2a59eTEOO7yJvYxuGbWxmcnGVAz6H788cdzri3XI4WEEHU0UlNJII3ryy+/dAvR27Rp4wIogZQRPDfz8Pp5553nPpNLrKn8o27UEUIURWUylaypZBkPN+QwsGZJ0KeffurMI/9yw84999xjY8eOdTM3uSRTKYSoo5HeqEPw5P+MvllfeeONN7qF6YzOb7/9dmvdurUNHz7craVkfREBl6xlLumRQkKI4snYVM7Kf00layMxkcB0eFz+vfpuUkQylUKIOhqpqSRTyQidux5ZKwTcoMPonLWTGEuylcBjNurLUiKZSiFE8VTOVGYhmUohRB2NeE0ld3NPmDDB3eHIv6yR9CNypnreeecdR/z1XJKpFEIUT/amsqdMpRCi7DRiU5mlZCqFEMVTAlPZW6ZSCFFuZCozkUylEKJ4SmAqe8lUCiHKjUxlJpKpFEIUj0ylEKIWkKnMRDKVQojikakUQtQCMpWZSKZSCFE8MpVCiFpApjITyVQKIYpHplIIUQvIVGYimUohRPHIVAohagGZykwkUymEKJ4SmMqeMpVCiHIjU5mJZCqFEMUjUymEqAVkKjORTKUQonhkKoUQtYBMZSaSqRRCFI9MpRCiFpCpzEQylUKI4pGpFELUAjKVmUimUghRPDKVQohaQKYyE8lUCiGKR6ZSCFELyFRmIplKIUTxyFQKIWoBmcpMJFMphCgemUohRC0gU5mJZCqFEMUjUymEqAVkKjORTKUQonhkKoUQtYBMZSaSqRRCFI9MpRCiFpCpzEQylUKI4imFqbxAplIIUWZkKjORTKUQonhkKoUQtYBMZSaSqRRCFI9MpRCiFpCpzEQylUKI4imFqRwkUymEKDMylZlIplIIUTwylUKIWkCmMhPJVAohiqcEprLH+TKVQogyI1OZiWQqhRDFI1MphKgFZCozkUylEKJ4ZCqFELWATGUmkqkUQhRPKUzlwLxN5dSpU+2tt96yF154wd5///3QJM51r3/zzTf2yiuvOL7++mv3WppkKoUQdchUZiKZSiFE8WRtKqfnbSp5/ZZbbrF+/frZwIED7b777rNp06bZ559/bldddZV17tzZOnXq5P7+9NNPo2/9VPPnz7Vhw4bLVArR6JGpzEQylUKI4qmMqZwzZ47df//91rJlS7vwwgvtrrvusvHjx4ffn2UPPvigM5MPPPCAo0uXLvbQQw/ZvHnz3HcRGc2ZM2falCnf2uDBw2zdtQ+XqRSiUSNT6QLo5MmT3VTP7Nmzo1fN/c1rTA0tXLgwejVdMpVCiOIpr6m89tpr3eeY0u7bt6/ts88+1qdPHzvvvPPstttuC/f/oV122WXu/3yG+Mjfl19+uYuHCHOJAb377rvthhuut+OPP81+tcoBYYfSNjwemUohGieN1FQ++eSTzii+8847dtNNN9mgQYNs+PDh9sYbb9iCBQvcNA/BtX///jZkyBB75plnfmI4k5KpFEIUTylM5YBFmspJkybZOeecYwcddJCLiRhEspN33HGHy1wOHTrUxT2ykRdddJH7PwNthKl8+eWXXfy88sor7JijT7Rfrby/NZOpFKIR0whN5ZZbbukCKKPxwYMH27nnnmu33nqrjRw50j755BP79ttv7frrr7cOHTq4aSLWGXXr1s1ee+21aEtm33//vcNrxIiRzlQ2kakUQhRMZUwlGUgylEx/8z6Zx65du7r3yUoSGz/77DM3yCajefXVV7v1loj4h+Ekczl58pfhwPwSW3ctpr/bhMcjUylE46QRmsqtttrKnnjiCXv00UftqKOOso4dO7osJQvUCaBkLxmtMzJnVE6WslWrVnbnnXfa/Pnz3bbIZvJZRurjxo21IRcNsS1+c6AFvzzdlm/SLaWihRAiF+U1lX5NJWsiiXtt2rRxGUemvDGVzz//vFsixN/coIOZZGDNa8S+pObNm2OX6kYdIURjNJVbb721Pf744240/s9//tN69OjhAmrv3r3t5ptvtjFjxljbtm1d9hK99957bpE6gZj1lwhz+eKLL7qAO3ToEGvR4gzbYN3drekSMpVCiELJ3lT2yMNUItZM3nPPPW6pz/nnn28jRoxwcW769On28MMPu2wlcJOOX0+ZlB4pJISooxGbyhtuuMEOPPBAl7FkGohROgaTkTuZSt5HZC55rAZT4twtiZj6YZqcZ7pNmPCeXT38Gvv9bw/RmkohRBFkbSpn5G0qEdPYX375pTOY/hmVyL8O9a0pl6kUQtTRSKe/mcZ57LHH7JRTTnHT2h988IFbX8m6oeeee84GDBjgRudvv/22e5wGi9kxn/F1lHH5NZUylUKIwimFqTwvb1O5uJKpFELU0QhNJXd/P/XUU27x+cUXX2zt27d3Gcru3bu7KZ7vvvvORo8e7aa8yVi2a9fO3fXITTy5JFMphCgemUohRC3QSE0ld3+TdeRXI1hDyYN+WSPp1wzNmDHD/TQZDwZmqhwDWt+zKvVIISFE8chUCiFqgUZqKuMPP+emG9ZKJu9qxETyOs9jyzXt7SVTKYQoHplKIUQtIFOZiWQqhRDFUwpT2V+mUghRZmQqM5FMpRCieGrJVOrh50I0XmQqM5FMpRCieEphKvuV1VRefMlVts5aR1qTX7YPY2AvW27pHiHdq5AeYfnqaBhlTHu/8jSMOuzp/k1/vxpoGHVYWDvsGcaATrb0knvboEEylUVLplIIUTwN21TOmTPbLrpomK215m62xC+OCDuVk2zpXx4XcXwVUVeeJkucEOL/X71lXKaKy0j9uTJG/0//XKWoK0+wxIk/e606qCsL57e66/C4sIxcK74e8yvjL39xtC3xyx1swIChNjOMRcUosn2lVbSvoiVTKYSoThp6pnKu3Xvv/Xb0UWfYdtvub1v9YV/b7b+n2H77nmX77lNF7NvS9tijhW2z9X72x+0Osr32OiN8LeVzFWS//VraLjufZFv+YR/7y18Pt33C8lVbPe6//9m20/8dbb//3Z72r380d/VaVWUMy/Kvfx1vv918N/v7349x/6+m8lGWfcJ/d9zxSPv9b/e0/+56StW1w/3Dc7pneH1svfW+ttWW+9iee54elrtl6meT7LXX6SHH2u233xXGorpfISxUke0rraJ9Fa3ymMoWoalkPZEQQuRLj9BUdg9N5TEZmspzy2YqeXLGV199Za+/8YadP3CAdenS2caMGW2vvz7eXnvt1arhjTdet2eeftq6d+9mA87rby+MG2evj38t9bOV4q233rRHHnnYOnRsb8OGDbPxYfkg7bOV4s0333A/c3z22WfbnXfeYW+8/npYxvTPlpvxIZzTu++5y0477VS7+eab7LVXX6mqOuS6eDUs09VXX2UtW55lo0Y9VnXt8M3wWh47dpy7Vjp16mjPPfeMu37SPpvklfDYXnnlZZs0aZLNn//Tp+rkq8j2lVbRvopWKU3lw488altveaQt9YtTbdklu1mzpbpasyU7VzdLdQk7MsraJf39KqEp/4ZlXC4qq/t/lZIsa9pnqgFfzoZ1/sNraunqPv+Oos5/F1vmF51tiV8cZfvvd4p98MG7UWQpTpjKbt36lM1UxnX33XfaFVdcbpMnfxW9Ul2aNm2q68xvv/3WH352t9o08ZOP7ZJLLraRI0dEr1Sfnn76KRsYDiDeeGN89Ep1CXPes2dPe/HFF6JXqk//+98YGzCgv33x5aToleoSy1q4VoYNu9RmzixuGrtYRbavtIr2VbRKayofse22PdCWWXIfa7rUUbbsMsfYck2qG8rYdOmjw3+PTn2/Wlg+ZNkmR4eGgrKmf6ZaWDakWVifsFxY5rTPVAOuTsMycv7rypr+uWqAslKXdee/ussKtNFlCy7rsaEJPdqWWeq/dsD+J9qECW9HkaU4zZ4903r3Kd9zKuPi18r4ZbIpU6ZEr1SXZsyYYSNGjHB9QLWaSn5rnR/eePHFl6JXqk9vvPGG3XHHHfbhhx9Gr1SXPvroI7vpppvs3XcXb4BWKvHs61dffdXV4bfffhu9Wl3i+ngk9DYPPPBg0dPYxSqyfaVVtK+iVTpT+b298vIr1qVzbzv4oFNsm613sX32Pt6OP66DnXB8CP9WE5Tp+I5hGU+wbbfZNezETqnOckJYrpNO6Gh77tHc1eu++5xop5zUJf2zlSYs6/Ehe+91vP1x+93toANPi+o68blKE5bnxBM6ufO+bVinlLfqyhiD83/QgaeGdbqH7bH7seH/O1VvecNyHbBfXb3utWfzgmLAcc3b2bHHtLQLLhjqfulrccQPNjz00CNlN5V0lF9//bXbF+ssq1H82AVT9ZSzvl9Jq6Rmz57tpg6r1Zgjfn2OdjpzZnF395ZaDB74Jbzp06cv8sdLKiV+Epo65FqpxjKyrIVrGbhuyqnI9pVW0b6KVikzlTNmzAwbx2c2dtzzduYZp4ejzHvt44kfuWkM/q0mKNOnn060e+6921q2PNOt5+D/aZ+tNK6sn02022+/xc44vYU9+MD9NumLz1M/W2koK1Cv7dq1sdGjH//htbTPVwrK89nnn9hjj42wM8883e65566qPf/w2eef2ujHH3N1etttN4fX2adVV6ce6vGxUSPtjDNa2F133W4fffxhQWX96KMPMzFkdFBTp06riKn0nWO1duS+jNVaPhQvY7WW05dL5SteDamM5VZk+0qraF9Fq1SmMl7pBO4ePXq43xGvdo0bN9Z69+5dtdMDcTGl1qNHd3v55ZejV6pX1Ctrjd59953olerUm2/WrTkaO3Zs9Er16p133gnrdGDYDp6MXqleUVZiwLPPPhu9UpwWJ5j775bbVKapkh1mJfddK1IdSpVQZPtKq2hfRauUmUovplRuu+02e++9xbt7sxzCTLKegymCahcGiHp9//33o1eqV9TrPffcU/X1OnHiRFenDWFQQV3ee++9bh1XtYuy3n777fb2229XvEOuhKlkWpT1bHV3fpZ3yiwp6p+lAMTlTz75xL755hs3pYeY+ub/rAnkff96uUVWmjWUH3zwgZsKja/zpEy8Rxmp10pM17NPprg/++wzF385r76Mvnycb6Zyq0FMd7O8wU/LU7+UnXjHlHglrknqcNq0aa4MDDonTJjwwzpKysd55xqlfJUW9Ud7g/g55W/OM+e7HNd1ZPtKq2hfRavUppLGSgMheFeq8RYiLjoaSLUuVo+L+qSs1bp+x4tzThkJaqyLquY2QPl8nVZ7W6Ws1CmBuSGUtVraarlNJZ032z733HPtggsucNnaSsYX2grHfeutt1r37t3tuuuuc505ZogByuWXX+7Keumll7qbJspt2igfgzrq7Pzzz3d19uijj7p2jhl+/vnnbciQIa6M119/vTuP5RYGgkE9dTdo0CC76KKL7PHHH3f1yIwcdde/f3/3iCFMZyWMrxf1xrnu06ePjRs3zv1/9OjRduGFF9qAAQPszjvvtMmTJ0efLp+IBdzwwswg55l298orr7jyPfHEE+68n3feeW4wimmvlBh4UUfUF2WkDjn/mEnOP+1w6NCh7nXaZykV2b7SKtpX0SqHqYyr2js/KXs11HPekMqt6yp/ldNUMvCjQ+/YsaPdfPPNdvHFF7tlAJXM2GJwyEKOGjXKunTpYl27dnXGF9NP50j5mFWgsxw8eLAbuJRTmFuMGHejY9ToyDG/LPMhm9WvXz9nKu+++27r1KmT3XLLLWW/CxfzQIaNAQL9JsaSZTMPPvigM2oYIoxI586d7aqrrqrYzUWc6yeffNI9O/PAAw905cP8YOSoV+4E5/w//PDDZc+gUyeY79NOO83NDlFOrsfXX3/dnW/e49xSPmZkKjEQw2wzcKG+KMvIkSN/yFZiKLt16+ZmNjn/GGAy66VUZPtKq2hfRavUplJqPJKxkRqCymkqmcKjQ8JYYOTIYrVs2dJ14qXOauQS1ylmg44RU0EGi2wMnTkdOGYIk8bjezBtZCvLKcqHgaAM1BEdOeaMNeRjxoyx9u3b2zPPPOMyXZhLMoKY4nKKMmLCOL/0m3379nVwnhlAYNip38suu8zVaanNRpooI0vOaNdk2Wh3mEoyf5i28ePHu2UpPtPKFG855Y0Z5WL/DLreeustd220bdvWtTvOKwadMjLoKbcoQ4sWLezkk092A67hw4e7eqNeOd9XXnmlqzcyv5x3MqylVGT7SqtoX0WrlKbSmwwuPhoEDaQa1kd4MSKmQdCxMCIhkPky8x6vVUOZ6QAoAwGM0TEXY1wEXrIJBIhKltUHWqYvqDfKynSQn/rhff5POVkLVS2iXJx71pL56VnK7MuarO9yi/JRLqaA6JyA800bRdQlpgDT4uu60qJslJH4wnXk79zmWPxavkq1gXKaSs4VxoxnVHJumDKjwyQzU8kpcETcuOuuu5wp43wwrYwBevrpp937/Esm0/+/EiIrhKnAPPL3fffd5wwma/DQDTfc4Ew7GcxKCHNBxo9sG+Xkb7JXTOPS1slidejQwZmlcou2jam95JJLnJFs1aqVm44nW845pz8hVmOMGFgQ78op2j/LLRg0cF7J8GLcKDN1SPnon6+++mp3jrl2yi080T777GNnnnmmy5aSJac+KTNl4jXE+eZa8dd5qRTZvtIq2lfRKrWppNFS0dylygkhlVzJ9RFx0akxvUK5aCD+Lmo6cEaajI64+BhNVXJdDNMErD1htEk9Mi3w0ksvufJwYVJW1qQwcqJ+ufio+0qI801GgZ9So0xcgGQVqGvK7NdCEXwZ8ZV7yiVNmEam0hi9MwXD+WeKiABH27jiiitcWb2JK7dYj8g57tWrlwu8jOqZGiTg0pmSHaFTYKqS6Thv4Col6pORO22AMjGV6gdtGBfKTxugXjEH5W6r5TSVDKwwakyBk3lj2pvOnTqp1Hny9c3+yUoS4xg8Ef/oGFm/SGyhzWGIuRbKLfZPzKUNEfdYv8j1R19CRohOnP9jiLhGOZflFHVIGRnEE28xt9Qd1ygmknZOeyceY4IrcZMqdYY5ozzt2rWznXfe2WUFOd/ECwY8DPAwmfQr5R7kUYe0Qc4jsYwBDuVkGpk6o3wYXdoAca/c2WhE33XMMce4WEW/wCCBZQ70F7Q7psQpP3GXawWzWUpFtq+0ivZVtEppKjEMzz33nJ1zzjkuMND5tW7d2gWyashY0pBpNDTYI4880h544AH3+muvvWZt2rRxHR/pbi5K/i33SM6LDBqNlQbNiI6gyoVHQCBw0Gnx/xtvvNFNDWGCK5Vd47wyZUB56QAIalyEGE0CF/9ntEwAZmRPp15JEdRoA6w52muvvVwGCaNGmYFOgTJjhBg5V0IYdQYSRx99tAuwtFPMCdl/RvUEMzo12iudRSXvXKcjZaBGnXHN+7VStEc6VtbrUU7qlTZA+cu93qycppLjxvhQH5g1rk06TqbBKzVIpTPnPNFOuCaZ3mPajoETcYR4yDnj/HGuMJzlFmWjLZMhor/AYGDKMZPUJdkr+ivaEH9zjZRTxA3KRF9BDKZ/IPb6TCUmhOuAgWol1qVyjtknsY0BKIN71lRyfhnQ0GdgiJgO52/6FtpEOcVgmZjAsosXXnjB1RPJHc43MY2lGSRTqEP+roRnYGBDmbgm/A1imEmuX84173HtEMeIbRxLKRXZvtIq2lfRKqWpxNkTRDFldIJkKzgpVH65R5ZpIqjTsBmJMyWFCcIIs5bo9NNPdyN3jCRmmEDhp1zKLaapCJoEMiCDRgDz00EEVho5QcFPHVTCWPjRO8Gf0TvrnzBmdA5kamgHmE1GxAQOjBzlrpQoK+eU80sHSgaJEShB4qSTTrLHHnvMDTwoK0aewFcJUQaMOOt6CG78jQFg6ojgi0GjHTNNyaCNjqJSWVU6Ms73oYce6jLnBF7MFAMj6hOTwACDDoIpOcpPbCinymkqOQ9MfXLeyL5wbTJlVm4TlBTng4HIiSeeaAcffLA7V3SaXLMYScpKh0nGudxrP6kz9nvsscfa8ccf79oTxhEDwrVA+yauUEZmk7gWiD3lFDGO/pK4gcnwMQ4TghHi/5SP816Ou4KToj6oR/oz+gzqiEE855fBMYM9zBqGkoEqBrnc4hrgXGJ0yfCSQeW8k5HE5HKtUD4McaUGyj6uUkbKw3VCH4a3wR8wG0f/S3vEP9A+S6nI9pVW0b6KVilNJaN0MjxceJgzLixGR3R85e5I6hMjTUwDC4RpLGT8MEB+jRojOzo/pm8rKcpCmp1gRRkpH4aIi9FPDfg1PH4qvxIikLF/zjvmjIGEz0z5tUW0tTPOOMON5svdISD2ydQkZSPLwFQf9cYgCBN5yimn/PD8R0wm55+AXAkxWKAsBGCylH5Zhs+ik4lABF7aMQvey5118CKeYARYh0RdUkbKRCDm2mfwRseL/E0X5Z5eLaepRHTuZPvIahH3Kj1LQ9v3WSIGStQ/ZSOe+AEhGUEGrXyu3KJ8DE4oA4NOoP37jDb1R9l5n7hXiSU0nFPKSGaKfoHy+IECdchsB+XjvGPqKi3KhJlkQE8/Qt9MLMZsMuNRiTpkn5SJmS3qinZHe+P8U07KR7vkGqW+KyViKbGCchK7/PWLn2EtMq9z/stxXUe2r7SK9lW0Smkqucj887pouJwcP/1TqZFHmrypJKNCGRnFMf3tAxZGDVNB46mUKAdLCRgBM7L0D1Gm0+Y1OgCEoeBYuBjLLYKBh0EE9YVpw/hgMCkXrxHUMHGYyqzbXL6iDPxqDuaRESjZmd13391lT1ljdOqpp/5gzP3askqVlfokqFJm/mVKi/ZJmTBpDIYQHS8mjQxguTMjXgRZblo466yzXIdKBoTrnSlgMjmU2w8sMJqUt9wDoHKbSkmSpCwU2b7SKtpX0SqlqcSgkeVjyoupLwyFX2NSiccDJEUHTWaS6Timu1m3wQgOE4GpYGqZjprUN6aDzFYlRD2yxolMH1kq6pERHSbDd8xM2TOKopyY+Eqsg0LUJ2acUTznmI4a48YaI8wlU7dkaxhsUO5KZawxapxPpiLJTGJ+WVNJFti3WaYHmR73Swq8GSq3yHQwiACmLSkfU/V+HQ9l59wz+MG0MV3D8VVCDCZoo6yjJvvAlCp/YyiJL5Qb08vIHvPOtBExqJySqZQkqSEqsn2lVbSvolVKU+k7bqbAMRBkqlg7QWaiEun2pEhXYyDJ9tDJnHDCCS5LiWkjs0KGxZcZU1epaQxMGqaGu/fI7rGuAwPBdBXmjSlw6hfTxjoopsgrlamiPJTNG3EGERhJMtOsV6SM1ClrZZjOreRUIIMKDDsGnWw1Bo2yYzQwQWQCgbpnvUylykrGn2wk9enXalGnXLtMIVNu6hUYGGE8KyWua8wk559BkF/3xvmnvTIFTp36NsBgs9xTrDKVkiQ1REW2r7SK9lW0SmkqEdk0psRYgMvaLzJ/1bDGBMOLoSD7hGEg+0O2j/VFZCvpbKgPpsRZd8KalEqJ8pB9wpRRVtbVMXXr1/BgOln3x3vUbyXWQXmRqWSdERlU6o5yYjSpb7JYTOGzkJ11UqybqVRGLSnOL22BuqTNYsww55SVdWecg0qJ64XMHnWKuWT622f6/YJxzj1thLqutBjQsKYMw8h1TxbVDyKpV8rPcdAGSr2wPU0ylZIkNURFtq+0ivZVtEptKr3ICkE1CUNDmejw/L/gjQ7mwneGlRTl8evpKA+dNn/HDZl/r9KK12m8Lr18nSZfr7QoTxz/GmWlzJWWr7e08vhy+nJXi2gHaXVX6TYgUylJUkNUZPtKq2hfRatcplKSJKkaJFMpSVJDVGT7SqtoX0VLplKSpMakVVZZRaZSkqQGp8j2lVbRvoqWN5VbbrmlW5MlSZJUy1KmUpKkhqjI9pVW0b6KljeVm222mbtZhRsACLT+ESZCCFFLLLPMMu5JCklTyTN0JUmSqlWR7Suton0VLQLr6quvbksvvbTLVv7jH/+wnXbaSQghahLC5i677PIzU8mvPnHzkBBCVCN1rq/Eirxh0eJxP5tvvrmttNJKbq0REGCFEKIW2W+//dyzZ3m8kTeVzZo1sxYtWrjnaAK/TCWEENVEZPtKq8gbFi2edciDvocOHep+4UIIIWoZfjoSM8nIn98e9tlLBtbrrbeeEEJUJXWur8SKvKEkSZJUoCZPnux+pWrHHXe0v/3tb7bDDjsIIURVEtm+0iqKjZIkSVIeYskPZpIHsPNrRfxiFk++4Jd+hBCiWolsX2kVxUlJkiQpD/GTl/wcZ6V+H1+SJKkYRbavtIr2JUmSJEmSJNWoIttXWkX7kiRJkiRJkmpUke0rraJ9SZIkSZIkSTWqyPaVVtG+JEmSJEmSpBpVZPtKq2hfkiRJkiRJUo0qsn2lVbQvSZIkSZIkqUYV2b7SKtqXJEmSlIei0ClJkiQlFcVJSZIkKQ9FoVOSJElKKoqTkiRJUh6KQqckSZKUVBQnJUmSpDwUhU5JkiQpqShOSpIkSXkoCp2SJElSUlGclCRJkvJQFDolSZKkpKI4KUmSJOWhKHRKkiRJkiRJkiRJkiRJkiRJkiRJkiRJkiRJkiRJkiRJkiRJkiRJkiRJkiRJkiRJkiRJkiRJkiRJkiRJkiRJkiRJkiRJkiRJkiRJkiRJkiRJkiRJkiRJkiRJkiRJkiRJkiRJkiRJkiRJUh4ySZIkKW9FoVOSJElKKoqTkiRJUh6KQqckSZKUVBQnJUmSpDwUhc6CFH1VkiSppqVgJ0mSVIAin1iQoq9KkiTVtBTsJEmSClDkEwtS9FVJkqSaloKdJElSAYp8YkGKvipJklTTUrCTJEkqQJFPLEjRVyVJkmpaCnaSJEkFKPKJBSn6qiRJUk1LwU6SJKkART6xIEVflSRJqmkp2EmSJBWgyCcWpOirkiRJNS0FO0mSpAIU+cSCFH1VkmpK33//vc2YMcO+/fZbmzlzZvSq1JilYCdJklSAIp9YkKKvSlJNCUM5bNgwO/roo+3666+3hQsXRu9IjVUKdpIkSQUo8okFKfpq1QtTMGXKFBs/frw99dRTjhdeeME++eQTmz9/fvQpSaoTbeWYY46xJZdc0s466yxbsGBB9E55hbl9+eWX7ZlnnnFt9n//+5/jySeftNdee82+/vrripWtsUmmUpIkqQBFPrEgRV+tan322Wd29dVX20knnWSrrbYax+lYeuml7Z///Kedf/75rsOu9DQn5hYzw5SrjEJlxXk49thjXRtp2bJlxc7H888/b2uuueYPbTbOyiuvbM2bN7fLLrvMtfFKae7cuc7cfvfdd9ErtSmZSkmSpAIUdlQFK/pq1YrOFlOAOaC46667rv3973+3Pffc0/70pz/ZCius4F7fYYcd7I033oi+VRl98MEH1q1bN2vVqpW9/fbb0atSJYSpxLAts8wydvbZZ1fMVI4ZM+aHtrvTTjvZKaecYi1atLDDDz/c1ltvPfc677dp08YmT54cfau8eumll+z000+3Hj16OHNZq5KplCRJKkBhB1Wwoq9WpejgOnbsaE2bNrWVVlrJZZ5GjBjhzNvEiRPtvffesyuuuML22Wcf22WXXezVV1+NvlkZMc259dZb269+9St78MEHo1elSqhaTOUTTzxhSy21lDVr1syt7aRcZAS/+uorGzlypB122GGujKussopdddVV7gajcou2yv632GILe/3116NXa08ylZIkSQUo8okFKfpq1WnevHl24YUX2oorrmhNmjSx7t2729SpU6N3f6ovv/zSrU+bPn169MpPNWvWLGdQ6ci/+eabetdg8lm2x1o4L6bVySIBU4VJ8RpT3hjerbbayplKpuvZH/ul3Gk3inCMmAy/7fg+k+Kz7ANDkssgsS2OL1nG2bNnu3L47ftpej7LdusT+/Kf9ccwZ84cV15eY9tJ+elUPkN91idMFOfNf55tLuo7yJ9TvkP52Ea8jnmtPlNJuTnP7K+UhtObyuWWW84eeuih6NUfNXbsWNt8883tl7/8pbVr1y7n+Yi3Fcqc1g7TxPf4PN9Lth3fLm644QZbffXV7de//rVrw3yetuuvJ+qV79L+0soXP4e0jbh8W4hPrfNZf97S6p7rzZ+bRbXPQiRTKUmSVIAin1iQoq9WnZg+3n333d304K677upuyClUmKhHHnnEevXqZUcddZQdeOCB7m7gSy65xN04Ee/ovB599FE74ogj7JZbbnEdH9OX7du3t0MPPdRtg/WbZErjevbZZ916z3//+99unVwQBG46/uCDD3bf69evn+tYveikyQhddNFFduqpp7rPHXLIIda5c2d74IEH7KOPPoo++aPeffddV44zzzzT3n///ejVn4rjPOGEE5yR8QaLDn/06NFuP8OHD3fbufLKK+20006z4447zu644w73uVz69NNP3ZQ++33zzTft888/d8dDefn+ueee62468Z0/U6nUERk46N27t6ufpFHETDAQuO6665yZop6oB26u6dOnj40bNy765E/FcT399NPWtWtX953999/fmcfWrVu7zJ8fMNRnKidNmuSO4aCDDnL7ShqhLBU3lZzbpD788EP74x//6Ewl5z9psjBl3JA2ePBgO/74493xMnU+cODA1Hr14nsYVtoY7Za65Zxffvnlrn1xvigP7+24446uzbKUZOedd3bb51phFgDRdvv27eumyNPOC2XgPNIeyHrGj4HZA64N6htT+txzz7mpfspDm7z00kvdzXeIMnG9derUyR0nMxNDhgxxbTbNfBYqmUpJkqQCVGcTC1P01arTqFGjbNNNN3WdHR1PoSLbwRqxjTbayBlTzMU666zjMjJkP3//+987Y/LFF19E36jTeeed5z6/1157OSNF5nH99dd304O8jkE44IADbMKECdE36tbNbbPNNs5Qsj5uiSWWcNP13KCx1lprOaNE5gdheujMucGIDCzb5OYjPrfqqqu68tGhYgjiwpxssMEG7vOYpzRRBt7nGLzJw4RdfPHFrlz/+Mc/XMfvjwX+85//uM/lEqbgd7/7nTMcrG3db7/9fqhH7qymPpjyx1Tce++9zlgvv/zy7n2mfHn///7v/5y590YXvfLKK+51tku9cfzUF5/HYFEujjOeqeL79913n/3lL39x+6B9ULaNN97Y7e+cc875IZudy1Tyetu2bd0+qH/aSCmnnOOmkjpIihvMNtxwQ1dXDHbiog1fc8017rzSnjhO2iMZxTXWWMO1YW7ySWYtMclDhw51n2XpCOeb+uVf6hszzqDm5ptvtk022cRtmzZLOWmDa6+9tts+JhcxiML4cr7Tpuip0xNPPNG1J+o6fsMcbZ1t/+EPf3CDIs4d59nfcEf59t57b3euaae//e1v3fVJG+N71AuDvCzWS8tUSpIkFaAwSBes6KtVJ7JpGAc63Mcffzx6NT/RqQ4aNMiZBjqoI4880mVdMKr33HOP61Qxq2yfrFq8kyQjRLXwPaaxMZA33XST3X333c600Nnyfv/+/X+Y+sX4kPm84IILXIePSerSpYszEUwnkolhH4DJoLNnG5gqDOD999/vPtezZ093vLxHFi2encV8sOaN9x5++OHo1Z/qr3/9q3uf7GHcVFKXmBqOl06aG5zIPmKuMB/1ibL/+c9/dt/HlPzmN79x2T2mcqkrb2Qx79x4gsFkHSxmgsyoLzMZMW+sERlhDA2vUwb+T30xgPDHQTaUzKgXGUYyaRhCsl9kvTBHtA/MF+fXZx2TptK/RtkwK5xbsmfTpk1z75VK3lQuu+yyLvtNGTC+HMtdd93l1gNzrLQFMrdxUce+PfFYJI6PdcQcNwaf9s35oG3EhfGmnVJP++67r91+++2ufWH8aVebbbaZ3XnnnW4amiw2S0vYB+ePzOZjjz3m9u0HTmTGuckIA8h1lMwakvEni4npPOOMM36yjIO2ipHFrNKGGCywDcpIdhnzyDniOBm8UQ+0K8pAG+V7tNkBAwYsdkZZplKSJKkAhZ1TwYq+WnXq0KGD62wxLUzzFSI6UDorOiOyLckpQowKU4lsn6k/pni96FR5HQNGZiVuahB3dtMJMr0dz1YiDA6GjawQRjEpphH32GMPt30yesmbIshiYgB9JgcT4A1v3FSmZbyQN2OYpaSpxETT6bNfTEm+wlT67WIsMDbxjCNrRzFovE9dJrOo3qRjWN56663oVXNLCzhPadOaGB4yq2S1mHL3oiyYVuqG79anuKnEvGBIMKy0CYwK63XrW8OalTCV1D3GkvrDKJN5Y7DCkww41xhLsrxxYTyZrqbuaHNJ8T6Gkfdpp94csw6R7bM/2hrT63Hx/o033uhuKvPC0NNmyfomjS3yppK6oy3VZyrJ7sfrlbbK8WNwOR/vvPNO9E7dtDnnhveAAUa8vLxPlp9jpN6SswqFSqZSkkJxARMQ6SSS0w5SwxMdMtNV8Wm9rBQG34IVfbXqhBmkeEy75Vpfl0usLaRTpZOMd2Jx+WwOnWl8rZs3lTy2KG3tImsQMQJk7VjrFhfl3H777d37fC55vZJlovMka0XnnCbWu2EW+Bxrz/zNEotjKllHR8fO1GLazSL1yWcq2W5yehaxvpFycUy8HzeciDoh68sUazKjlpQvMxk8snBkdOMDCgzHdttt5+qGTF19WUZvKsmukWEmk8l0MQaYrJev1/rE+eNzPNaKrHEcDE6aIU4KU4kZo/4wykzTk7Hj/4BxZk1qUhh/DDRT0f58M+jwIKbuybqyXMJntXkuJgMx6pwMcK4447eBuBZos5zH5LILtLimkmuR8rDkIS62w/Q99UHbJGualB+UMBhibeXiSKZSkkIxrcZ0FmtZyjGyzlL5BN2GrGKOj+wW06ScT7I1WSoMvgUr+mrVifWOFI/Oho45X5HdYKqQjoybAdLuTkZkajBhZLKYqvbyphJjl3Z+mM5jmg6Tlsz4LcpUYh7YNnf70vmniQEkZpLP8SxOf1PQ4ppKDMF///vfn91ktCjFTSXTqElhQjBrZN0wJ0lh6ik3U6BkIOPCsPHrMixVwCSSqTr55JPtb3/7m9sfpjJ+7jmX3KBC/WLQyMhhFsmuJdcVYipZP8p54pyQKcWAkf3L1SaSou7IIGLaMDVMvQN/czNLPoMdyk8bA25IYlqXeiL7SMYVmOZNmnHWOzLo4ViZsiazTtbOc8IJJziDTT0xAPJZYG6UYSkCgyX2lY9KbSp5HTMfX/6A2A6ZbgYcrPdNe7YrSwb4PucwOYgrVDVtKrldHtdNap9/SUlLUproIAhIXFSsw6mk6CRpuwQwFk6TeUlru3SMdBYsvMYU15roALg5g7VBHF8hWUcyRQRw1kIVMg2Zj8IOpmBFX606YbzJSDFVmZwarE9MMXPXKNcM5iyekYmLDoy7yqkCOkQvbyq5USdtuo1OG4NCB5s0hosylZgqts26sfpuPGDNIp+jI/dmIQtTudtuuxWc7YmbSoxOUtQBGWHqJG3KH1OJ6cRU3nrrrdGrPz6DlJttyEqypo/1pBgiv24VU0kciQtDyDT2v/71Lzdw4HNks8lsx7PScVPJ+/6GLbKXySUNuUTd8WxJzBs3SXGjDFBOMoyLmoJHmErKyXIKlg7ERZkxumQvk+/xmB+MIeaZbCX7ZDATh3WI1C2ZWH9MnAOOlfdffPFF99qiVA5TiXlO/moQ22FwjankxrW0WYXbbrvNncNtt90250AsX9WcqWQkRaVRiYxAOekETNb+8OgFFjUzes53FFVKEZAobzIoSuWXN5UExkqayo8//tiZKO7+pAMh8LPQnpseuJEhHjCYpqJTJojz+VoT1yjGgGBJxiK+Jm9RwlTSSdBJpU33LI7C+i5Y0VerTnTmTKliLBd1M0lc3lTSkWMgcplK7mpmDSCf43EpXqU0lUzrsm3MUnxNW1zEXr+elAwZ1x2Km0rWwKUpn0xlKU1lrkwl72MqMQiIu4OZgmZqGgPEcgUywGyLbBQDCowm30uaSkTfxICW6XbuHGbbmDPuQPbT2snpbwa4mDT+T2YwX9EGKBODRwaBwJQ8j07iETmLkjeVTPHGl1kgBgyYU+oWMxYX7Z8lFvgEPANmz+8/DuXyU9+IARixhRiTb4a/EFNJWZKmkvWd3KCzOKYyV6aSgQhtAWOfVrZCVFOmkswNHa+/U45gyQXjR0B+jQXZCzIglRZl5fliXDjJtLxUXnGXKSM1bgColKlkyoypKdoowYrOiawHo0eCBcFm2LBh0afNBTk6dkbgTGfVmriemVolEPOTa2Rv8xWdJ1OFdKZZX+vh+SlY0VerTpgu3+FyI0O+xh3DwvQ3JgPTmOuawZjRlpmWY4rNa3FMJZ0ephLzgoFMmkqMIdvmuuAu9DSRceIZgXyOjtobl6ymv6vBVHIu2SbnKO1GKswQfSRLH9JMpRfHxrYYFPjH5vhriuwZppIBOVPNLGUgA0w9kMihj/N1VErVZyoZnFImysixsj7VC3NInVJvye/VJwaqbIvvcd7zSQyxL5IEfC9titmbSswdmcqkJ8BEkqnkfMpUlkGcAE4ahpELkxPHYyQIElyQBCkCGWt4GJWQ9q60mFqgrIwmZSorq0qbSgwUnRTTN3TCZCtZFwiM2K+99lr3ENv4FCWZBAYkTPfRKdWauCYwPXSirOcqpHOSqcxPZBiJkyzwJ7uEwYrfCezFueB1MlH+bmxmfTAZGEbaZ1Is2fB31mJc4+ZxcUwlbQKzRAdKpikpBls8zoVOFsPjn6nohQHwv26CKaDsPivEtjHJlC0ZlzEndL5+2piYUc2mkpkM+kHiGuspkyIDSR3xbMO4qWRNXto5IUNM9pd9+Hqnbr2p9I8UIovNo4g4FvpjrsVSqz5TiVj3yIwPhoy1vT6zzpMBMFqUNfnsx7iIz/H4gzFjzSfb40H/yRuS+DzmNW4emT3h/BGT0rKbDGy4Hpg1IOsbLwttlgES0/C+rDKVJRad6w477OAqnCmz5CMZvBgNMGXCv7nE9zgRad9Pis8kP0cDyDUdhPyoht/Rpbw8N41RJK+zLf9+mvItl99WLtX3Pq8n38tnnyhtu/zfB+008Z363k/Kfx74Ox/Fv5OmRZlKfwz51kOhogNgITjtgYXmyawC5WeqKZ+7KdPkyx4neTzsg/8n65TP1VfPxdSL339WYnvxMpAhk6nMT0z9YgLolDCWLBvChPDYGqb9MHjcuEG8IrPlp4XJrLNGi8PjusFU0WHxOlOGrOVjkITx5PqKa3FMJbHbL4vgJhI6bpIHdNRcN3ToxFS2zxpCbkaig+d3zFljyZ2wfjaLR874qW+EEfaPQeKYfF/BoIbpYxISlAkDU+2ZSjL7/teSqGfW/mGMMd2Yal8H3P0cN5WYbGZAMCIYSc4n5ovlAmw/vk45nqnE6Pg4QT377VMGyldKLcpUUhf+weEklmgLiPrwgyoysMRe4gXnnJjMeaENMKPI6z5m0c5ow/QZDDK4Q5w6ZLkAn2Pqn+OPt3vex+RTV6xDZlqe9aKYOOoN/JIMbjJj0Ea98TnaFoYSw8n7mE6ZyhKKyiWAUdmMRmgEhYoTysXDAlxS5UwX0DAYkTF65eJJihE7z+Hi5NPI+D7PpqIhEcgIXn5U70UAZYRII6SslJkTTWNifwTzeJBDTClw0bDmiVEWsF+CPu8lO3zqgzqgHJQ9KRoZDZzjTP6aAtNClIFpVi5EghkLtgmoBLP61rdwgfIZ9kug5//+4aqU2a9n9Y+owCQxeuOipr65SAlidApJ8RqZErZPB8dPTPEd/mYkzOg4TRhEpsgICtQx7YS64w7R+EVJmdNMJYMDjoG64rELnONSiGMj4NAe0rIKaaJsPJCYaam0ZwxSz9Q3AYljp75od5xL/vXnxLdt1r+RnSEbSgaCYMYx+3omWMYDFueYdsL71A/BvL6b4ThH1CXnmeuDc0jmi7aYZuRp17R7zg2fSTOulJmASRvjmJhu4/ohyLLkRaYyP2E0eHg5RQXMEeYBw0E9cm3wOgN3/9xHzg/1zDXDe/5GAMwnHSo3P9DJ086SSxe4BvkOhiPNVNKW/A0U3sB4cd3SfsgSUS7MGNk2nrHn2yemAHNIR8k2yLCxL8woJpd9U87k41cQscFnhIjR3InMcWMeOD6mv+nAiSlxU0mcZF98vlAThWllmQv7pA9Jijog+0qdxGcrvDAKvM9588sMiA8YTI6X8nIMLK/hxinMMcaFY+J78cwZU6+cSwwkywyoJ7K3DDjYPv0XsR3RH7BNzA5TsvGBIuX09XjKKafkzAJmIaaj2Q/nO810I+qCz7Cchn7d95tkZjHEvAfEYc4h9cQd8nyeuiA2xvsmvsdx8R0MLcdK9pLlE9QHdcvgyItrjJua+Dz3eVCnnAcMok9C0R595pTlA7Q3kg2cD7L9tGFMKdPg8f6LPpDv8Lk0U8nMF9ci+/Q3pcXFQIbrieskOYgrVDVhKulE/B2GPAYgl8GoT3R23AzBlAjb4cQRsHD+BBFGMDSKuDCgnETuDmN0x6iXkSSvsQ3gBgOyqF5c/DQSGr8fddAg+T8QHOMnlbUsrFXx63x8IOXiJuAx+sIYxi9mOmg/QsWwJbOmTJv6EREdSdwIsG8aHx0JZsV3GEDQS1sL4sV2yBzwWabR+L4fmfEaAZc1I5gARrIYPOqL4yHo8RkCH4/UiBtlyssvbbBcgPNBtoQA57+DccBQJB9NgqEnWLAPPs9FToDl/PD4iPg0Xy5TyTnmQmM/ZHDSLsgsRCAgm8B+WEfJiHdRwpT70Tcj37jIaDIIoT7J1nDc/jx4+D83+Ph1dHQmnCMCI50+nQmZJtonnycTQn1iKmjvBDmCrX+fAIm5Sxt4cI3SjjlXfv+0YbZP2+a6xTjG2yp/s1aUz/IolHgQRRhqfjnC75/zx7nlxgvqg/PNNSJTmZ/I3nDtsVYSM8l1AxhE2hmPJcEsxQehiAwYJo9rh7hBnXPDGyaPKbu0gQavc0fyCSeckPpIIc4ZBnDLLbd0A4ekMKJkCjFEtDs6YkxevI0wQGbQRFymg+ZzdPxkqvhsrmwisYcMEt/jbmDqgPbJQ9K5LomdGDJMpK8LvsPsGPVG5o4sVyGi7qlj7npOu7ubOiCmEz+TdzAjBrvEDfYfn27G/JGF4pgpM8fDNhgkkpHCCGJc4tkpzBKDSeKdv6Ob88BnMYrxWRSMIn0M9Uqdxgd+XL+YFYwp5zK+ljFrkVHEMLGv5MPuvYhBrKPleOib4gaRQQ9mnv6QNsU555ioG6a36V/YR3JgS1/BdcHabwZh1C9lwPRxvN58I77LeeJB5AwO2A/egu/Ht4tfoL2xLa4RzgM3VTHwIFHFOaY88fPANUisZ4CVHKThDbiu6b/pn9NmaUnu0FfTTtjP4qgmTCVGiEZP7KZhFypGgVxofJ8ASlAlu8MJZBSGIaHj4on68UbCxctJJ3WOsaRRYT75HuvfaBRsk2DhR+oEPQwsnbLPTHEiGf1htgi23hTzLx0xHT0jGy4Isjx8jtE/++T7dP7xhkCj4rOY1uTFgzBp/GQU28VcxRshptEvrGefmAZ+MYCLhGOrbwSOmWAajboiiNOps/ifURLPgORioLwcNxcA9cNUEYaO4+Ji5H0uNB5O7EXWzP/UFIGezoQLkSwXHRf1j3EiyHtxjGTkMOqk9HmP88X6Q0acXKTxjHDcVPrnfMUNJXVM1i9udrMU7YpyUd+YZYIUGYfkqDMu2hQdGOUj4HsRRPguHTxtF2PG6J06o11g5qh72jMZCt+m6TQxn4zMOXfUG9cT2UjaKCYUE0h7oIMmSGHeaO8EY973N2TE64ly+rV1bJvAhmnlGuC8eqNJW4gbfTpsAjrtlPbnzSrb5lz4tW+cI4Is5aA+OG4GHgzACNwylYWJAQmDJzo3YCDMAKY+EWMwaXRunBu+k8xOxsU1TVaGDi456EW8z8CTuFbfOjfep4xsJ9csCh0/5SK2YQwwm2n7TIrPUUa+Fze+DMJ4neOLt3PKyfYpSzLmLkqUB2PJsaQdB9umTqkT6iYp9sc5oz7SzhVxBGPKsWCMvYmhbjBhyWU1lIfvsE/KxGfSHoLO8RMv2a8fnMZFHGYbtIn62sPiihhG30Q5k4MeL8rKMVEH9C/xRIwX55lj4TP8y7mkH+Y46hPH5tsi5ahvmRLnL779tM9SDtoYxPspXuc8UtdxI4rBzHX8HDcDO9om5z6tbdJm2C7bWNyMck2YSkZidFZ0aoU8FgPRGPxdgJgZgk9cNCg6PgwHBjLeQWFSMJJ8F5OE2/cNlRNLx4mpodNMe9YWI0u+i/FLNnBOLEYLs0T2FJMbH5kgDCgGEOOAgfKNzJtKOlXMXLIRxU0lpix+sXP81CXlwlhgvtKCWJoIhn46AEOK4YgHGuqAkTjvk1FihBvPCnIeOR7qOn5XJ3XJlBRTCckLhrL7KQUMrRcXqp/Oow4WJW8qGelxAZKV9oaSDAEBoNQi0DElTL2zX8wfJhqzh9mKBxFEMPfHTibPi2NnpMvrmLl45p6gSlYHI+7XXnldf/31rr3xPQxePGNOB0tZeA94PBdtxZ8jykfWkPdoA74Doh1znjF5nFsyR/GBGW2TUTRGkPZIe/PtlXPtn4VI5tt3lnzfL3dhEBj/zWq+w3WBIeZ9mUpJkqTyqcEHOzo1zAgdMVkUsniFiCk3vksHnrZAGjECZOoP00HmxnekmEo6Q76f/BUDxMiA7BzTyZTLf8/LT9mzHi05EsLUMDXJ+2RLk2YK8R2MG58hk+ZHuItrKv0SgLTv1if27+/6w9T4jJ8Xa/cwK/795HQmoySMCfWMucgnm8A24lP5vp4wMxgSXiczFj/GNMVNJdk7Ms2YGTKtjBbzEeXF+GBK43DcixrpenE8TEOTGfTmknbNFAiL6+PbyWUqMYBkEzGILBtIyk+Zk/GND2Ywr345Bzc+xMWxsdaT73EDDG07LoweU6BkWTGffnRN9sUvxSCbmtaeeI1pUDLr1LfPnOcylUwhsRSC88V6zqTZRhwL9abpb0mSpPKpJkwlZhAjRFaQaeRCxDoKpvwwf9wkkiYMCp0dJg0z5M0bppK1F2RDkhlORJYO44h5o1zJbKQ3lRjVZGfLlAFT8nScmIxc8gts4w9UXVxTybpFypWvmfKiXrw5IJOUzKxiPPy6Qdb0JIVJYg0qmVeMYrLcmAymF5jm5Li4w7Nt27YuW8U2mcr3GTJMENO9rF3hPbaLwYpPq8eFqWRggZHDsFAGpsILqQNMMYuumYLlJgHgb56xSJY2zfykic9hyrjphPaGqeIYGMBglrxymUrWkrKGCVOZ9pNvPouJIYsbd28qaXe0v7goE22Y7zHASg6QEOeFsjIw8NPYmE9mAGgTTHfnEtvGBFL/ft9JU+kz5iwfIftPOyXzmSY+wxQ9n5OplCRJKo9qIthxp6CfVuVGgbQOL5fIiGEgyPTlWriNqcQYYNIwlz4Lw52PmEoyO8k7FBGfo4OlU2RNXyGmEvPEQmGMDjfi5BJTfZSf7JFf4J2FqcQEpC2Qr09xU4nZS64VoR7JuHHM1HtSfJ81dBhpzFl8mhSjQVYWA8m6Q8qIAeFfBhNsk2OJ7xMTQnaPxeZk0DBZGEYMJGtP4oaK15iiZXtMe1N33PmXzw0zXizMZjE85oiBCjDNzHIClkIkz38+wiRjuPydoZSNtoFYX5NmKjlu2ivHzNrb+Foosu6sXfXZ87jR9aaS46Z+4qLsLC1hX7TLNGHiaeuYUr9cwN9JSxtleUguMThiyQTbZ/0VymUqWR9KeycLmevaYMCnRwpJkiSVVzUR7HicCndNE7vj67nyETdHYGIwG/GbBOIi40bGiRtQmIr2i7Z9prIUphJzR/aRzjjtbkAvpt0xh2RL/d11WZnKxclULspUpj02h6li6pfzwQ1KvtysA/Tb5SYf6ov1fxw7ppFjZZvc3JLcJ+I4yIxyjv0NHNzpHz/fmEqfneTGIm78on64QWRRU+detAsGOGQHKRvwaCcypJjiQgY7SflMHuX3dcdayTRTiYYMGeJeZ7DFmmAy8phI3+ZYz5ts74trKtk+bZ2nG/jpcZYS+CcApD0KxYssJiYcY+nvsF+UqcTA57qjlGcpKlMpSZJUXtVEsGNKkzVoxG6m2nJNY6eJG2DIfMVNWVKYCm5uwIywLozODi2uqSQ7SplZU5k0fnTKGByMzfnnnx+9+nP5jp5Mlp/aZU0dj1WhvJgpX964MJsNxVRiTMisYaowJvEMI2JtINtk+jvNVHoxPc15wJBgIDGP/pz4NZU8JofHgXAHM5k+9klZ0+qwnCIjh0GkPL495DKVrMvkBh2Oh+/QRjmnHA+Zb26ywWgl21yWptJnKrnL0d80Q93nEjMMtMd4O85lKpna5rgwoNdcc417LSmMJ5lpPidTKUmSVB7VRLDDZLD+DHNIB0Sn6bMdaSKL4dcf0umRzeB7GItkR4vIPPnHrMRv5llcU+nv/mZtYNK0cFc0Bov3eW4gRjEpzA/vYRa4scRPF2MqMHd8l38xe3GRoeLmCUwnaw2r3VRSz3yH9ZHJeuDmDX9zUDxTSZvIdXOMLwNrCv0+vKnEyHMcTAtj1DgWHmWU6yaurMQgIteaT8pCRpb2R1lY8oByTX9jwrnTmmlu7vBmPSfrcsle8l3qOU2lMJVkmRm48D1u4OH/SXGd8PQEPsNjq/w5TJpKf6MOSxL4POeGQV58mQTic2Rn2R5PZ5CplCRJKo9qJtgx5Y2RYYoas8QNIUypkX1k6pH1knQudFpkL3iuHaYDWMdH3OcGBDpGbnQgC4SBIWPFmjzex7TEO8XFNZV0mGyXaVnMLXfKso6RY8EU0cmTjSG7xDMFMcIYQMwE2Vj/c2JkWeNP7kdkInmPsnEMHAvf4/Er3BmMEeV97piudlPJeSNDx+s8ZontUpfcCMVaRYwW24yvqcTU8JglMtEMMNg2N7bwywsslWAdJs+59Ockbir93cecPzK+bJvvpJ3jrER9cCMOd8eTjWVdIZlVHuuDmfM/4cYTAWgnKJeppG2Q8WOwxHapC0wi1wDf5bjSloiUwlTSjnnOJWtLyQ7TLniPslPPlJXrjzbDGsnk44HSTCWvc74oC8/bxCxzXdL+2B53t2OqyXxybchUSpIklUc1FezI7rEGzv/CBoaMDpBsHtDB8DqmiTVmfhoVo+EzfmSDMD6YIx5Fw//5Dh0lpiJuDDFydF50hrlMJYaR8qTd/U32CMNIh0rmkCl81rxhMBFGkBtWWGuG4cFY0MmCN7pkUJnG9VODXphTfg2Az3DcZG8xbDxrE7PBzRR08snpb/aNseB7hZpKjJt/GDc31aSZSv94mbQpfb7vH6Idv1GHxyv5rC0GkofTk2Uk88X/OQecO9ZW+n2yzpabWsheUw9kM9kG6/DYDlPl8Tuc/XIAsnvxZ2cyKOFOav8db+iyFusv/cPyOR6mjBmQYGY5Bl6nHDzqx7cjTLKvb+rEi/cZxNBmOJecbwZSXAucd4wrN/KQteSceDGVjHlnCUmaqfTrNFkjmSbaM22dcnpTiagzziflAcpAuTkfvh2z/hFTGje7mEfuVGebXNfeVCIeK+Szm2SwuVYx2NQb/+dc0e4x6lzfWSrcZ8GKvipJklTTqrlghxEj48J0MB0V8Rx45BAmA3PBzRTx3/Km88KE+Z/fwlxgbDB8PGqIx+P4O27jwnDQ6dN5pZlKOlNMIjdXkK1JmkpMFA8+p5yYItYNYoziZocMDI9NoaPmfcpFlg3jgVHkjtq4MYjrmWeecQaZbfM9TAX1wl3rGAR+/YQbVuKmkqlxjonOv1BTSWaRjCr1x79pppK75zkfZBiToj4wERwnptSbSqZ/MTlkqzDwlI3MF+sfyZ5hZjBN8TWVZK0wVhgojDfGBINFBo86Jxsdv3GGO5f5HIYqbirZN9PSfI/BCIODtCUSiyvMFD+/xs8geuPrYd/UJ1nkuDCVDH74DKbNiyl0n/2j3WNOaQfUPb9Cg3HkPdodZtaLdkG7oq3xyx1x0XY5dvbFdZQm2inXDAOp5HMsqVPOFYaSz9AmOR+YPtoxayCT09hclxhFPo9pjptKzh2Ze8wmx8j2GGAw0OC5tWQnMZ0YapYDZKmwDgpW9FVJkqSaVs0GO0wjRpEsBdABYdbiHVNSGBI6UzohpuH4lynI5PMWvVi7iNlk22nTiZgPMjZklzC7aXf/YrSY6mR/fA4j6jOoXhgbMjOYRD7H8WAw4mYwl8jy8VgXOllMos9oMv3I9jCRdN5edOx8jrIkTWE+ovw8UJ7yJk20N4es8Uv7SS/KwTli3/x8FZ+PC6PIOcV8gb97me9RH5y7+D6pf46fKVFu7qAe2H6yfhH1wVQz5yK5FpPtsC+Oi/V8yePKUtS53xfnmTLTBtMGDhw373FuMcmIsmHeGHiwnhCjR11j6oDPsabYr+dlUMGxI9owgyPqILk/2i4DHMrkM+lJMZ1NeTlHXBtJUe+0CwZjnD8+y75ytWP2yfHxOcqddt64zjm/XBdkp7nOEOeMa5NzGh9AZqE6m1iYoq9KkiTVtBTsJKmGhCklo4uPISufNthB/peYuEs812ekdDmXWKCir0qSJNW0FOwkqYZENo+bmfAxTFPzSCmyjzwpAMjqcbMMU8WsqY1Pf0v5qc4mFqboq5IkSTUtBTtJqjGx1pI1iKyZxTyy3pS1qB5e42Yb7n7PtR5Xyq3IJxYklh6w1pWb94QQolaRqZSkGhRrZ7n5hbvaudObu/yBv7mxiXWRuZ7jKdWvyCcWJB75xI1D3AQlhBC1ikylJNWwmA7n5ivWWkLyDmupcEU+sSBxV3r4jxBC1DZRnFykuBOTO0uBjok0J3fScnemEKL64E517prmTnruugb+5nUehJ72HbFowsBZsPjhhPAfIYSobSLPmJcwlsBjO7hrdOedd3bPYRRCiMZCGDgLlv+pSuA5rNtss437QYW06SMhhGioFDX9zeJ+nh3HzxTyzDshhGgsOJdYoOKmcsstt3TP1eT5mTwjVAghagWtqZQkSSpAziUWqLip5KckeUC8JElSraloU8mvnQghRGPDucQCFTeV/Oxm2s++SpIkNXQVZSq5i5Tfz7722muFEKJR4VxigZKplCSpMagoU8md37vvvruttdZa7kHKa6+9thBCNAqcSyxQMpWSJDUGFWUq+bk31gUtscQStsUWW7i7GIUQojHgXGKBkqmUJKkxqGhTSWBk1M7vDPPsO56Hx/PvhBCilnEusUDJVEqS1Bi0WKZyww03tNtvvz16VZIkqfblXGKBkqmUJKkxaLFN5W233Ra9KkmSVPtyLrFALY6pnDNnjrs5Ur/VLklStUumUpIkqQA5l1igijGV/HoZS4uIsZdccondeeed9tlnn7nXk+JRR99++61NmPCevfPOW/buu2/be+8JIcSiIWa89967NnnyV+6nuBdHMpWSJEkFyLnEAlWMqZw0aZJddtll1qVLFxs4cKC1a9fObrrpJvvmm2+iT/woTOVjj42yE0482/bbr4UdeEBLO/jAs4UQYpHst+9pdvQxLeyOO+6yGTNmRFGlOMlUSpIkFSDnEgtUoaaSbOSzzz5rHTp0cOvWP/nkExs+fLgzmOPHj3efmT9/vn3xxRf2wQcf2Ntvv239+p1va6+9iy35i4OtyZLNLVhKCCEWxfFhXDrYfvWrna1//wtt6tQpLr4Uq6ozlaReGXVLkiRVo5xLLFCFmkri4EMPPeRM5Lhx49xrY8aMsdatW9uTTz7pTOfMmTNt1KhRdvHFF9vAgefZIYceY6ustIct/YuzrelSXazZUp2FEGIRdLNfhjHjV6sebAMGDLVp02rEVM6bN8+NwO+77z4bMWKEG4GnrR1CjNBnzZoRMt1mz54mhBA5mTULuNFlTjhgTY8p+YqY5FxigSrWVHbt2tXGjh3r9oupbNu27Q+mkpj50Ucf2SuvvGzPPfeMde9+rq231kHWdMmzbfkm3WyFQAgh6mfFoGc4EG1ta655mJ0/6OLaMJVkJgmyffv2tR49erhAys+hffnll9EnfqqJEyfa0KGXWKdOPcKRfB/rKoQQOejcuXdID7vnnntt6tSpURQpThM//rgsphI988wz1rFjR7v77rvt888/t+uvv97FxldffTX6xI9auHBB+P5ttsmGh1uTX7YMTWXXsMMQQoj6WTHoEZrKVqGpPLR2TCWPy7jwwgvDkXZ3Nyrnd8WZ5hk9erTLSqLZs2e7uxu//vpre+SRR22bbfawpZb8pzVtsq81C/YTQohUgqX2DuPEn+2sM9uHA9VJLp4UqyefeqpsppIbdbjru1OnTnbeeedZmzZt7MYbb3QxMKn58+fZddfJVAohCqMmTSVT3UzrMBLnWWwsSieQEkBZN0Qmk1+yYMR+ww3Xheazh224wR625C9OsWDJLtZ0qc5CCJHKMr9ob8sseYCdeWZ3m/z1F1HUKU6j//e/splK4h6xljg4YMAAF2sxmmnLgubNm2vXXnurTKUQoiBq0lTy7LVWrVq5bbGWCJNJ1vKaa65xt7cTXJnyfuKJJ+yRRx62Cy4YbJv/ev/QULYIg2f3sGLS1woIIUSzpTrZsk0OsbPP7mlff/NVFHWK05gnnyybqfRiYM0sDbM1uSRTKYQohpo0lUzncJfjsGHDbMqUKfbOO++4R2nccccdNmvWLPcZjCVT4UzzPPnk0/an7Y6xZX55qoKnEKJemi3VMTSVB9s5DdRU5iOZSiFEMWRpKplDqQpTyQj8lltucUbyqquucusru3Xr5hakYyaTev75cfbnPx0rUymEWCQylUIIkU5NmkrWCDG9zZrKc889160fevzxx3M+2f3ZZ5+3P/9RplIIsWhkKoUQIp2aNJUIY8m6IbbNjTpz5syJ3vm5ZCqFEPkiUymEEOnUrKksRDKVQoh8ycpUEjBlKoUQtYRMZSiZSiFEvmRpKkfLVAohagiZylAylUKIfJGpFEKIdGQqQ8lUCiHyRaZSCCHSkakMJVMphMgXmUohhEhHpjKUTKUQIl9kKoUQIh2ZylAylUKIfJGpFEKIdGQqQ8lUCiHyRaZSCCHSkakMJVMphMgXmUohhEhHpjKUTKUQIl9kKoUQIh2ZylAylUKIfJGpFEKIdLI0lQtDZCqFEDWNTKUQQqQjUxlKplIIkS8ylUIIkY5MZSiZSiFEvmRpKh+XqRRC1BAylaFkKoUQ+SJTKYQQ6chUhpKpFELkS1amkoA5SqZSCFFDyFSGkqkUQuSLTKUQQqQjUxlKplIIkS8ylUIIkY5MZSiZSiFEvshUCiFEOjKVoWQqhRD5IlMphBDpyFSGkqkUQuRLpqbyfzKVQojaQaYylEylECJfZCqFECIdmcpQMpVCiHyRqRRCiHRkKkPJVAoh8kWmUggh0pGpDCVTKYTIF5lKIYRIR6YylEylECJfZCqFECIdmcpQMpVCiHxpaKby++/5lfHCJFMphCgGmcpQMpVCiHzJ1FQ+ka2pxEB+88039sILL9ioUaPs7bfftjlz5rj3ZsyYYa+99po99thjNm7cOPe5XIZz/vx5dt11t8lUCiEKQqYylEylECJfqjlTuXDhQmckBw8ebMcee6wNGTLEmccFCxbYk08+aeeee6516tTJunXrZvfcc49NnTrVfQ9hML3J/CFTuYFMpRAif2QqQ8lUCiHypdpN5ddff+0MZOvWra1v3772xRdf2Oeff24DBw50PPXUU3b11Vdb9+7d7dVXX/3BSJLRfP/9923cuLHhZ/5nXTr3tnXXPMCCJTCV3VLrQggh4shUhpKpFELkS7WvqcQkYizJVg4YMMAmTZrk3u/YsaPdd999NnfuXHvxxRfd/x9++GH3fzRt2jT3//POOy80nF1t//0OtVVX2sOaLnmOTKUQIi8atKlkVE4g/PLLL90Uz7x586J36kbdBFNG6T5o5pJMpRAiXxrCjTpTpkxxU99kJomBzz77rLVr185GjBjh3n/99detc+fOzmT6NZfz58+3b7/91mU1P/zwA7tg0CW2wTqHRJnK9LoQQog4DdpUsh7owQcfdOuDWCvEWiI0efJku/XWW61///7Wr18/t01G7rn03HPjZCqFEHnREEwlg+wLL7zQZR0xldyg06FDB7v99ttt5syZzmTy/5EjR/5kMO61cOECu/7627WmUghREA3aVE6fPj00hM9Znz597IQTTrCnn37avU6gZFR+7bXXOtq2bWtjxoxxI3FEhhND+tFHH9mECe+FgfYu2+r3h1qTJU5T8BRC1Eu1m0pmb5555hk7++yzrUWLFi72MeC+6KKL3CCbgfjQoUNd3Hzrrbeib/1UeqSQEKIYGrSpZO3Q7Nmz7dFHH7VWrVq5QMpU98UXX+xG6J988omjd+/eduWVV9p3333nvsfInCBMkO3Zs7uddNIptv46u1iwZIsweGrtkBAiN5mayowfKYQ++OADu+KKK+zUU08NY9tJbhp8/Pjx9sorr9iwYcOsR48ebq0lZnPWrFnRt34qmUohRDHUxI063OlIZpIpHTKQTIVjIpnmYdSOeWTR+ldf1XUAZCpZh/nyyy/b2LHP2VVXDbffbXGQMpVCiEVS7aaSGEgGktfgzTffdGslGXB/+umnbip8woQJLj7mkkylEKIYaspUPv/8827kPWjQIGckCaSsLSJrSfaSv9OkG3WEEPnSENZU+scEofjf+UqmUghRDA3aVJJxxDjeeeedbprn3nvvdXc93nLLLW4d5eOPP26jR492z2u7++673VR5mp57bqxMpRAiL6o9U5mFZCqFEMXQoE0lWclHHnnEzjnnHNtnn31cthITyfohMpVdunRxXHDBBW4fuaRMpRAiXxpCpnJxJVMphCiGBm0quZubuxrJSPL8NRaev/vuu85ssnaIG3dg4sSJ7mfKckmmUgiRLzKVQgiRToNfU4mxTIJYR8Tf9ZlJL5lKIUS+aPpbCCHSqYkbdRZXMpVCiHyRqRRCiHRkKkPJVAoh8kWmUggh0pGpDCVTKYTIF5lKIYRIR6YylEylECJfZCqFECIdmcpQMpVCiHyRqRRCiHRkKkPJVAoh8kWmUggh0pGpDCVTKYTIl0xN5RiZSiFE7SBTGUqmUgiRLzKVQgiRjkxlKJlKIUS+yFQKIUQ6MpWhZCqFEPkiUymEEOlkaiq/l6kUQtQ4MpVCCJGOTGUomUohRL7IVAohRDoylaFkKoUQ+SJTKYQQ6chUhpKpFELki0ylEEKkI1MZSqZSCJEvMpVCCJGOTGUomUohRL5kaipHy1QKIWoHmcpQMpVCiHzJzFSGAVOZSiFELSFTGUqmUgiRL5maSmUqhRA1hExlKJlKIUS+yFQKIUQ6MpWhZCqFEPkiUymEEOnIVIaSqaxOli+CtO0IkSUylUIIkY5MZSiZyuoDg7hs0C2ke94sF34+bVtCZIlMpRBCpCNTGUqmsrrAUK4UtLe1gjNtvaCFres4vR5a2Drhv6sEbUNj2dWRtl0hskCmUggh0pGpDCVTWT0s77KT3UIzeartEuxghwab2cHBb0N+l5NDgi3sgOD3tnlwZGgouyhjKUqKTKUQQqQjUxlKprJ6qDOV3e3XQXM7NtjA2gVLWttgmZAmOWkXLG3nBM3sj8E+UaZSplKUDplKIYRIR6YylExl+cH4pYGhbBo2yk2C452p7BAaxnbOOAY5aR+aznOC5Wz7YF9rFm6jWbS+EtL2LcTiUM2mcv78+TZz5kybOnWqzZgxwxYsWOBeR99//73Nnj3bvcdnFi7kN33SJVMphCgGmcpQMpXlZ3k3TV23/jEOU99NQ1O4adDcjg42DA0j2cimIc1ygrE8O1g+NJX7hN8PO31nKLu4faTtW4jFoRpN5csvv+y2+dFHH9lDDz1kN998s91xxx02btw4Zy7R559/biNGjLDrr7/e7r33Xnv33XedCU2TTKUQohgyNZXhuFemUtQL2cOVg/a2XbCv7RH8yfYM/hz++5efcVDwOzs9WCU0jUHIokxlU2sV/nt48Gvb3W3vz+7fbYIDbNWgndtnWlmEKIZqNJWvvPKK2yYm8sorr7Thw4dbv379rHPnzs5wkpm88847rXv37jZo0CD372WXXWZffPGF+15S33+/MDSft8tUCiEKQqYylExl+WB6e9Wgje0VbGetQ8PYJjSErYNlU2jq3oM0I5mkbjvNQnPJd5vZOeG/u4fmdPWgldtnWlmEKIZqzlR+/fXX9umnn4aBfJrLSp500kn2wAMPuKxkz5497fLLL7ePP/7Y7r//fuvQoUMY+579YRqcrCXfYxuTJn1uQ4deYRuue4gFMpVCiDxp0KaSNUKsGco1hcN78TVFuSRTWXq4AWc5t16yp60StLd9QlPZPljarYdMrpH0LCpD+VOauqnyDuH2Okbb3Sv4o0ylyJyGcKMO6yZvuukma9eunT3//PPOPHbs2NEeffRRZyJfe+0169SpkzOXc+fOdd9hmpzP3XDDDXbFFZfbCcedamusupc1XRJTqWy/EGLRNFhTyXTOG2+84YIka4gYqU+fPt29h5GcMGGCG6nD+++/n9N4IpnK0lH3Kzedw4bW0VYKWT78e/WgdWgqtw2NYN0NOOkmsRDqMppMgbcKlnOZTjKVuylTKUpApqby8exN5axZs+zhhx+2Pn362F133eUM5jPPPOMMJvEQvf76685kYirnzJnjXuMmnvHjx9sjjzxi99xzt7U6p4Ots8b+oak8W6ZSCJEXDdZUfvbZZ24kzvqggQMHurVDGEwCJIby/PPPtx49eli3bt3c3x988EH0zZ9r7NgX7C9/ai5TWQK4+Wat4Az7c7Cn/TP4h/0j+Jf9J9jJmgfrhWYwC0Pp11QuawcEf7C/B/8J9wH/tt8Fh7n1m1pTKbKkmk3ld999Z/fdd5916dLFrrvuOvvkk09cZhKzyGustSR2YhyZ/n7qqad+GHAz88PfMGvWDLvmmltskw0Ot2AJTX8LIfKjwZpKgieZyvfee8/efPNNN5XDwnQCJqNzAuaYMWPsiSeesLZt27q7HRmJe9UFzlluymfM6CfsT9sdLVNZAjCVmwVH2zHBhi57yF3agAlMM4jFQLaTbf452CvcZweXFV05+ncF3QEuMqYaTaVfUzlq1Cg75phj7OSTT3amcuTIkc5Yfvvtt3bLLbe4dZWXXnqpy2Jecsklbv1lmubPn2fXXnubM5W6UUcIkS8N1lQy+vYLzHmMRteuXW3IkCFuW4MHD3Z/f/PNN27R+XnnnecCKH8jpsdZuM7dkNdff6316NbDNt14r3BEfpqmeTKFdZRd7bfBUXZCsG60ftJPeReyXrJ+vKncNtjPPY4oCBs1z6rk8ULp5RKieKrRVPq7v5977jkX/4YNG+YeHXT77be7gTcxj0cKPfjgg3b11Vfbrbfeam+//fYPWcqk9EghIUQxZGkqF5TTVHpNmjTJBcnevXu7KSCM47nnnuseq8G6S9ZZXnTRRXbhhRfaV1/VdQAEUgIqAfeaa4aHhrSbbbLRnhYs2UKmMlO8qTzajg/Wz9xMetguDz//d/B32zQ4zj04fdOQtYMzbKWgU0q5hCieas5UsvyHWRwyk8RCBtZ+zSRitmbKlCl6+LkQoiQ0WFPJ+h+esXbNNde4qRzWBs2bN89NaZOl9FPh0KtXL7viiitcsPXf5bME27lz59gTTzxpf9zu6DB4avo7W8pjKtkmjxE6JVjdmgcbOo4N2Sn4j60WtNaaSpEpmZnKMGCOGpX9jTpZSKZSCFEMDXb6e/LkyS4DedhhhzkDyVoibsbBVHKHI3c6YjiBNZWjR492RjJNzz03Vnd/l4Rymcq651Qytc4Ue91PO+qRQqI0yFQKIUQ6DdZU8gDfvn37WosWLdy/3AHOHY1+6ufuu++2/v37O8N5zz33uNdySY8UKhXlM5V1262D/WAy+WUdmUqRNTKVQgiRToM1lUxdM/09ceJEZzCBNUQ+G8maIRams+aS7CVT3rkkU1kqymkqf4RHDLUJ/+XnHnkmpkylyBKZSiGESKfBmsosJVNZKmQqRe0hUymEEOlkaioXyFSKnyBTKWoPmUohhEhHpjKUTGWpqKyp3D34q60StLMmQW9rFvT8GZjNup+RFCJ/ZCqFECIdmcpQMpWlopKmsqntFWwfPauygzOXSVYMX+d3ydPLLkQ6MpVCCJGOTGUomcpSURlTyT4wlScE69jewbbuLvA4e7p//2LbB/s6c5lediHSkakUQoh0ZCpDyVSWikqaSjKWwQ/PrYzTMVgqfK+J7RtsY78KWtvyYTnTyy/Ez8nUVD4mUymEqB1kKkPJVJaKH01l8re/maJON4RZUvfMyiTtwzKQydwn2E6mUhSMTKUQQqQjUxlKprJ0YCo3D46yY4MNrHVo5FqFZq9VsKz7WUVv/H5uBksLhrZ1WIa9g+1lKkXBZGsq/ydTKYSoGWQqQ8lUlo7lgy62dnC6/SXYw/4V/CPkX7Zz8H/WPFgvNHjlylj+FJlKsTjIVAohRDoylaFkKktNZ1s5aG+rhKwUdLQ1gpa2b7B1aO7qpsLTjF8pkakUi4NMpRBCpCNTGUqmsrQwBc4zISEIejqDuXewnUylaJDIVAohRDoylaFkKssHxnK1oK27SUamUjREsjKV34em8nGZSiFEDSFTGUqmsnzIVIqGjkylEEKkI1MZSqayfMhUioaOTKUQQqSTpan8XqZSLIrKmsq651Z2CJYJ/w7CMmwrUykKRqZSCCHSkakMJVNZPipnKuuekXl6sIqdFqxmpwSr2y7BDmFZ2shUioKQqRRCiHRkKkPJVJaPSplK9oOR/GfwT9s6ONC2Cg62TYLj3SOO0sopRC5kKoUQIh2ZylAyleWjMqaSae8mdlywrv0mONqWCzobD2VfIaTu3/SyCpFGtqbyCZlKIUTNIFMZSqayfJTPVPJLPXW/881vjncIlrITgrXt18GxYRn4TfLumvYWRZGlqRytTKUQooaQqQwlU1k+ymkqzwmWtbOCFUNWspbB8nZksLFtGjR3D2OXoRTFkq2pVKZSCFE7yFSGkqksH+UxlU2tTcjhwW/sr8Getm1wgG0f7Ge/Dw6z1YNzNOUtFgtlKoUQIh2ZylAyleWjHKaS51C2Cf/dI/hLaCJbWbOgmzOSy7k1lOnlEiJflKkUQoh0ZCpDyVSWD28q9w22descOwRLu3WPhZvLuptv6tZM/hSeQ8l7ewZ/sl8FbUJT2SM0lKyj1JS3WHyUqRRCiHRkKkPJVJaPOlPZxnjweNvI/Pnp6rqba9IM5M/h822cEfXf+xEMKu/vEZpKprvZZ1pZhCgGZSqFECIdmcpQMpXlg2zhSkEH96zIXYIdbefg/2zX8N/Dgl+7G2vqjGG6kayD9wP3APN9gm3C7+/ktpOE7fIsypWDdspQikyRqRRCiHRkKkPJVJabLmHD6xgavvbu31WCtva3YFc7K1ghj2nwpsYjgo4JNrJfB83DbXV220mj7sHmnWP7FWLxkakUgido1D1FoxDStiNqC5nKUDKV5YcAQwaxbr1jF/tLsIedHZpK1kO2D41lbppYx2Cp0FRuaBsFJ1qToJfVPXfy5yiIiVIgUykEs051M0888zcZe3+O/0z6tkTtIFMZSqaychBsyCZiKs8MVnKZSO7czk3dDTpHBRvbxqGpbBr0DM1j+raFKAXVfKPOlClT7LXXXrMxY8bYc889ZxMnTrQFCxbYwoUL7ZNPPrGnn37axo4da1999ZV7LZdkKkUu6jKUXWz14GzbNDjONguODWm+CI518Xq1oLXidY0jUxlKprJy1E2LdA6DzjG2a7CD7Rn82T0KKDd/tr2CP9qOwS62dnBmZErTty1EKajGTOXLL7/stjlhwgS76aab7IILLrA+ffrYhRdeaG+88Ya9/fbbdumll1r37t2tW7duoWG81pnMXFq4YL5df93ttskGMpXip5BxJGb/ITjUDg02t+bBenZssGG98Jn9gy3dL5rpxydqG5nKUDKVlYVRLzfvcFc4jwBaNK1t1aBt2Hg7hd9N36YQpaIaM5XeVH799df21ltv2Ztvvmk33nijnXTSSc5AXn755daxY0d78MEH7ZZbbrHWrVvb/fffb3PmzHHfQ2Qu+f/MmTPtuynf2hWXX2cbr3+YTKX4Cc2i2aU/BfvYGcFK1ilYwljnXh985uRgDft9aESbhdtgyVLatkXDR6YylExl5flxfU6+pG9HiFJT7WsqmQJn6nvgwIF29tlnO1PZq1cvu/jii917n376qfv/ZZdd5v7vNWvWLGdO77nnHrv11pvt9NNb2Vqr72dNlzw7jIsyAY2Xuh+N4NFsrIFnHTs/KLFdcIB7CgemMf2myh/hMycE69oWwVHu+4HbRo+fwT4U2xs2DdZUzps3z7744gsbP368vfLKK/bxxx/b3Llz3XsEx/fee8+9x2fqWzuEZCorT906ncJI244QpabaTSUx784773TZyFatWjlTyZT38OHDbfr06fbll1/agAEDbOjQofbNN99E3zKbMWNGGAuftRtuuMGuuOJyO/74U2311faWqWzk1P2sbSf7VRAOMoIzbc2gpa0TnG47Bjtbi2CV0DDyrOF0M+nBVJ4YrGXbB/u4768VnOWWL8VZJ4R1mjwRJK0comHQYE3ltGnTbPTo0W70zYh88ODB9vzzz9u3335rjz/+uJ1//vluTdGVV17p1hl9//330Td/rueeGytTKYTIi2o2lfPnz3eDauLgE088Ye3bt3dxsEOHDi5GYiiJh5hMYuPUqVPd9xCDb0wnRvPLLyfZJRdfZRuud2g0/S1T2VhhqpolRzz27aDgt3aIYwtrHqxr5wTLhaZxUc8WhqbukXFHBxvYweH3oW47P26P9Zk7BzuG5vIMNxulxEHDpMGaSkbVr7/+uhtZYyIJmphL1gx17drVhgwZYrfeeqt16tTJrrnmmp8Ez6Sef/4F+8sfm8tUCiEWSTWaSmZrEIbxmWeecXeAP/DAA276mxt0mOomRhJfr7rqKmvXrp2NHDnSzfik6fuwcDfecIdtusERWlPZyGFKmszi/sEfrEOwhHUOfunWSPIzu/wQRbqJ/Ck8uYPP8h2+m4Rtdg5+YceGpnOj4CS3T93M0zBpsKaSzCPT3e+8847dfffdbqqHOx0ZjTPlw9ogspmMxjGZ7MOLR2x89NFHNmrUKLv/gftswIBBtvmm+1qwxGkKnkKIeqlmU0nGEgM5aNAgO++889zf3LjDcqCrr77aevfu7eBmnc8//9x9J03ukULX6JFCjRUMHcYOgqCn+7lbflqXR7ox3c2PVLTLK0P5U/hO3Xd/CttsHyxtRwW/tvWDU90+/RpLmcuGRYO+UYdR9ogRI9you3nz5m7NEGuFyE6yTaZzWFvECJ1HanjxPYIv2czevXvaySefZuuvs4sFS7bQNI8Qol6qefqbG2+IdQyqmclhups4yCCcZ1OyzhyTyfR4fWvN9ZzKxgvTzvwaGWsoMZOrBq1tw+BEOyD4g7V2RrJwM7lo2GYTOzrY2DYPjnbPs/T759fR/M1CaeUV1UWDNpWI9T+vvvqqey4bz2DDYJK1ZGRO0OSxGjxK4/3334++Ubd2iOnwjz/+KNz3+6HxvMe23vIwCzT9LYRYBFmayjEluFEnC8lUNk7qMpTdbIPgZPtPsJPtHWxnewbb237BVnZSsKa1CZjuLp2p5Mafg4LfuWcRs+/dgj/bb4MjQqPSya2zTCuzqC4arKlkQTnGkTVE7777rjOVZCQvuugit47o5ptvdmuLevTo4abFJ0+eHH3z5xo7VmsqhRD5IVMpahU/7f274HB3t3a7YBlnJOsoVZbS47dfZ1z55bQzgxVsx2BX9xxj/dBFw6DBmkoem3H77bc7Ewk9e/Z0aytZY8kjMfg/a4fOPfdc98w27orMJT1SSAiRL9mayjEylaJq8Kby96GpJDPZIVg6Wu9Y3BrKwmHN5jLhfpexjsESdnawrO0U7BKZSmUqGwJZmkorp6nk7m/ucGRNJfB7tkyFs3aIdURPPfWUPfroo24NEb8QUZ9kKoUQ+SJTKWqVHzOVR9iJwdouW1ja7KSnLkvZOvz77GAFaxlydrCce7j6DsFuMpUNiAZrKjGP3MXNTTeQXHTu36vv+ZReMpVCiHyRqRS1SmVNZRM7JVjddgv+an8Pdg75j3s25qZBc7emUjfqNAwarKnMUjKVQoh8kakUtUqlTGXdo4aWsaOCjUMTeXxYlo7uDvSV3J3fHcNy6e7vhoJMZSiZSiFEvmRlKk2mUlQZ5TeVmEnWUfKsSp5TualtED2nctnQnHBzDmVKK6uoTmQqQ8lUCiHyRaZS1CrlM5VNjV/ZYQ0lP/XYKlg2/DuwI4Lf2IbByWEZ+JlGmcmGiExlKJlKIUS+yFSKWqW8prKpnRCsY/u6Z2H+2fYK/90x2MXWDM6y5VxZ0ssoqhuZylAylUKIfJGpFLXKj6aS51R6U+kfeJ6LNNOYxo/fYbv8Os8ewZ9sreBMd3f3qkFbWzloF5ajszOUMpUNk2xN5fcylUKI2kamUtQq3lTynMqTE8+pTMJvdhdqKut+5ztwz6HErP43+KszkkHQK9xv3RrKtHKJhoNMZSiZSiFEvshUilrFm8rfBMfYIcHm7gHoZCxPDNb5GacHq7k1kfkZy6bWyj138lfuuycFa4X/rm1/D/5lqwRt3D7TyiMaHjKVoWQqhRD5IlMpahnWM/4qOMcZS6bBWV8Z57fBUS6TuWvwNzsjWDmaIk8zkj/CZ3gG5T9CE/nb4Ej3e95se73glHCfHd0+08oiGh4ylaFkKoUQ+ZKdqfxeplJUJZi8ZkH3VJq4qequtl2wn7UIVjN+VjHNSMbhM8cH69gWoaEMQtPBI4PYFtvR2snaQqYylEylECJfZCpFY4CfRUyjaWgaeBj5H4N9XaayY7CkM411ay/T4TMnBmu6DKc3p2xLjw2qPWQqQ8lUCiHyRaZSNGbq1j92tm2C/e24YB07K1gxNJerhKyaEz7Dr+WQqax7XJDMZK0iUxlKplIIkS8ylaIxQ4YRU7lu0MK2Dg60PwX72h+D/erlT8E+tlVwSPQMSn5yUaayVpGpDCVTKYTIl2xN5WiZStEgYS0kWcf41Hhu6j6r50/WPjKVoWQqhRD5IlMphDeIdesi8yd9W6J2kKkMJVMphMgXmUohhEhHpjKUTKUQIl9kKoUQIh2ZylAylUKIfJGpFEKIdGQqQ8lUCiHyRaZSCCHSkakMJVMphMgXmUohhEhHpjKUTKUQIl9kKoUQIh2ZylAylUKIfMnSVD4hUymEqCFkKkPJVAoh8kWmUggh0pGpDCVTKYTIF5lKIYRIJ1tTuVCmUghR28hUCiFEOjKVoWQqhRD5IlMphBDpyFSGkqkUQuRLtqbycZlKIUTNIFMZSqZSCJEvDcVUzps3z6ZOnWozZ86077//3r3G31999ZV7feHChe61NMlUCiGKQaYylEylECJfGoKpnDNnjo0ZM8b69etnDz30kM2YMcPef/99u/HGG+2CCy6wyy+/3MaNG2dz586NvvFT/WAqN5CpFELkj0xlKJlKIUS+VLupJCv51ltvWc+ePe3f//63XXjhhc5QXnXVVdapUydnKHv06GH9+/e3Dz74IPpWnXxGc/78eXb9dbfbphseYcESMpVCiPzI1FQulKkUQtQ41W4qP//8c7vrrrts0KBBdsopp9gVV1xhTz31lHXr1s2uvfZamzx5sj322GPWrl07l81csGCB+x5Zy48//theffUVGzv2+dCU9rf11jowMpXdUutCCCHi1ISpZHTNdM+sWbN+CJD8y7oh8K/lkkylECJfsjOVC0NTOSpTU0m8u+OOO2zo0KF23333OSM5ZMgQu/POO61jx442cuRI97nXX3/d/Z/P+CnwadOmObM5ePBgO/fcvnbwwUfZqivvYcGSZ8tUCiHyoiZM5TfffGN33323C6aTJk1yQfLZZ5910zzw/PPP51w7hGQqhRD5Uo2m8uWXX3abZJq7V69edtZZZ1nv3r1tv/32s2OOOcYGDBjgMpOPPPKIzZ8/330eU/nggw+6ATnixp6JEyfaa6+9auP+v73zjLLqOs+wDBEgy/mRldhZaXJkx8uObS3bkqzmJI4Sy9JyYktCoAZSrIYkBsk0w9CGGXoRVTCig4Yq0SWaBAwdhtFgOh5qEB1EbyqUL+fZ3INvxgd07uj6nnOH913rWTP3zB3Ys8u33/3tfc79YKV17NDD/uFv6mr7WwgRmqw3lWQnOYj+1FNPWU5Ojq1du9bKysosLy/PHUiHdu3auZW8n7H0zw35WrnyA7tLplIIEYK0msr56c1Ucmf3+++/727IIUOJqXz++edtzJgxzmwOGjTINm3aZBMnTrS2bdtaaWnpH8VDdOHCeRszeqJ98+v1dKOOECI0WW0qCYYYSLZ6WJk3a9bMZSg5kM62z8aNGx25ubkuqJ46dcr9Ho/SOH78uO3cudO2bdtqE9+ebD/4/mNWs1pDBU8hxFWJs6lk4cxCm0cHlZeXW+fOnZ2RJMay+CYucgMPWcpRo0a585VB4kadojff1t3fQoiUyGpTiSkcOXKkzZgxwyZMmOAC6KJFi9xWz+DBg52J5IwR2UpW7X4AJfBiNjGahYUDrUWLlvaNr//CalXP8YKnzg4JIa5MnE1lsjCX69evty1btritbc5MlpSUuGNCnJ3kqFBQlhLpOZVCiMqQtaaSc0G894UXXnDPYuO8UO3atd0hc7Z1yFbybDZMJdcwlWwNITKVfI+xXL36d17wHGO3fLeuFzy1/S2EuDrZYCoxi8n4IvZxhvLzbl6UqRRCVIasNZWsvJcvX26FhYU2cOBAd57y/vvvt/79+7vnspG15A5Hzg9xppIzRv72d0XpRh0hRFjSaSoX/wkzlV9EMpVCiMqQXlN5PnOmkhU354bY0t67d68VFRW5M5Vsf3O3d35+vstgdu3a1d20s2bNmitu9ZSUlMpUCiFCIVMphBDBZK2prCgOpRcXF7sH/2I2yWJyEB2WLVvmrl1JylQKIcIiUymEEMFUCVNJBpIzljyL0j8rxGvOU3I4/fPOD8lUCiHCkl5TOU+mUghRZagymcovIplKIURY0nujjkylEKLqkFZTeVGmUghRxUmbqbzomcpimUohRNVBptKTTKUQIiwylUIIEYxMpSeZSiFEWGQqhRAiGJlKTzKVQoiwpNNULpapFEJUIWQqPclUCiHCktZM5QKZSiFE1UGm0pNMpRAiLDKVQggRjEylJ5lKIURYZCqFECIYmUpPMpVCiLCk9UylTKUQogohU+lJplIIERaZSiGECEam0pNMpRAiLNr+FkKIYGQqPclUCiHCIlMphBDByFR6kqkUQoRFplIIIYKRqfQkUymECItMpRBCBCNT6UmmUggRFt2oI4QQwchUepKpFEKERaZSCCGCSaupNJlKIUQVJ62mcqFMpRCi6iBT6UmmUggRFplKIYQIRqbSk0ylECIsMpVCCBGMTKUnmUohRFjSZipNplIIUbWQqfQkUymECItMpRBCBCNT6UmmUggRlnSaykUylUKIKoRMpSeZSiFEWJSpFEKIYGQqPclUCiHCIlMphBDByFR6kqkUQoRF299CCBGMTKUnmUohRFhkKoUQIhiZSk8ylUKIsMR5+/vChQt27tw5+/TTT+3jjz92X7mGLl686JnFzxx8fzXJVAohKoNMpSeZSiFEWOJoKlevXu3+xX379tm8efNsypQpNm3aNFu8eLEdOXLEzp49a+vXr7eZM2fanDlzbMuWLc50Xknnzn1mRUVvy1QKIVJCptKTTKUQIixxNJVr1qxx/+LChQutSZMm1q5dOxs5cqQzkAcOHLCVK1dat27dHJ07d7b+/fvbpk2b/l/Gkowmmc1PPvnEmwhO2LCho+0bNz1htarJVAohwiFT6UmmUggRlrSeqVyUXlM5a9Yse/bZZ61169YuU1leXm4HDx60wsJCZzQxl2Qyc3NzbeLEiS6D6YvvV61a5X5v/PhxltOwqf3NVx9MmMr2gXUhhBDJyFR6kqkUQoQljqbS3/7GXPbp08fy8/OtTZs27nuMZkFBgQ0aNMiOHz9ue/futa5du9obb7xhR48edb+HTp06ZcXFxTZgwADr3qObPfb40/ZXf/HfnqlsKlMphAhF1ppKDpvv2bPHNmzY4M4Kbdy40T766CO3hXPixAnbunWru0YAZUvnagfTV5Z8IFMphAhFOk3lkjSZSv9GndOnT7tzlbt377bZs2db06ZNnaFs2bKlDR8+3AvwJ23//v1uG5zsZbKpPH/+vPv54cMfef/GXs9cDrV//PvHtf0thAhN1ppKDGTv3r2tUaNG9tprr9nQoUNt3bp1LmCOHTvWBVIgeJaUlDgTmixMJkEUli1bYXfe/j8ylUKIzyWtZyrTbCo5D8k2NvGNRTXb3O3bt7e2bdu6OLlr1y53ndecucREBun8+XM2evRE3agjhEiJrDWVrMZZfXN+aMSIEbZo0SJnNDmozup8zJgxtmTJEmcs+/Xr562+Dyd+89KKnJU87509e5b16dPPvvOth6xmtYba5hFCXJU4mkp/+5ubb9junjt3rg0ePNiaNWtm06dPd3eDc6aSWMn2dl5eni1dutQ9fihIeqSQEKIyZK2pPHTokNu+ady4sVt1d+nSxZlItniaN2/utsVZsY8ePdoF0+3btyd+89LWOUGY3+/WrbM1bNjIbvr7B6xW9RyZSiHEVUmrqVyc3ht11q5d62Jg3759beDAgc5g8kghFtzvvvuuu86d35yd5HzllSRTKYSoDFlrKnnGGtnGbdu2OYPYqVMnt/pmu4c7H/k3OV85efJk95rnsvlia+jMmTMu0B46dMBmzpxjt/6gnhc8tf0thLg6cd7+Jq5xjpz4x1Gg5Lu7uRGHc+js8iRfD5JMpRCiMmStqfQ/NQLxlfNBPJ+tRYsW7itGkyA6ZMgQl6ncuXOne2+QSkpKdaOOECIUcTaV6ZJMpRCiMmT1jTorVqxwcDayVatW7jEZkyZNcmct2drmeWtkLrmJhzvCryQ9UkgIERaZSiGECCZrTSWfEjFhwgTr3r27u8P79ddfd9nJY8eOuYf79ujRwzp27OgMJVvf/uffBkmmUggRljieqZSpFELEgaw1ldxsw9kg7nbkUyO4cce/k5Hzlmx3b9682WU0udv7as+plKkUQoRFplIIIYLJWlOZTslUCiHCou1vIYQIRqbSk0ylECIsylQKIUQwMpWeZCqFEGFRplIIIYKRqfQkUymECItMpRBCBCNT6UmmUggRFm1/CyFEMDKVnmQqhRBhkakUQohgZCo9yVQKIcIiUymEEMHIVHqSqRRChEWmUgghgpGp9CRTKYQIi0ylEEIEI1PpSaZSCBEWmUohhAhGptKTTKUQIiwylUIIEYxMpSeZSiFEWGQqhRAiGJlKTzKVQoiwyFQKIUQwMpWeZCqFEGGRqRRCiGBkKj3JVAohwiJTKYQQwchUepKpFEKEJa2mcolMpRCi6iBT6UmmUggRFplKIYQIJr2m8oJMpRCiaiNTKYQQwchUepKpFEKERaZSCCGCkan0JFMphAiLTKUQQgQjU+lJplIIERaZSiGECEam0pNMpRAiLOk1lfNlKoUQVQaZSk8ylUKIsMhUCiFEMDKVnmQqhRBhkakUQohgZCo9yVQKIcIiUymEEMHIVHqSqRRChEWmUgghgpGp9CRTKYQIS9xN5blz5+zw4cO2a9cu27dvn505c8YuXrxoFy5csKNHj9ru3bvt0KFD9umnnyZ+448lUymEqAwylZ5kKoUQYYmzqcRQbtq0yd566y0bPHiw+7pjxw47f/68+zphwgTr16+fDR8+3FavXu2Zx8/c71XUuXOfWVHR2zKVQoiUSK+pvChTKYSo2qTPVF60JUuK02IqMYho27ZtVlhYaF27drU333zTZs6caXv27LEjR4641+3bt7chQ4ZY586drW/fvvbhhx+636uoc+cxlcpUCiFSQ6bSk0ylECIscTSVa9ascf8i8fOZZ56xjh072vjx423WrFm2f/9+W79+vbVr185Gjx7tDGZxcbHl5ubawoULXXYTsR3O1viGDRts1aoy69Sxh/3D39axWtVkKoUQ4ch6U8m2zokTJ9xZobNnz7pzQ8nXT5486b6/mmQqhRBhiaOpXLdunYt9vXr1snvvvdfy8/Pd9jfGccqUKTZnzhxr06aNzZ07152vxDi2bdvW3nnnHfvkk09caU6fPu1MJr/Xp09vq1fvWfvqX/7SbqjexIuL7QPrQgghkslqU4lhXL58uY0bN87GjBljZWVlzlgC10eNGuXge65dSTKVQoiwpNdULki7qaxTp44tWLDADh486F737NnTxVVMJOYS8f7WrVvbjBkzLptKzleS1dy8ebP387XWtUtvu+nv6iYylTKVQojPJ2tNJQFw3rx51qlTJ3fwHGPJYXXM46pVqywvL88F0x49erjv165dezmLWVFlZavsrjuekakUQnwucTSV/vb3xIkT7dVXX7XZs2e785XEP+Lj4sWL3TnLQYMG2ZYtW1z2ksxlSUnJ5e3vZF24cN7GJG7UqaUzlUKIkGStqeSAOWeEGjZs6A6mT5o0ya2weXzGiBEj3IH0jRs3OgiemM5Tp06538VcsjXOv/G//7vDpkyeaj+65QmrKVMphPgc4mgq/Rt1du7c6Yxjhw4dnIlkQc35yePHjzujWVBQYF26dHHxsaioyD16KEh6pJAQojJkralkq7t27dpWv359GzBggDtDxF2NZCS7d+/uvueMEMGUuxz79+9vH330kftdVuacKeJuSH63efMWdvNNv7Ba1XO0zSOEuCpxNJX+I4VYMG/fvt0tskeOHGmLFi1yMRBx7hyDyeOEpk2b5hbVV9q9kakUQlSGrDWVbNs8+OCD7tEYBw4ccKvwli1b2tSpU91KfNiwYS5rSXayoqnkxp29e/faihUrbOHCYhs48A375+88YrWqNZSpFEJclTibSsSNOB9//LFbVFfc2ubYEDHRP0d5JclUCiEqQ9aayvLycrf13adPHzt27JjNnz/fmjdv7swldy+SuWQ7nPNDrVq1cls9/vY3IvD60o06QoiwxN1UpkMylUKIypC1ppJVOJ8WwXlJDqJjIslG8m9xow6vu3XrdvlcEQfZr7TVU1JSKlMphAiFTKUQQgSTtaYS8RDf9957z211YzC3bt3qMpA8xHflypXuTBHw/dW2e5SpFEKERaZSCCGCyWpTiTgzhGHkrFDyljZZSa5jMK+UofQlUymECItMpRBCBJNeU2mZN5XpkEylECIs6TWVC2UqhRBVBplKTzKVQoiwyFQKIUQwMpWeZCqFEGG5VkzlqJET7OabnrAa1zW2G2u098izG6+PN1/xyglBP4sTX/Hq8s9dWYN/Hicoo6vTmJc1W8pJ+bKp7SlrKnX6lesLrPp1Te1rX3vUer42wE7IVAZPJEIIAekzlRZzUznWbv76L+36Lz1mX77+eftyjRcufY09zwVcixc3JPhyjT/+WfyIf33+AcqaRe0fe/z6TKVOX7Rq1z1hf/21BzxT2V+mUqZSCHE1rg1T+ZnNn7fAXnqphf30356022992B785Sv25OMtPVrEjvpP5FqdhxvbHT+uY/fc/Zg9/mhzq+ddC3pv1NR/MtceuL+B/fAHv7T7fvacPfEYdRrHes21x+o2t5/+a3274/ZH7OEHX/Wuxa+ctHOd2k3s7rsetbvurGt1H2ka27Z/ql5re/hXr9pttz1s9/70aa9+f+tdj2Pbt7QnvK+U8Zbv/cIe/O8cezJ0nba0Oo80tmeeaWJTp063M2dOJ6JK5SRTKYSo0lwLppInZpw4fty2bN5sI0cOtzZtWrlPH9u6dbN3rTx27Ni+zUpLS6xjxwLr2bOHrVu31rZv2xr43qjZ5pVr2vQp1rx5E2++G2/l5b+PZb1u3brFNmxYb28MGmj5BXm2bPlSdy3ovVGyfftWKysrtR49ulm3bl28sbAqtm2/Y8c2bxwtsHbt2tiIkcNc/caxTilTefkmGzFimOXkvGzz58+zrdvCl5Pf5YNn+BTDip/qlaqy11Te/ozVuI7P/i7wJg6Pmvmx5M/5WguyoJyQVM7L12JExXLGsYxwqd0Tdem1f7zLCX9o9zhSsd0r/vxq3FC9rX25xmOeqexYZU1lsoqL59vrA/rb3r17ElfiqRMnj3uT4HAbP36c276PszC9mN/S0pWJK/HUxYsXbNasmTZ06BA7fPhw4mr8dPr0SRs3bqyNHl1kZ8+eSVyNpxhHhYUDnVHjI6PjrAUL5ltBQb7t2vVh4krmlZWmctmyFfajH9XxAnRdq/mll61GtRft+moNYkuNL71otaq95JUz+OdxgfLVqvay1az+YqzLStlqem0OQT+PCzW8eqxZnXaPdzlrXu6fMa9Pr3y1vPpMtd2/dN2z9mfVf2avvNLaDh06kIgilVPcTSWTHp9QNmXKFDtw4Iv9rX9qnThxwjNAs2zevHnus8/jLLI4EyZMsI0bN37uc5SjFFmmFStW2LvvzrCjR48mrsZPfATz3Llz7b333rczZ+JtKg8ePGjTpk23srIy9xztuIrnfjP233zzTdu3b1/iauaVlaZy3boN1uDFZvbj2x+xb958v915Rz2772cv233/+VL88Mp1z91P27e/9Qu74/Yn7Of3NQx+X9R45bz331+wb33zAfv+9x6y/7i3QTzr1CvTv//0Ofved35l3//ug8HviQG0860/fNT1z7vvfMrui3G7X+qf/2V3/tgbR0HviQNeOf/1X56xf/rG/Xb7rY/Zz4LecwXuvfcF7/31rG/fgXbk6JFEFKmcNm3aEGtTycRy/Phx279/vzNqyR8wETdxDvTQoUNuyy3ORg3xMcNM1JihONcp9YiZxAhhgOJaVtqedqf9v+h2659afCgLCzTGVdz7KWXcvXt3pIu0rDSVJ0+etN///vdu5fjiiy/Z2LHjrMxz6KWlH8QOVg6Tp0yxJk2b2tChQ91k8sEHwe+Nkg8+KLPFi5dYTsMc69ihoy1dusxbmcWvTqnP+fOLLS+vvRUUdHCrxzjW55rVa6xwYKE1aPCivfXWRK/d1wS+L2po40mTJlvTJk1t7Jhxri7jWJ+/W/U7mzVrthvvgwcPsZUrS0OXk499LSlZadu37/jCmQbMhXOJKSqT29+SJElRKStNpb/64tBsfn57W73aD9BcjxtsnWy2Xr1e80zbIvc6+H1Rw4R5yrp07uSZ9NHeSuesuxb83ijhM+QP2/Dhw6yo6E33+pKC3hsVlzRv3lzLa9/O9dNLCnpv1Jht3lxuvXv38ozOKvf6koLeGyWXzjYx3jk4f+GCf7Yp6L0VIbtw0cWNdGRunEtMUTKVkiRdC8pKU+lrx44dnrkY7s67xFm7du2ycePG2Zo1axJX4inOtowaNcree+89l/KPqziL9c4777jzWHHWytJSGzp0mOuncRb9c/yECZ653Jy4Ek+xXcZ4J1sd5baec4kpKpOmkq1FtsHY0YnT1iJlIdNLuYgvyVuJbNcdO3bMbS9HucVIvyKbTYxhG5mYmFwevqeM1G+Uxwv4fzk/S/moN0guD3VNPVPOOJ0DpP7Onj3r8OuV8lF+yhvljTB+21OOI0eOuBud/DLxM7+P0oej7KO+KBNj3e+ryXXqXwe+z6Sy2lQyuLdt2+YqLs6iE1JndNQ4i0CEAdq7d2+s73Jj4GOE9uyJ992tBCX6J4EpzqJ/7ty5M/bjiKBJfVKv/uQZhZxLTFGZMJXUCXXDDRCDBg1yx22WLFni4mTUYrL78MMP3Xzx2muvuQWhXy7OgE2ePNlef/11t2hYu3ZtZEYI48CxChbXb7zxho0ZM8YlAygPrF692v1s4MCBNnXqVFf2qPoiRmLhwoU2YsQIGzx4sE2aNMm2b9/u6nXZsmWu/QsLC2327Nnu7GKUYwYxp3Cj05AhQ9yNZBg05kT6Am3P9VJvIU4bRCHmP45TMXb88jCWqGfmmmnTprl250YY+kFU5US0JYvs4uJiGzlypOsDy5cvd23PfLNo0SLXJ2h/boTjvZlq/6w2lVQSwQqiHjBXUzaUESXXZ5yVLeX0y5gt9ZkN/ZOJKeqyOpeYojJhKjHd7DK0bt3a+vXr58xb+/bt3d3AUfdB2g3Dw4T8/PPPW5cuXZyhYEFTVFRkLVu2dCaO8lLuqHafmJCZqMeOHWtvvfWWdejQwZUH80j5e/ToYd26dXMTdtu2bd17ojLt1B/mcebMmW4njDrESC5dutQKCgpcWTFB9AcMMHUdpbjRadiwYfbII4+4dqaN2XFq06aNKyf12rVrV1u3bl0k45vxQz2+/PLLNmDAAFc2zCOGfPz48dauXTtnNDt37mw9e/a08vLyyMYVbTl9+nTLz893BhgfRkyh/3KGnPrt06eP+zvop5l8wkJWm0pJkqRMy7nEFJUJU8kdv0zOTHpbt/KA6TI3YTMRRv3YFkwCmT52Qnr16mXdu3d32ROMGgaIyY/yz58/31q1auWyV1FkK8lWke0li0aGiqwkpmz9+vWXy0YWiN0cMlqdOnVy82GmRX36xxwoC1kqyokpI2uFAcJcUDbMJeVkNyIqYXbI+rFwoJwYdQwx5aJ8/A28pr+SxYwiC4ipxDy+9NJLbtGDt+GGYMYSr2lvFhcYNP6GKI+JMW5YRDRo0MDVJRl1+ij9lgURRpIMOzs7lJ2MJeY4E8r6TCWdlW07gkEc5A92VhKsYCueZyC4E6yiPLNIGckc+GWhDitudzOo6aBRpvgRK0HqklU5ZU2uT37mnx2rWP4oRV+k3vw+STn9fhp1Oak/ysGEDvRR+gPy25zgGhfRR2l76i95jFPGqPqnc4kpKhOmku1lJhi2kKkfJmrMGzB24iDakWwaxhITifHFAJF1QUzgvGZijCoD6IsJuXfv3ta/f39nyNheJjNEGTG8mB/KumHDhsRvZF7EP7a38/Ly7JVXXnGGEgNBJo3MIOOD7DAmKKpyUlccw+jbt6/L/mHO6JPUX/PmzV35EHXMgojt3CiO4lBOxiV9jzJgxmh72p2FD2Vn3t60aZPrBxMnTowsVnKu/KGHHrJ69eo5o96xY0e3oGQ88ZX2J75TjywqiQvEh0woa00lHYDzGXQAtk9YqUWd3kdMfAQjOhypfjopkzawymEbgqBKIKDRoxAmhzacMWOGW4mzhUM5GSCUk2BEpoAAxXs4T+Ibj0wL40CGgDYGzhD5xocBRPlZpVH+igY+CtEHWckyLhjElIkVJCtggidbkVFNlhhazqtRDgINgZPsAMaNCd5v83fffdf11SjFOKL+2Nqj3efMmeOevcjfQNkI8JSV6zxDLpP907nEFJUJU8k5YyYP4gv9kHHLliITTNxMJVtzxD+2FzFmxEXEliiv2YaM0lQSwzFnmF8yPtQnY5ptRbY9MRecA8XMMQ9lWv6cQhwkm4ZBw+iQqfQXEiwq+DnjHFMZRTkRGTIMJVk12p3t5fr167u+2ahRo8umkiw25oiYTj/JtJgXaVeMOCxYsMBlTqlT+iRxkeuYc/oBZjNKU1m3bl2X6WWc4ydoY/9sMmOeemeuxHQSF4gPmVBWmkoan4maVQ1nXlhNku7lLExU5scXZpcgxOBh4DDxUSYCKI1NJ+W8U9OmTZ3xjMIIM2FjbgjuGDICJ4OEwcLKBqPOIGJLiusMcrJFUQizg3FgsGDSW7Ro4ept8eLFrmwMHvoBATWqszi+6JeYNM6MPfXUU26hw6qWgU8ApZ7ppwSr5KxbpkTfJIAT1MkWkB1iHBF86AeUjVUu9YrpJAsShahHtneYiMgWYCrff/99t9jBQFJ2v3/6BiSTmQ3nElNUJkwl27ac9SMmEoPIDhFvaPOoJr9ksSBgYmPMYsbI+PHEAcYH8ZJ5hUUEkyPtTX/NtOh7mDTGKn2LBaK/Q8L3bH8zgVNu4jnjOlOTdbKIcywGWWgxfhkvzIPER+YX2p0FOEaSMcQWc1Q3NhJH/JtxGNPERs5V8pp+QNmoT9qccvsZwUyLNmaeI8b4N7wRExlT1CHmjEUPiRb6KP0hij6KKAdtjVlkHFFn1CVzJQkM6pH5hyQCRp14zt+UCWWlqSRAYjJyc3PdnXpUMIGJYBXVROiLoMRqhsFMAKJDEkxLSkosJyfH1Rcdl1UwRiiKx7hQRgIlgwdTy8FuTC6DiFU4Jg1jSRCinhlArIyiEIOWwcDWCGeZfvvb37pVOIaC+qMvUjbKyIo8qmMFBHnaksFLXQJBnTsG6ae0P2Vl1UswzdT5lmRRN9QRGQP6H5MjEyLjByOJscS40eZsS0W1XUY5yQI899xzbsIhk06AZNVNdpq6JTND/2TBk+lx5FxiisqEqWSssNjyb9Kgr2F6MJhxEPGGBSGLLrbtMLssBGlrDJxv5Ji8ozBqiMUJMbtOnTpu3I4ePdotAkkKEIP8M6sYOPodkznmLgqRsSe+MG458kB5qFMSBpgNjBBfuY4BYl6KQsw31BFzM+1KcoCyYXgol38zFF8xncSjKEQZiTPUIckg2plykU0nS4k5w7DzlT5KPI8qiUE/ZSzRtswnfplYXDCmGPfgJ134uzJlgLPSVNI5GUQETQwH2yRkL1hVRL1t5wvTQGOSDWSSpFOS6ufwNGLlhunEbGRayQOBstGGrGyY6HikA5MSkxMrNwIURg7DGZVoY+qPAfTqq6+6Ac+kSYDnbyGbidGkP2QyY5Us+h0ZNcw4kyQmDdNGAKUfsBXFoPYDahTPriQ7SvaKIMRZIYI4JpOMJatcfsYEQJ9s1qyZM8VRBE3GMwbjgQcecG1OFov2pk+yEsdU0lf5ezgsz7jP5KLHucQUlQlTiZgYmQQx4hhvFrdRZVMqigUL45iYyOKLcUKWhfHNwhZzhEnDeEQ1WbPI5rgN4xRzgamkzxHP/UwrfwPjnPHC4jyqslJvjFEyU7Q35aGcxG2SAxwp4FPnWIhFsSMWJOoQ00gfZZxjdEkMUZ+Ul/7Ae6IQ44SdJcYN7U7WnPJQn3gOdqHYFSFTydGcqMqJ6HP0PcYNbUxZ8WWUifIy7hlf9A3MeyZ3KrLSVJKxIDBhIvzzdawuyVZFtcKtKAY8KwXML5MfEzeZSgY4IlBFZSp9YSgxi5hIVrwMcv9xBHRWDAavMZVsTUQlJkq2aRnQZNAwZZSRbBuirjEdmLcoMtW0LytujBhlYrVNJsZ/rAv9gCwN76M/UE5WlJkWgYi6xHhTT7QpWyiMIxYVfl9kYdGkSRN3nIQ+kGlxnoo2fvTRR90Kmywkr6lX+in1TKDk7/G3qJiYMiXnElNUpkwlol6YrBnfURmeINH/KRfx2odriH7GaybEKEV9UQbKiREjJlKuZAOB+ah4LdOinNQZZWFMQ3J5+Dk/4++IUx9AlJuy+uXy257yRllW/m/6I2Wh7Sv2Rcochz6arORxk1x3fM/4j6L9s3b7m9Svv/3NpOOfW8NkRi06Jge9KR/bJEziZFkaNmzo6gsTRGaVLAznd6IQW/CsDHksAasysggMGla4ZLBYOWLQ2QrF/GZy0k4WbU19Edzpdxiyxo0bu3Q/5WRLyt/+JrvAIMq0GNCYb9oag8b28k9+8hO3lUc2FdNDxpfsJH0Us4nJzLRoX8wkK1zqk209TLp/NpEVr3/kAePGNkoUYoIkg8rZTwwumQ3fVDKOKDPZBPon2SQWGPTbTMm5xBSVSVMpSZIUlbL2Rh3OCWEwMJNM5mRayP7xsyjFqoDUOJNi7dq17de//rVLTTOJMCliMNh+JPtHajqK7VrqiMzak08+aU8//bQzuGzV0q6cHcJksh3qn1skuxbFGUBEXbK1g8klO007YyRoa8rGNilGDmNBHWd6VYaoT4wQ5heziOH5zW9+c7nd6aeYSf/MGNk1VuWZFoYbU0b9sVWPMadMZM95TR36bc75HMxnFML8Uibqigy0XyYyqxwzoGx+Wemn9NdMLiadS0xRMpWSJF0LykpTiZjE/ckQA8c5mKgmwWRhashSslXLhIjh5ZwQkyHnM6gvzhOxjcc5uyjEpE3mjLJhcLnZgeyUf36E7B/lw0xikMiw8TtRiLsbyahSRswDxgLjhhlni54y0gfYJiWrGYUqGlmMMKadesTIkeWl7JwF5QxUVP0UI8uY8ctCZtI/c0fWz29z+gJ9OAqDjvh/2X4iS8ligvKSVaXe2AWgn1JGyhrFGTznElOUTKUkSdeCstZU+sIERX0Wo6L8s0OcafDxM6j8LPl1FKKuMInUG+XEjPGVsvni5xWvRSHqyS9nUL1xLU5nXBD1SzmT+yR/A2WNup9SLr/NK7ZtXNo8uY5o26B688saxThyLjFFVTSV3KggSZJU1ZT1plKSJCmTci4xRSWbyttuuy2y86qSJEl/SslUSpIkpSDnElNUsqn89re/7bb0uYOdLX4hhKgqyFRKkiSlIOcSU1SyqbzxxhvtlltusXvuucfuuusuIYSoMshUSpIkpSDnElNUsqkUQogqSyJOpiSZSkmSrlV5gTNlPfTQQ38cfIUQoqqRiJMpSaZSkqRrVV7gTFk8vL1u3bpGxvLxxx8XQogqyRc2lXy+pCRJ0rWihE9MSXx4AJ9WxLNphRCiqvKFTOXNN9/sHo4tSZJ0rSjhE1NS4lclSZKqtCptKnnW2g033GA///nPrVGjRpaTkyOEEFWehE9MSYnQKUmSVKVVaVN59913W/Xq1a1GjRpCCHHNkPCJKSkROiVJkqq0KhXsjhw54j4zOjc311q1auW+CiHEtUDCJ6akROiUJEmq0qpUsOPzdk+ePGnHjh0TQohrioRPlCRJkioq4RMlSZKkEEqETkmSJKmiEnFSkiRJCqFE6JQkSZIqKhEnJUmSpBBKhE5JkiSpohJxUpIkSQqhROiUJEmSKioRJyVJkqQQSoROSZIkqaIScVKSJEkKoUTolCRJkioqESclSZKkEEqETkmSJOn/6brr/g9tuX7KmSecbAAAAABJRU5ErkJggg==;" parent="1" vertex="1">
          <mxGeometry x="77.65" y="34" width="161.35" height="176.97" as="geometry" />
        </mxCell>
        <mxCell id="aFIkd2kD5AfC_N174I0f-10" value="&lt;h3&gt;&lt;font face=&quot;Times New Roman&quot;&gt;Dose Distribution&lt;/font&gt;&lt;/h3&gt;" style="text;html=1;resizable=0;autosize=1;align=center;verticalAlign=middle;points=[];fillColor=none;strokeColor=none;rounded=1;labelBackgroundColor=none;fontColor=#143642;" parent="1" vertex="1">
          <mxGeometry x="1239.03" y="15" width="130" height="60" as="geometry" />
        </mxCell>
      </root>
    </mxGraphModel>
  </diagram>
</mxfile>
